0
SECTION
2
HEADER
9
$ACADVER
1
AC1009
9
$INSUNITS
70
4
9
$EXTMIN
10
0.0
20
0.0
30
0.0
9
$EXTMAX
10
1200.0
20
2400.0
30
0.0
0
ENDSEC
0
SECTION
2
TABLES
0
TABLE
2
LAYER
70
4
0
LAYER
2
HNP-PANEL-OUTLINE
70
0
62
7
6
CONTINUOUS
0
LAYER
2
HNP-PERFORATION
70
0
62
1
6
CONTINUOUS
0
LAYER
2
HNP-FIXING
70
0
62
5
6
CONTINUOUS
0
LAYER
2
HNP-NOTES
70
0
62
8
6
CONTINUOUS
0
ENDTAB
0
ENDSEC
0
SECTION
2
ENTITIES
0
LINE
8
HNP-PANEL-OUTLINE
10
0.000
20
0.000
30
0.0
11
1200.000
21
0.000
31
0.0
0
LINE
8
HNP-PANEL-OUTLINE
10
1200.000
20
0.000
30
0.0
11
1200.000
21
2400.000
31
0.0
0
LINE
8
HNP-PANEL-OUTLINE
10
1200.000
20
2400.000
30
0.0
11
0.000
21
2400.000
31
0.0
0
LINE
8
HNP-PANEL-OUTLINE
10
0.000
20
2400.000
30
0.0
11
0.000
21
0.000
31
0.0
0
LINE
8
HNP-PERFORATION
10
60.000
20
60.000
30
0.0
11
105.000
21
60.000
31
0.0
0
LINE
8
HNP-PERFORATION
10
105.000
20
60.000
30
0.0
11
105.000
21
105.000
31
0.0
0
LINE
8
HNP-PERFORATION
10
105.000
20
105.000
30
0.0
11
60.000
21
105.000
31
0.0
0
LINE
8
HNP-PERFORATION
10
60.000
20
105.000
30
0.0
11
60.000
21
60.000
31
0.0
0
LINE
8
HNP-PERFORATION
10
140.000
20
60.000
30
0.0
11
185.000
21
60.000
31
0.0
0
LINE
8
HNP-PERFORATION
10
185.000
20
60.000
30
0.0
11
185.000
21
105.000
31
0.0
0
LINE
8
HNP-PERFORATION
10
185.000
20
105.000
30
0.0
11
140.000
21
105.000
31
0.0
0
LINE
8
HNP-PERFORATION
10
140.000
20
105.000
30
0.0
11
140.000
21
60.000
31
0.0
0
LINE
8
HNP-PERFORATION
10
220.000
20
60.000
30
0.0
11
265.000
21
60.000
31
0.0
0
LINE
8
HNP-PERFORATION
10
265.000
20
60.000
30
0.0
11
265.000
21
105.000
31
0.0
0
LINE
8
HNP-PERFORATION
10
265.000
20
105.000
30
0.0
11
220.000
21
105.000
31
0.0
0
LINE
8
HNP-PERFORATION
10
220.000
20
105.000
30
0.0
11
220.000
21
60.000
31
0.0
0
LINE
8
HNP-PERFORATION
10
300.000
20
60.000
30
0.0
11
345.000
21
60.000
31
0.0
0
LINE
8
HNP-PERFORATION
10
345.000
20
60.000
30
0.0
11
345.000
21
105.000
31
0.0
0
LINE
8
HNP-PERFORATION
10
345.000
20
105.000
30
0.0
11
300.000
21
105.000
31
0.0
0
LINE
8
HNP-PERFORATION
10
300.000
20
105.000
30
0.0
11
300.000
21
60.000
31
0.0
0
LINE
8
HNP-PERFORATION
10
380.000
20
60.000
30
0.0
11
425.000
21
60.000
31
0.0
0
LINE
8
HNP-PERFORATION
10
425.000
20
60.000
30
0.0
11
425.000
21
105.000
31
0.0
0
LINE
8
HNP-PERFORATION
10
425.000
20
105.000
30
0.0
11
380.000
21
105.000
31
0.0
0
LINE
8
HNP-PERFORATION
10
380.000
20
105.000
30
0.0
11
380.000
21
60.000
31
0.0
0
LINE
8
HNP-PERFORATION
10
460.000
20
60.000
30
0.0
11
505.000
21
60.000
31
0.0
0
LINE
8
HNP-PERFORATION
10
505.000
20
60.000
30
0.0
11
505.000
21
105.000
31
0.0
0
LINE
8
HNP-PERFORATION
10
505.000
20
105.000
30
0.0
11
460.000
21
105.000
31
0.0
0
LINE
8
HNP-PERFORATION
10
460.000
20
105.000
30
0.0
11
460.000
21
60.000
31
0.0
0
LINE
8
HNP-PERFORATION
10
540.000
20
60.000
30
0.0
11
585.000
21
60.000
31
0.0
0
LINE
8
HNP-PERFORATION
10
585.000
20
60.000
30
0.0
11
585.000
21
105.000
31
0.0
0
LINE
8
HNP-PERFORATION
10
585.000
20
105.000
30
0.0
11
540.000
21
105.000
31
0.0
0
LINE
8
HNP-PERFORATION
10
540.000
20
105.000
30
0.0
11
540.000
21
60.000
31
0.0
0
LINE
8
HNP-PERFORATION
10
620.000
20
60.000
30
0.0
11
665.000
21
60.000
31
0.0
0
LINE
8
HNP-PERFORATION
10
665.000
20
60.000
30
0.0
11
665.000
21
105.000
31
0.0
0
LINE
8
HNP-PERFORATION
10
665.000
20
105.000
30
0.0
11
620.000
21
105.000
31
0.0
0
LINE
8
HNP-PERFORATION
10
620.000
20
105.000
30
0.0
11
620.000
21
60.000
31
0.0
0
LINE
8
HNP-PERFORATION
10
700.000
20
60.000
30
0.0
11
745.000
21
60.000
31
0.0
0
LINE
8
HNP-PERFORATION
10
745.000
20
60.000
30
0.0
11
745.000
21
105.000
31
0.0
0
LINE
8
HNP-PERFORATION
10
745.000
20
105.000
30
0.0
11
700.000
21
105.000
31
0.0
0
LINE
8
HNP-PERFORATION
10
700.000
20
105.000
30
0.0
11
700.000
21
60.000
31
0.0
0
LINE
8
HNP-PERFORATION
10
780.000
20
60.000
30
0.0
11
825.000
21
60.000
31
0.0
0
LINE
8
HNP-PERFORATION
10
825.000
20
60.000
30
0.0
11
825.000
21
105.000
31
0.0
0
LINE
8
HNP-PERFORATION
10
825.000
20
105.000
30
0.0
11
780.000
21
105.000
31
0.0
0
LINE
8
HNP-PERFORATION
10
780.000
20
105.000
30
0.0
11
780.000
21
60.000
31
0.0
0
LINE
8
HNP-PERFORATION
10
860.000
20
60.000
30
0.0
11
905.000
21
60.000
31
0.0
0
LINE
8
HNP-PERFORATION
10
905.000
20
60.000
30
0.0
11
905.000
21
105.000
31
0.0
0
LINE
8
HNP-PERFORATION
10
905.000
20
105.000
30
0.0
11
860.000
21
105.000
31
0.0
0
LINE
8
HNP-PERFORATION
10
860.000
20
105.000
30
0.0
11
860.000
21
60.000
31
0.0
0
LINE
8
HNP-PERFORATION
10
940.000
20
60.000
30
0.0
11
985.000
21
60.000
31
0.0
0
LINE
8
HNP-PERFORATION
10
985.000
20
60.000
30
0.0
11
985.000
21
105.000
31
0.0
0
LINE
8
HNP-PERFORATION
10
985.000
20
105.000
30
0.0
11
940.000
21
105.000
31
0.0
0
LINE
8
HNP-PERFORATION
10
940.000
20
105.000
30
0.0
11
940.000
21
60.000
31
0.0
0
LINE
8
HNP-PERFORATION
10
1020.000
20
60.000
30
0.0
11
1065.000
21
60.000
31
0.0
0
LINE
8
HNP-PERFORATION
10
1065.000
20
60.000
30
0.0
11
1065.000
21
105.000
31
0.0
0
LINE
8
HNP-PERFORATION
10
1065.000
20
105.000
30
0.0
11
1020.000
21
105.000
31
0.0
0
LINE
8
HNP-PERFORATION
10
1020.000
20
105.000
30
0.0
11
1020.000
21
60.000
31
0.0
0
LINE
8
HNP-PERFORATION
10
60.000
20
140.000
30
0.0
11
105.000
21
140.000
31
0.0
0
LINE
8
HNP-PERFORATION
10
105.000
20
140.000
30
0.0
11
105.000
21
185.000
31
0.0
0
LINE
8
HNP-PERFORATION
10
105.000
20
185.000
30
0.0
11
60.000
21
185.000
31
0.0
0
LINE
8
HNP-PERFORATION
10
60.000
20
185.000
30
0.0
11
60.000
21
140.000
31
0.0
0
LINE
8
HNP-PERFORATION
10
140.000
20
140.000
30
0.0
11
185.000
21
140.000
31
0.0
0
LINE
8
HNP-PERFORATION
10
185.000
20
140.000
30
0.0
11
185.000
21
185.000
31
0.0
0
LINE
8
HNP-PERFORATION
10
185.000
20
185.000
30
0.0
11
140.000
21
185.000
31
0.0
0
LINE
8
HNP-PERFORATION
10
140.000
20
185.000
30
0.0
11
140.000
21
140.000
31
0.0
0
LINE
8
HNP-PERFORATION
10
220.000
20
140.000
30
0.0
11
265.000
21
140.000
31
0.0
0
LINE
8
HNP-PERFORATION
10
265.000
20
140.000
30
0.0
11
265.000
21
185.000
31
0.0
0
LINE
8
HNP-PERFORATION
10
265.000
20
185.000
30
0.0
11
220.000
21
185.000
31
0.0
0
LINE
8
HNP-PERFORATION
10
220.000
20
185.000
30
0.0
11
220.000
21
140.000
31
0.0
0
LINE
8
HNP-PERFORATION
10
300.000
20
140.000
30
0.0
11
345.000
21
140.000
31
0.0
0
LINE
8
HNP-PERFORATION
10
345.000
20
140.000
30
0.0
11
345.000
21
185.000
31
0.0
0
LINE
8
HNP-PERFORATION
10
345.000
20
185.000
30
0.0
11
300.000
21
185.000
31
0.0
0
LINE
8
HNP-PERFORATION
10
300.000
20
185.000
30
0.0
11
300.000
21
140.000
31
0.0
0
LINE
8
HNP-PERFORATION
10
380.000
20
140.000
30
0.0
11
425.000
21
140.000
31
0.0
0
LINE
8
HNP-PERFORATION
10
425.000
20
140.000
30
0.0
11
425.000
21
185.000
31
0.0
0
LINE
8
HNP-PERFORATION
10
425.000
20
185.000
30
0.0
11
380.000
21
185.000
31
0.0
0
LINE
8
HNP-PERFORATION
10
380.000
20
185.000
30
0.0
11
380.000
21
140.000
31
0.0
0
LINE
8
HNP-PERFORATION
10
460.000
20
140.000
30
0.0
11
505.000
21
140.000
31
0.0
0
LINE
8
HNP-PERFORATION
10
505.000
20
140.000
30
0.0
11
505.000
21
185.000
31
0.0
0
LINE
8
HNP-PERFORATION
10
505.000
20
185.000
30
0.0
11
460.000
21
185.000
31
0.0
0
LINE
8
HNP-PERFORATION
10
460.000
20
185.000
30
0.0
11
460.000
21
140.000
31
0.0
0
LINE
8
HNP-PERFORATION
10
540.000
20
140.000
30
0.0
11
585.000
21
140.000
31
0.0
0
LINE
8
HNP-PERFORATION
10
585.000
20
140.000
30
0.0
11
585.000
21
185.000
31
0.0
0
LINE
8
HNP-PERFORATION
10
585.000
20
185.000
30
0.0
11
540.000
21
185.000
31
0.0
0
LINE
8
HNP-PERFORATION
10
540.000
20
185.000
30
0.0
11
540.000
21
140.000
31
0.0
0
LINE
8
HNP-PERFORATION
10
620.000
20
140.000
30
0.0
11
665.000
21
140.000
31
0.0
0
LINE
8
HNP-PERFORATION
10
665.000
20
140.000
30
0.0
11
665.000
21
185.000
31
0.0
0
LINE
8
HNP-PERFORATION
10
665.000
20
185.000
30
0.0
11
620.000
21
185.000
31
0.0
0
LINE
8
HNP-PERFORATION
10
620.000
20
185.000
30
0.0
11
620.000
21
140.000
31
0.0
0
LINE
8
HNP-PERFORATION
10
700.000
20
140.000
30
0.0
11
745.000
21
140.000
31
0.0
0
LINE
8
HNP-PERFORATION
10
745.000
20
140.000
30
0.0
11
745.000
21
185.000
31
0.0
0
LINE
8
HNP-PERFORATION
10
745.000
20
185.000
30
0.0
11
700.000
21
185.000
31
0.0
0
LINE
8
HNP-PERFORATION
10
700.000
20
185.000
30
0.0
11
700.000
21
140.000
31
0.0
0
LINE
8
HNP-PERFORATION
10
780.000
20
140.000
30
0.0
11
825.000
21
140.000
31
0.0
0
LINE
8
HNP-PERFORATION
10
825.000
20
140.000
30
0.0
11
825.000
21
185.000
31
0.0
0
LINE
8
HNP-PERFORATION
10
825.000
20
185.000
30
0.0
11
780.000
21
185.000
31
0.0
0
LINE
8
HNP-PERFORATION
10
780.000
20
185.000
30
0.0
11
780.000
21
140.000
31
0.0
0
LINE
8
HNP-PERFORATION
10
860.000
20
140.000
30
0.0
11
905.000
21
140.000
31
0.0
0
LINE
8
HNP-PERFORATION
10
905.000
20
140.000
30
0.0
11
905.000
21
185.000
31
0.0
0
LINE
8
HNP-PERFORATION
10
905.000
20
185.000
30
0.0
11
860.000
21
185.000
31
0.0
0
LINE
8
HNP-PERFORATION
10
860.000
20
185.000
30
0.0
11
860.000
21
140.000
31
0.0
0
LINE
8
HNP-PERFORATION
10
940.000
20
140.000
30
0.0
11
985.000
21
140.000
31
0.0
0
LINE
8
HNP-PERFORATION
10
985.000
20
140.000
30
0.0
11
985.000
21
185.000
31
0.0
0
LINE
8
HNP-PERFORATION
10
985.000
20
185.000
30
0.0
11
940.000
21
185.000
31
0.0
0
LINE
8
HNP-PERFORATION
10
940.000
20
185.000
30
0.0
11
940.000
21
140.000
31
0.0
0
LINE
8
HNP-PERFORATION
10
1020.000
20
140.000
30
0.0
11
1065.000
21
140.000
31
0.0
0
LINE
8
HNP-PERFORATION
10
1065.000
20
140.000
30
0.0
11
1065.000
21
185.000
31
0.0
0
LINE
8
HNP-PERFORATION
10
1065.000
20
185.000
30
0.0
11
1020.000
21
185.000
31
0.0
0
LINE
8
HNP-PERFORATION
10
1020.000
20
185.000
30
0.0
11
1020.000
21
140.000
31
0.0
0
LINE
8
HNP-PERFORATION
10
60.000
20
220.000
30
0.0
11
105.000
21
220.000
31
0.0
0
LINE
8
HNP-PERFORATION
10
105.000
20
220.000
30
0.0
11
105.000
21
265.000
31
0.0
0
LINE
8
HNP-PERFORATION
10
105.000
20
265.000
30
0.0
11
60.000
21
265.000
31
0.0
0
LINE
8
HNP-PERFORATION
10
60.000
20
265.000
30
0.0
11
60.000
21
220.000
31
0.0
0
LINE
8
HNP-PERFORATION
10
140.000
20
220.000
30
0.0
11
185.000
21
220.000
31
0.0
0
LINE
8
HNP-PERFORATION
10
185.000
20
220.000
30
0.0
11
185.000
21
265.000
31
0.0
0
LINE
8
HNP-PERFORATION
10
185.000
20
265.000
30
0.0
11
140.000
21
265.000
31
0.0
0
LINE
8
HNP-PERFORATION
10
140.000
20
265.000
30
0.0
11
140.000
21
220.000
31
0.0
0
LINE
8
HNP-PERFORATION
10
220.000
20
220.000
30
0.0
11
265.000
21
220.000
31
0.0
0
LINE
8
HNP-PERFORATION
10
265.000
20
220.000
30
0.0
11
265.000
21
265.000
31
0.0
0
LINE
8
HNP-PERFORATION
10
265.000
20
265.000
30
0.0
11
220.000
21
265.000
31
0.0
0
LINE
8
HNP-PERFORATION
10
220.000
20
265.000
30
0.0
11
220.000
21
220.000
31
0.0
0
LINE
8
HNP-PERFORATION
10
300.000
20
220.000
30
0.0
11
345.000
21
220.000
31
0.0
0
LINE
8
HNP-PERFORATION
10
345.000
20
220.000
30
0.0
11
345.000
21
265.000
31
0.0
0
LINE
8
HNP-PERFORATION
10
345.000
20
265.000
30
0.0
11
300.000
21
265.000
31
0.0
0
LINE
8
HNP-PERFORATION
10
300.000
20
265.000
30
0.0
11
300.000
21
220.000
31
0.0
0
LINE
8
HNP-PERFORATION
10
380.000
20
220.000
30
0.0
11
425.000
21
220.000
31
0.0
0
LINE
8
HNP-PERFORATION
10
425.000
20
220.000
30
0.0
11
425.000
21
265.000
31
0.0
0
LINE
8
HNP-PERFORATION
10
425.000
20
265.000
30
0.0
11
380.000
21
265.000
31
0.0
0
LINE
8
HNP-PERFORATION
10
380.000
20
265.000
30
0.0
11
380.000
21
220.000
31
0.0
0
LINE
8
HNP-PERFORATION
10
460.000
20
220.000
30
0.0
11
505.000
21
220.000
31
0.0
0
LINE
8
HNP-PERFORATION
10
505.000
20
220.000
30
0.0
11
505.000
21
265.000
31
0.0
0
LINE
8
HNP-PERFORATION
10
505.000
20
265.000
30
0.0
11
460.000
21
265.000
31
0.0
0
LINE
8
HNP-PERFORATION
10
460.000
20
265.000
30
0.0
11
460.000
21
220.000
31
0.0
0
LINE
8
HNP-PERFORATION
10
540.000
20
220.000
30
0.0
11
585.000
21
220.000
31
0.0
0
LINE
8
HNP-PERFORATION
10
585.000
20
220.000
30
0.0
11
585.000
21
265.000
31
0.0
0
LINE
8
HNP-PERFORATION
10
585.000
20
265.000
30
0.0
11
540.000
21
265.000
31
0.0
0
LINE
8
HNP-PERFORATION
10
540.000
20
265.000
30
0.0
11
540.000
21
220.000
31
0.0
0
LINE
8
HNP-PERFORATION
10
620.000
20
220.000
30
0.0
11
665.000
21
220.000
31
0.0
0
LINE
8
HNP-PERFORATION
10
665.000
20
220.000
30
0.0
11
665.000
21
265.000
31
0.0
0
LINE
8
HNP-PERFORATION
10
665.000
20
265.000
30
0.0
11
620.000
21
265.000
31
0.0
0
LINE
8
HNP-PERFORATION
10
620.000
20
265.000
30
0.0
11
620.000
21
220.000
31
0.0
0
LINE
8
HNP-PERFORATION
10
700.000
20
220.000
30
0.0
11
745.000
21
220.000
31
0.0
0
LINE
8
HNP-PERFORATION
10
745.000
20
220.000
30
0.0
11
745.000
21
265.000
31
0.0
0
LINE
8
HNP-PERFORATION
10
745.000
20
265.000
30
0.0
11
700.000
21
265.000
31
0.0
0
LINE
8
HNP-PERFORATION
10
700.000
20
265.000
30
0.0
11
700.000
21
220.000
31
0.0
0
LINE
8
HNP-PERFORATION
10
780.000
20
220.000
30
0.0
11
825.000
21
220.000
31
0.0
0
LINE
8
HNP-PERFORATION
10
825.000
20
220.000
30
0.0
11
825.000
21
265.000
31
0.0
0
LINE
8
HNP-PERFORATION
10
825.000
20
265.000
30
0.0
11
780.000
21
265.000
31
0.0
0
LINE
8
HNP-PERFORATION
10
780.000
20
265.000
30
0.0
11
780.000
21
220.000
31
0.0
0
LINE
8
HNP-PERFORATION
10
860.000
20
220.000
30
0.0
11
905.000
21
220.000
31
0.0
0
LINE
8
HNP-PERFORATION
10
905.000
20
220.000
30
0.0
11
905.000
21
265.000
31
0.0
0
LINE
8
HNP-PERFORATION
10
905.000
20
265.000
30
0.0
11
860.000
21
265.000
31
0.0
0
LINE
8
HNP-PERFORATION
10
860.000
20
265.000
30
0.0
11
860.000
21
220.000
31
0.0
0
LINE
8
HNP-PERFORATION
10
940.000
20
220.000
30
0.0
11
985.000
21
220.000
31
0.0
0
LINE
8
HNP-PERFORATION
10
985.000
20
220.000
30
0.0
11
985.000
21
265.000
31
0.0
0
LINE
8
HNP-PERFORATION
10
985.000
20
265.000
30
0.0
11
940.000
21
265.000
31
0.0
0
LINE
8
HNP-PERFORATION
10
940.000
20
265.000
30
0.0
11
940.000
21
220.000
31
0.0
0
LINE
8
HNP-PERFORATION
10
1020.000
20
220.000
30
0.0
11
1065.000
21
220.000
31
0.0
0
LINE
8
HNP-PERFORATION
10
1065.000
20
220.000
30
0.0
11
1065.000
21
265.000
31
0.0
0
LINE
8
HNP-PERFORATION
10
1065.000
20
265.000
30
0.0
11
1020.000
21
265.000
31
0.0
0
LINE
8
HNP-PERFORATION
10
1020.000
20
265.000
30
0.0
11
1020.000
21
220.000
31
0.0
0
LINE
8
HNP-PERFORATION
10
60.000
20
300.000
30
0.0
11
105.000
21
300.000
31
0.0
0
LINE
8
HNP-PERFORATION
10
105.000
20
300.000
30
0.0
11
105.000
21
345.000
31
0.0
0
LINE
8
HNP-PERFORATION
10
105.000
20
345.000
30
0.0
11
60.000
21
345.000
31
0.0
0
LINE
8
HNP-PERFORATION
10
60.000
20
345.000
30
0.0
11
60.000
21
300.000
31
0.0
0
LINE
8
HNP-PERFORATION
10
140.000
20
300.000
30
0.0
11
185.000
21
300.000
31
0.0
0
LINE
8
HNP-PERFORATION
10
185.000
20
300.000
30
0.0
11
185.000
21
345.000
31
0.0
0
LINE
8
HNP-PERFORATION
10
185.000
20
345.000
30
0.0
11
140.000
21
345.000
31
0.0
0
LINE
8
HNP-PERFORATION
10
140.000
20
345.000
30
0.0
11
140.000
21
300.000
31
0.0
0
LINE
8
HNP-PERFORATION
10
220.000
20
300.000
30
0.0
11
265.000
21
300.000
31
0.0
0
LINE
8
HNP-PERFORATION
10
265.000
20
300.000
30
0.0
11
265.000
21
345.000
31
0.0
0
LINE
8
HNP-PERFORATION
10
265.000
20
345.000
30
0.0
11
220.000
21
345.000
31
0.0
0
LINE
8
HNP-PERFORATION
10
220.000
20
345.000
30
0.0
11
220.000
21
300.000
31
0.0
0
LINE
8
HNP-PERFORATION
10
300.000
20
300.000
30
0.0
11
345.000
21
300.000
31
0.0
0
LINE
8
HNP-PERFORATION
10
345.000
20
300.000
30
0.0
11
345.000
21
345.000
31
0.0
0
LINE
8
HNP-PERFORATION
10
345.000
20
345.000
30
0.0
11
300.000
21
345.000
31
0.0
0
LINE
8
HNP-PERFORATION
10
300.000
20
345.000
30
0.0
11
300.000
21
300.000
31
0.0
0
LINE
8
HNP-PERFORATION
10
380.000
20
300.000
30
0.0
11
425.000
21
300.000
31
0.0
0
LINE
8
HNP-PERFORATION
10
425.000
20
300.000
30
0.0
11
425.000
21
345.000
31
0.0
0
LINE
8
HNP-PERFORATION
10
425.000
20
345.000
30
0.0
11
380.000
21
345.000
31
0.0
0
LINE
8
HNP-PERFORATION
10
380.000
20
345.000
30
0.0
11
380.000
21
300.000
31
0.0
0
LINE
8
HNP-PERFORATION
10
460.000
20
300.000
30
0.0
11
505.000
21
300.000
31
0.0
0
LINE
8
HNP-PERFORATION
10
505.000
20
300.000
30
0.0
11
505.000
21
345.000
31
0.0
0
LINE
8
HNP-PERFORATION
10
505.000
20
345.000
30
0.0
11
460.000
21
345.000
31
0.0
0
LINE
8
HNP-PERFORATION
10
460.000
20
345.000
30
0.0
11
460.000
21
300.000
31
0.0
0
LINE
8
HNP-PERFORATION
10
540.000
20
300.000
30
0.0
11
585.000
21
300.000
31
0.0
0
LINE
8
HNP-PERFORATION
10
585.000
20
300.000
30
0.0
11
585.000
21
345.000
31
0.0
0
LINE
8
HNP-PERFORATION
10
585.000
20
345.000
30
0.0
11
540.000
21
345.000
31
0.0
0
LINE
8
HNP-PERFORATION
10
540.000
20
345.000
30
0.0
11
540.000
21
300.000
31
0.0
0
LINE
8
HNP-PERFORATION
10
620.000
20
300.000
30
0.0
11
665.000
21
300.000
31
0.0
0
LINE
8
HNP-PERFORATION
10
665.000
20
300.000
30
0.0
11
665.000
21
345.000
31
0.0
0
LINE
8
HNP-PERFORATION
10
665.000
20
345.000
30
0.0
11
620.000
21
345.000
31
0.0
0
LINE
8
HNP-PERFORATION
10
620.000
20
345.000
30
0.0
11
620.000
21
300.000
31
0.0
0
LINE
8
HNP-PERFORATION
10
700.000
20
300.000
30
0.0
11
745.000
21
300.000
31
0.0
0
LINE
8
HNP-PERFORATION
10
745.000
20
300.000
30
0.0
11
745.000
21
345.000
31
0.0
0
LINE
8
HNP-PERFORATION
10
745.000
20
345.000
30
0.0
11
700.000
21
345.000
31
0.0
0
LINE
8
HNP-PERFORATION
10
700.000
20
345.000
30
0.0
11
700.000
21
300.000
31
0.0
0
LINE
8
HNP-PERFORATION
10
780.000
20
300.000
30
0.0
11
825.000
21
300.000
31
0.0
0
LINE
8
HNP-PERFORATION
10
825.000
20
300.000
30
0.0
11
825.000
21
345.000
31
0.0
0
LINE
8
HNP-PERFORATION
10
825.000
20
345.000
30
0.0
11
780.000
21
345.000
31
0.0
0
LINE
8
HNP-PERFORATION
10
780.000
20
345.000
30
0.0
11
780.000
21
300.000
31
0.0
0
LINE
8
HNP-PERFORATION
10
860.000
20
300.000
30
0.0
11
905.000
21
300.000
31
0.0
0
LINE
8
HNP-PERFORATION
10
905.000
20
300.000
30
0.0
11
905.000
21
345.000
31
0.0
0
LINE
8
HNP-PERFORATION
10
905.000
20
345.000
30
0.0
11
860.000
21
345.000
31
0.0
0
LINE
8
HNP-PERFORATION
10
860.000
20
345.000
30
0.0
11
860.000
21
300.000
31
0.0
0
LINE
8
HNP-PERFORATION
10
940.000
20
300.000
30
0.0
11
985.000
21
300.000
31
0.0
0
LINE
8
HNP-PERFORATION
10
985.000
20
300.000
30
0.0
11
985.000
21
345.000
31
0.0
0
LINE
8
HNP-PERFORATION
10
985.000
20
345.000
30
0.0
11
940.000
21
345.000
31
0.0
0
LINE
8
HNP-PERFORATION
10
940.000
20
345.000
30
0.0
11
940.000
21
300.000
31
0.0
0
LINE
8
HNP-PERFORATION
10
1020.000
20
300.000
30
0.0
11
1065.000
21
300.000
31
0.0
0
LINE
8
HNP-PERFORATION
10
1065.000
20
300.000
30
0.0
11
1065.000
21
345.000
31
0.0
0
LINE
8
HNP-PERFORATION
10
1065.000
20
345.000
30
0.0
11
1020.000
21
345.000
31
0.0
0
LINE
8
HNP-PERFORATION
10
1020.000
20
345.000
30
0.0
11
1020.000
21
300.000
31
0.0
0
LINE
8
HNP-PERFORATION
10
60.000
20
380.000
30
0.0
11
105.000
21
380.000
31
0.0
0
LINE
8
HNP-PERFORATION
10
105.000
20
380.000
30
0.0
11
105.000
21
425.000
31
0.0
0
LINE
8
HNP-PERFORATION
10
105.000
20
425.000
30
0.0
11
60.000
21
425.000
31
0.0
0
LINE
8
HNP-PERFORATION
10
60.000
20
425.000
30
0.0
11
60.000
21
380.000
31
0.0
0
LINE
8
HNP-PERFORATION
10
140.000
20
380.000
30
0.0
11
185.000
21
380.000
31
0.0
0
LINE
8
HNP-PERFORATION
10
185.000
20
380.000
30
0.0
11
185.000
21
425.000
31
0.0
0
LINE
8
HNP-PERFORATION
10
185.000
20
425.000
30
0.0
11
140.000
21
425.000
31
0.0
0
LINE
8
HNP-PERFORATION
10
140.000
20
425.000
30
0.0
11
140.000
21
380.000
31
0.0
0
LINE
8
HNP-PERFORATION
10
220.000
20
380.000
30
0.0
11
265.000
21
380.000
31
0.0
0
LINE
8
HNP-PERFORATION
10
265.000
20
380.000
30
0.0
11
265.000
21
425.000
31
0.0
0
LINE
8
HNP-PERFORATION
10
265.000
20
425.000
30
0.0
11
220.000
21
425.000
31
0.0
0
LINE
8
HNP-PERFORATION
10
220.000
20
425.000
30
0.0
11
220.000
21
380.000
31
0.0
0
LINE
8
HNP-PERFORATION
10
300.000
20
380.000
30
0.0
11
345.000
21
380.000
31
0.0
0
LINE
8
HNP-PERFORATION
10
345.000
20
380.000
30
0.0
11
345.000
21
425.000
31
0.0
0
LINE
8
HNP-PERFORATION
10
345.000
20
425.000
30
0.0
11
300.000
21
425.000
31
0.0
0
LINE
8
HNP-PERFORATION
10
300.000
20
425.000
30
0.0
11
300.000
21
380.000
31
0.0
0
LINE
8
HNP-PERFORATION
10
380.000
20
380.000
30
0.0
11
425.000
21
380.000
31
0.0
0
LINE
8
HNP-PERFORATION
10
425.000
20
380.000
30
0.0
11
425.000
21
425.000
31
0.0
0
LINE
8
HNP-PERFORATION
10
425.000
20
425.000
30
0.0
11
380.000
21
425.000
31
0.0
0
LINE
8
HNP-PERFORATION
10
380.000
20
425.000
30
0.0
11
380.000
21
380.000
31
0.0
0
LINE
8
HNP-PERFORATION
10
460.000
20
380.000
30
0.0
11
505.000
21
380.000
31
0.0
0
LINE
8
HNP-PERFORATION
10
505.000
20
380.000
30
0.0
11
505.000
21
425.000
31
0.0
0
LINE
8
HNP-PERFORATION
10
505.000
20
425.000
30
0.0
11
460.000
21
425.000
31
0.0
0
LINE
8
HNP-PERFORATION
10
460.000
20
425.000
30
0.0
11
460.000
21
380.000
31
0.0
0
LINE
8
HNP-PERFORATION
10
540.000
20
380.000
30
0.0
11
585.000
21
380.000
31
0.0
0
LINE
8
HNP-PERFORATION
10
585.000
20
380.000
30
0.0
11
585.000
21
425.000
31
0.0
0
LINE
8
HNP-PERFORATION
10
585.000
20
425.000
30
0.0
11
540.000
21
425.000
31
0.0
0
LINE
8
HNP-PERFORATION
10
540.000
20
425.000
30
0.0
11
540.000
21
380.000
31
0.0
0
LINE
8
HNP-PERFORATION
10
620.000
20
380.000
30
0.0
11
665.000
21
380.000
31
0.0
0
LINE
8
HNP-PERFORATION
10
665.000
20
380.000
30
0.0
11
665.000
21
425.000
31
0.0
0
LINE
8
HNP-PERFORATION
10
665.000
20
425.000
30
0.0
11
620.000
21
425.000
31
0.0
0
LINE
8
HNP-PERFORATION
10
620.000
20
425.000
30
0.0
11
620.000
21
380.000
31
0.0
0
LINE
8
HNP-PERFORATION
10
700.000
20
380.000
30
0.0
11
745.000
21
380.000
31
0.0
0
LINE
8
HNP-PERFORATION
10
745.000
20
380.000
30
0.0
11
745.000
21
425.000
31
0.0
0
LINE
8
HNP-PERFORATION
10
745.000
20
425.000
30
0.0
11
700.000
21
425.000
31
0.0
0
LINE
8
HNP-PERFORATION
10
700.000
20
425.000
30
0.0
11
700.000
21
380.000
31
0.0
0
LINE
8
HNP-PERFORATION
10
780.000
20
380.000
30
0.0
11
825.000
21
380.000
31
0.0
0
LINE
8
HNP-PERFORATION
10
825.000
20
380.000
30
0.0
11
825.000
21
425.000
31
0.0
0
LINE
8
HNP-PERFORATION
10
825.000
20
425.000
30
0.0
11
780.000
21
425.000
31
0.0
0
LINE
8
HNP-PERFORATION
10
780.000
20
425.000
30
0.0
11
780.000
21
380.000
31
0.0
0
LINE
8
HNP-PERFORATION
10
860.000
20
380.000
30
0.0
11
905.000
21
380.000
31
0.0
0
LINE
8
HNP-PERFORATION
10
905.000
20
380.000
30
0.0
11
905.000
21
425.000
31
0.0
0
LINE
8
HNP-PERFORATION
10
905.000
20
425.000
30
0.0
11
860.000
21
425.000
31
0.0
0
LINE
8
HNP-PERFORATION
10
860.000
20
425.000
30
0.0
11
860.000
21
380.000
31
0.0
0
LINE
8
HNP-PERFORATION
10
940.000
20
380.000
30
0.0
11
985.000
21
380.000
31
0.0
0
LINE
8
HNP-PERFORATION
10
985.000
20
380.000
30
0.0
11
985.000
21
425.000
31
0.0
0
LINE
8
HNP-PERFORATION
10
985.000
20
425.000
30
0.0
11
940.000
21
425.000
31
0.0
0
LINE
8
HNP-PERFORATION
10
940.000
20
425.000
30
0.0
11
940.000
21
380.000
31
0.0
0
LINE
8
HNP-PERFORATION
10
1020.000
20
380.000
30
0.0
11
1065.000
21
380.000
31
0.0
0
LINE
8
HNP-PERFORATION
10
1065.000
20
380.000
30
0.0
11
1065.000
21
425.000
31
0.0
0
LINE
8
HNP-PERFORATION
10
1065.000
20
425.000
30
0.0
11
1020.000
21
425.000
31
0.0
0
LINE
8
HNP-PERFORATION
10
1020.000
20
425.000
30
0.0
11
1020.000
21
380.000
31
0.0
0
LINE
8
HNP-PERFORATION
10
60.000
20
460.000
30
0.0
11
105.000
21
460.000
31
0.0
0
LINE
8
HNP-PERFORATION
10
105.000
20
460.000
30
0.0
11
105.000
21
505.000
31
0.0
0
LINE
8
HNP-PERFORATION
10
105.000
20
505.000
30
0.0
11
60.000
21
505.000
31
0.0
0
LINE
8
HNP-PERFORATION
10
60.000
20
505.000
30
0.0
11
60.000
21
460.000
31
0.0
0
LINE
8
HNP-PERFORATION
10
140.000
20
460.000
30
0.0
11
185.000
21
460.000
31
0.0
0
LINE
8
HNP-PERFORATION
10
185.000
20
460.000
30
0.0
11
185.000
21
505.000
31
0.0
0
LINE
8
HNP-PERFORATION
10
185.000
20
505.000
30
0.0
11
140.000
21
505.000
31
0.0
0
LINE
8
HNP-PERFORATION
10
140.000
20
505.000
30
0.0
11
140.000
21
460.000
31
0.0
0
LINE
8
HNP-PERFORATION
10
220.000
20
460.000
30
0.0
11
265.000
21
460.000
31
0.0
0
LINE
8
HNP-PERFORATION
10
265.000
20
460.000
30
0.0
11
265.000
21
505.000
31
0.0
0
LINE
8
HNP-PERFORATION
10
265.000
20
505.000
30
0.0
11
220.000
21
505.000
31
0.0
0
LINE
8
HNP-PERFORATION
10
220.000
20
505.000
30
0.0
11
220.000
21
460.000
31
0.0
0
LINE
8
HNP-PERFORATION
10
300.000
20
460.000
30
0.0
11
345.000
21
460.000
31
0.0
0
LINE
8
HNP-PERFORATION
10
345.000
20
460.000
30
0.0
11
345.000
21
505.000
31
0.0
0
LINE
8
HNP-PERFORATION
10
345.000
20
505.000
30
0.0
11
300.000
21
505.000
31
0.0
0
LINE
8
HNP-PERFORATION
10
300.000
20
505.000
30
0.0
11
300.000
21
460.000
31
0.0
0
LINE
8
HNP-PERFORATION
10
380.000
20
460.000
30
0.0
11
425.000
21
460.000
31
0.0
0
LINE
8
HNP-PERFORATION
10
425.000
20
460.000
30
0.0
11
425.000
21
505.000
31
0.0
0
LINE
8
HNP-PERFORATION
10
425.000
20
505.000
30
0.0
11
380.000
21
505.000
31
0.0
0
LINE
8
HNP-PERFORATION
10
380.000
20
505.000
30
0.0
11
380.000
21
460.000
31
0.0
0
LINE
8
HNP-PERFORATION
10
460.000
20
460.000
30
0.0
11
505.000
21
460.000
31
0.0
0
LINE
8
HNP-PERFORATION
10
505.000
20
460.000
30
0.0
11
505.000
21
505.000
31
0.0
0
LINE
8
HNP-PERFORATION
10
505.000
20
505.000
30
0.0
11
460.000
21
505.000
31
0.0
0
LINE
8
HNP-PERFORATION
10
460.000
20
505.000
30
0.0
11
460.000
21
460.000
31
0.0
0
LINE
8
HNP-PERFORATION
10
540.000
20
460.000
30
0.0
11
585.000
21
460.000
31
0.0
0
LINE
8
HNP-PERFORATION
10
585.000
20
460.000
30
0.0
11
585.000
21
505.000
31
0.0
0
LINE
8
HNP-PERFORATION
10
585.000
20
505.000
30
0.0
11
540.000
21
505.000
31
0.0
0
LINE
8
HNP-PERFORATION
10
540.000
20
505.000
30
0.0
11
540.000
21
460.000
31
0.0
0
LINE
8
HNP-PERFORATION
10
620.000
20
460.000
30
0.0
11
665.000
21
460.000
31
0.0
0
LINE
8
HNP-PERFORATION
10
665.000
20
460.000
30
0.0
11
665.000
21
505.000
31
0.0
0
LINE
8
HNP-PERFORATION
10
665.000
20
505.000
30
0.0
11
620.000
21
505.000
31
0.0
0
LINE
8
HNP-PERFORATION
10
620.000
20
505.000
30
0.0
11
620.000
21
460.000
31
0.0
0
LINE
8
HNP-PERFORATION
10
700.000
20
460.000
30
0.0
11
745.000
21
460.000
31
0.0
0
LINE
8
HNP-PERFORATION
10
745.000
20
460.000
30
0.0
11
745.000
21
505.000
31
0.0
0
LINE
8
HNP-PERFORATION
10
745.000
20
505.000
30
0.0
11
700.000
21
505.000
31
0.0
0
LINE
8
HNP-PERFORATION
10
700.000
20
505.000
30
0.0
11
700.000
21
460.000
31
0.0
0
LINE
8
HNP-PERFORATION
10
780.000
20
460.000
30
0.0
11
825.000
21
460.000
31
0.0
0
LINE
8
HNP-PERFORATION
10
825.000
20
460.000
30
0.0
11
825.000
21
505.000
31
0.0
0
LINE
8
HNP-PERFORATION
10
825.000
20
505.000
30
0.0
11
780.000
21
505.000
31
0.0
0
LINE
8
HNP-PERFORATION
10
780.000
20
505.000
30
0.0
11
780.000
21
460.000
31
0.0
0
LINE
8
HNP-PERFORATION
10
860.000
20
460.000
30
0.0
11
905.000
21
460.000
31
0.0
0
LINE
8
HNP-PERFORATION
10
905.000
20
460.000
30
0.0
11
905.000
21
505.000
31
0.0
0
LINE
8
HNP-PERFORATION
10
905.000
20
505.000
30
0.0
11
860.000
21
505.000
31
0.0
0
LINE
8
HNP-PERFORATION
10
860.000
20
505.000
30
0.0
11
860.000
21
460.000
31
0.0
0
LINE
8
HNP-PERFORATION
10
940.000
20
460.000
30
0.0
11
985.000
21
460.000
31
0.0
0
LINE
8
HNP-PERFORATION
10
985.000
20
460.000
30
0.0
11
985.000
21
505.000
31
0.0
0
LINE
8
HNP-PERFORATION
10
985.000
20
505.000
30
0.0
11
940.000
21
505.000
31
0.0
0
LINE
8
HNP-PERFORATION
10
940.000
20
505.000
30
0.0
11
940.000
21
460.000
31
0.0
0
LINE
8
HNP-PERFORATION
10
1020.000
20
460.000
30
0.0
11
1065.000
21
460.000
31
0.0
0
LINE
8
HNP-PERFORATION
10
1065.000
20
460.000
30
0.0
11
1065.000
21
505.000
31
0.0
0
LINE
8
HNP-PERFORATION
10
1065.000
20
505.000
30
0.0
11
1020.000
21
505.000
31
0.0
0
LINE
8
HNP-PERFORATION
10
1020.000
20
505.000
30
0.0
11
1020.000
21
460.000
31
0.0
0
LINE
8
HNP-PERFORATION
10
60.000
20
540.000
30
0.0
11
105.000
21
540.000
31
0.0
0
LINE
8
HNP-PERFORATION
10
105.000
20
540.000
30
0.0
11
105.000
21
585.000
31
0.0
0
LINE
8
HNP-PERFORATION
10
105.000
20
585.000
30
0.0
11
60.000
21
585.000
31
0.0
0
LINE
8
HNP-PERFORATION
10
60.000
20
585.000
30
0.0
11
60.000
21
540.000
31
0.0
0
LINE
8
HNP-PERFORATION
10
140.000
20
540.000
30
0.0
11
185.000
21
540.000
31
0.0
0
LINE
8
HNP-PERFORATION
10
185.000
20
540.000
30
0.0
11
185.000
21
585.000
31
0.0
0
LINE
8
HNP-PERFORATION
10
185.000
20
585.000
30
0.0
11
140.000
21
585.000
31
0.0
0
LINE
8
HNP-PERFORATION
10
140.000
20
585.000
30
0.0
11
140.000
21
540.000
31
0.0
0
LINE
8
HNP-PERFORATION
10
220.000
20
540.000
30
0.0
11
265.000
21
540.000
31
0.0
0
LINE
8
HNP-PERFORATION
10
265.000
20
540.000
30
0.0
11
265.000
21
585.000
31
0.0
0
LINE
8
HNP-PERFORATION
10
265.000
20
585.000
30
0.0
11
220.000
21
585.000
31
0.0
0
LINE
8
HNP-PERFORATION
10
220.000
20
585.000
30
0.0
11
220.000
21
540.000
31
0.0
0
LINE
8
HNP-PERFORATION
10
300.000
20
540.000
30
0.0
11
345.000
21
540.000
31
0.0
0
LINE
8
HNP-PERFORATION
10
345.000
20
540.000
30
0.0
11
345.000
21
585.000
31
0.0
0
LINE
8
HNP-PERFORATION
10
345.000
20
585.000
30
0.0
11
300.000
21
585.000
31
0.0
0
LINE
8
HNP-PERFORATION
10
300.000
20
585.000
30
0.0
11
300.000
21
540.000
31
0.0
0
LINE
8
HNP-PERFORATION
10
380.000
20
540.000
30
0.0
11
425.000
21
540.000
31
0.0
0
LINE
8
HNP-PERFORATION
10
425.000
20
540.000
30
0.0
11
425.000
21
585.000
31
0.0
0
LINE
8
HNP-PERFORATION
10
425.000
20
585.000
30
0.0
11
380.000
21
585.000
31
0.0
0
LINE
8
HNP-PERFORATION
10
380.000
20
585.000
30
0.0
11
380.000
21
540.000
31
0.0
0
LINE
8
HNP-PERFORATION
10
460.000
20
540.000
30
0.0
11
505.000
21
540.000
31
0.0
0
LINE
8
HNP-PERFORATION
10
505.000
20
540.000
30
0.0
11
505.000
21
585.000
31
0.0
0
LINE
8
HNP-PERFORATION
10
505.000
20
585.000
30
0.0
11
460.000
21
585.000
31
0.0
0
LINE
8
HNP-PERFORATION
10
460.000
20
585.000
30
0.0
11
460.000
21
540.000
31
0.0
0
LINE
8
HNP-PERFORATION
10
540.000
20
540.000
30
0.0
11
585.000
21
540.000
31
0.0
0
LINE
8
HNP-PERFORATION
10
585.000
20
540.000
30
0.0
11
585.000
21
585.000
31
0.0
0
LINE
8
HNP-PERFORATION
10
585.000
20
585.000
30
0.0
11
540.000
21
585.000
31
0.0
0
LINE
8
HNP-PERFORATION
10
540.000
20
585.000
30
0.0
11
540.000
21
540.000
31
0.0
0
LINE
8
HNP-PERFORATION
10
620.000
20
540.000
30
0.0
11
665.000
21
540.000
31
0.0
0
LINE
8
HNP-PERFORATION
10
665.000
20
540.000
30
0.0
11
665.000
21
585.000
31
0.0
0
LINE
8
HNP-PERFORATION
10
665.000
20
585.000
30
0.0
11
620.000
21
585.000
31
0.0
0
LINE
8
HNP-PERFORATION
10
620.000
20
585.000
30
0.0
11
620.000
21
540.000
31
0.0
0
LINE
8
HNP-PERFORATION
10
700.000
20
540.000
30
0.0
11
745.000
21
540.000
31
0.0
0
LINE
8
HNP-PERFORATION
10
745.000
20
540.000
30
0.0
11
745.000
21
585.000
31
0.0
0
LINE
8
HNP-PERFORATION
10
745.000
20
585.000
30
0.0
11
700.000
21
585.000
31
0.0
0
LINE
8
HNP-PERFORATION
10
700.000
20
585.000
30
0.0
11
700.000
21
540.000
31
0.0
0
LINE
8
HNP-PERFORATION
10
780.000
20
540.000
30
0.0
11
825.000
21
540.000
31
0.0
0
LINE
8
HNP-PERFORATION
10
825.000
20
540.000
30
0.0
11
825.000
21
585.000
31
0.0
0
LINE
8
HNP-PERFORATION
10
825.000
20
585.000
30
0.0
11
780.000
21
585.000
31
0.0
0
LINE
8
HNP-PERFORATION
10
780.000
20
585.000
30
0.0
11
780.000
21
540.000
31
0.0
0
LINE
8
HNP-PERFORATION
10
860.000
20
540.000
30
0.0
11
905.000
21
540.000
31
0.0
0
LINE
8
HNP-PERFORATION
10
905.000
20
540.000
30
0.0
11
905.000
21
585.000
31
0.0
0
LINE
8
HNP-PERFORATION
10
905.000
20
585.000
30
0.0
11
860.000
21
585.000
31
0.0
0
LINE
8
HNP-PERFORATION
10
860.000
20
585.000
30
0.0
11
860.000
21
540.000
31
0.0
0
LINE
8
HNP-PERFORATION
10
940.000
20
540.000
30
0.0
11
985.000
21
540.000
31
0.0
0
LINE
8
HNP-PERFORATION
10
985.000
20
540.000
30
0.0
11
985.000
21
585.000
31
0.0
0
LINE
8
HNP-PERFORATION
10
985.000
20
585.000
30
0.0
11
940.000
21
585.000
31
0.0
0
LINE
8
HNP-PERFORATION
10
940.000
20
585.000
30
0.0
11
940.000
21
540.000
31
0.0
0
LINE
8
HNP-PERFORATION
10
1020.000
20
540.000
30
0.0
11
1065.000
21
540.000
31
0.0
0
LINE
8
HNP-PERFORATION
10
1065.000
20
540.000
30
0.0
11
1065.000
21
585.000
31
0.0
0
LINE
8
HNP-PERFORATION
10
1065.000
20
585.000
30
0.0
11
1020.000
21
585.000
31
0.0
0
LINE
8
HNP-PERFORATION
10
1020.000
20
585.000
30
0.0
11
1020.000
21
540.000
31
0.0
0
LINE
8
HNP-PERFORATION
10
60.000
20
620.000
30
0.0
11
105.000
21
620.000
31
0.0
0
LINE
8
HNP-PERFORATION
10
105.000
20
620.000
30
0.0
11
105.000
21
665.000
31
0.0
0
LINE
8
HNP-PERFORATION
10
105.000
20
665.000
30
0.0
11
60.000
21
665.000
31
0.0
0
LINE
8
HNP-PERFORATION
10
60.000
20
665.000
30
0.0
11
60.000
21
620.000
31
0.0
0
LINE
8
HNP-PERFORATION
10
140.000
20
620.000
30
0.0
11
185.000
21
620.000
31
0.0
0
LINE
8
HNP-PERFORATION
10
185.000
20
620.000
30
0.0
11
185.000
21
665.000
31
0.0
0
LINE
8
HNP-PERFORATION
10
185.000
20
665.000
30
0.0
11
140.000
21
665.000
31
0.0
0
LINE
8
HNP-PERFORATION
10
140.000
20
665.000
30
0.0
11
140.000
21
620.000
31
0.0
0
LINE
8
HNP-PERFORATION
10
220.000
20
620.000
30
0.0
11
265.000
21
620.000
31
0.0
0
LINE
8
HNP-PERFORATION
10
265.000
20
620.000
30
0.0
11
265.000
21
665.000
31
0.0
0
LINE
8
HNP-PERFORATION
10
265.000
20
665.000
30
0.0
11
220.000
21
665.000
31
0.0
0
LINE
8
HNP-PERFORATION
10
220.000
20
665.000
30
0.0
11
220.000
21
620.000
31
0.0
0
LINE
8
HNP-PERFORATION
10
300.000
20
620.000
30
0.0
11
345.000
21
620.000
31
0.0
0
LINE
8
HNP-PERFORATION
10
345.000
20
620.000
30
0.0
11
345.000
21
665.000
31
0.0
0
LINE
8
HNP-PERFORATION
10
345.000
20
665.000
30
0.0
11
300.000
21
665.000
31
0.0
0
LINE
8
HNP-PERFORATION
10
300.000
20
665.000
30
0.0
11
300.000
21
620.000
31
0.0
0
LINE
8
HNP-PERFORATION
10
380.000
20
620.000
30
0.0
11
425.000
21
620.000
31
0.0
0
LINE
8
HNP-PERFORATION
10
425.000
20
620.000
30
0.0
11
425.000
21
665.000
31
0.0
0
LINE
8
HNP-PERFORATION
10
425.000
20
665.000
30
0.0
11
380.000
21
665.000
31
0.0
0
LINE
8
HNP-PERFORATION
10
380.000
20
665.000
30
0.0
11
380.000
21
620.000
31
0.0
0
LINE
8
HNP-PERFORATION
10
460.000
20
620.000
30
0.0
11
505.000
21
620.000
31
0.0
0
LINE
8
HNP-PERFORATION
10
505.000
20
620.000
30
0.0
11
505.000
21
665.000
31
0.0
0
LINE
8
HNP-PERFORATION
10
505.000
20
665.000
30
0.0
11
460.000
21
665.000
31
0.0
0
LINE
8
HNP-PERFORATION
10
460.000
20
665.000
30
0.0
11
460.000
21
620.000
31
0.0
0
LINE
8
HNP-PERFORATION
10
540.000
20
620.000
30
0.0
11
585.000
21
620.000
31
0.0
0
LINE
8
HNP-PERFORATION
10
585.000
20
620.000
30
0.0
11
585.000
21
665.000
31
0.0
0
LINE
8
HNP-PERFORATION
10
585.000
20
665.000
30
0.0
11
540.000
21
665.000
31
0.0
0
LINE
8
HNP-PERFORATION
10
540.000
20
665.000
30
0.0
11
540.000
21
620.000
31
0.0
0
LINE
8
HNP-PERFORATION
10
620.000
20
620.000
30
0.0
11
665.000
21
620.000
31
0.0
0
LINE
8
HNP-PERFORATION
10
665.000
20
620.000
30
0.0
11
665.000
21
665.000
31
0.0
0
LINE
8
HNP-PERFORATION
10
665.000
20
665.000
30
0.0
11
620.000
21
665.000
31
0.0
0
LINE
8
HNP-PERFORATION
10
620.000
20
665.000
30
0.0
11
620.000
21
620.000
31
0.0
0
LINE
8
HNP-PERFORATION
10
700.000
20
620.000
30
0.0
11
745.000
21
620.000
31
0.0
0
LINE
8
HNP-PERFORATION
10
745.000
20
620.000
30
0.0
11
745.000
21
665.000
31
0.0
0
LINE
8
HNP-PERFORATION
10
745.000
20
665.000
30
0.0
11
700.000
21
665.000
31
0.0
0
LINE
8
HNP-PERFORATION
10
700.000
20
665.000
30
0.0
11
700.000
21
620.000
31
0.0
0
LINE
8
HNP-PERFORATION
10
780.000
20
620.000
30
0.0
11
825.000
21
620.000
31
0.0
0
LINE
8
HNP-PERFORATION
10
825.000
20
620.000
30
0.0
11
825.000
21
665.000
31
0.0
0
LINE
8
HNP-PERFORATION
10
825.000
20
665.000
30
0.0
11
780.000
21
665.000
31
0.0
0
LINE
8
HNP-PERFORATION
10
780.000
20
665.000
30
0.0
11
780.000
21
620.000
31
0.0
0
LINE
8
HNP-PERFORATION
10
860.000
20
620.000
30
0.0
11
905.000
21
620.000
31
0.0
0
LINE
8
HNP-PERFORATION
10
905.000
20
620.000
30
0.0
11
905.000
21
665.000
31
0.0
0
LINE
8
HNP-PERFORATION
10
905.000
20
665.000
30
0.0
11
860.000
21
665.000
31
0.0
0
LINE
8
HNP-PERFORATION
10
860.000
20
665.000
30
0.0
11
860.000
21
620.000
31
0.0
0
LINE
8
HNP-PERFORATION
10
940.000
20
620.000
30
0.0
11
985.000
21
620.000
31
0.0
0
LINE
8
HNP-PERFORATION
10
985.000
20
620.000
30
0.0
11
985.000
21
665.000
31
0.0
0
LINE
8
HNP-PERFORATION
10
985.000
20
665.000
30
0.0
11
940.000
21
665.000
31
0.0
0
LINE
8
HNP-PERFORATION
10
940.000
20
665.000
30
0.0
11
940.000
21
620.000
31
0.0
0
LINE
8
HNP-PERFORATION
10
1020.000
20
620.000
30
0.0
11
1065.000
21
620.000
31
0.0
0
LINE
8
HNP-PERFORATION
10
1065.000
20
620.000
30
0.0
11
1065.000
21
665.000
31
0.0
0
LINE
8
HNP-PERFORATION
10
1065.000
20
665.000
30
0.0
11
1020.000
21
665.000
31
0.0
0
LINE
8
HNP-PERFORATION
10
1020.000
20
665.000
30
0.0
11
1020.000
21
620.000
31
0.0
0
LINE
8
HNP-PERFORATION
10
60.000
20
700.000
30
0.0
11
105.000
21
700.000
31
0.0
0
LINE
8
HNP-PERFORATION
10
105.000
20
700.000
30
0.0
11
105.000
21
745.000
31
0.0
0
LINE
8
HNP-PERFORATION
10
105.000
20
745.000
30
0.0
11
60.000
21
745.000
31
0.0
0
LINE
8
HNP-PERFORATION
10
60.000
20
745.000
30
0.0
11
60.000
21
700.000
31
0.0
0
LINE
8
HNP-PERFORATION
10
140.000
20
700.000
30
0.0
11
185.000
21
700.000
31
0.0
0
LINE
8
HNP-PERFORATION
10
185.000
20
700.000
30
0.0
11
185.000
21
745.000
31
0.0
0
LINE
8
HNP-PERFORATION
10
185.000
20
745.000
30
0.0
11
140.000
21
745.000
31
0.0
0
LINE
8
HNP-PERFORATION
10
140.000
20
745.000
30
0.0
11
140.000
21
700.000
31
0.0
0
LINE
8
HNP-PERFORATION
10
220.000
20
700.000
30
0.0
11
265.000
21
700.000
31
0.0
0
LINE
8
HNP-PERFORATION
10
265.000
20
700.000
30
0.0
11
265.000
21
745.000
31
0.0
0
LINE
8
HNP-PERFORATION
10
265.000
20
745.000
30
0.0
11
220.000
21
745.000
31
0.0
0
LINE
8
HNP-PERFORATION
10
220.000
20
745.000
30
0.0
11
220.000
21
700.000
31
0.0
0
LINE
8
HNP-PERFORATION
10
300.000
20
700.000
30
0.0
11
345.000
21
700.000
31
0.0
0
LINE
8
HNP-PERFORATION
10
345.000
20
700.000
30
0.0
11
345.000
21
745.000
31
0.0
0
LINE
8
HNP-PERFORATION
10
345.000
20
745.000
30
0.0
11
300.000
21
745.000
31
0.0
0
LINE
8
HNP-PERFORATION
10
300.000
20
745.000
30
0.0
11
300.000
21
700.000
31
0.0
0
LINE
8
HNP-PERFORATION
10
380.000
20
700.000
30
0.0
11
425.000
21
700.000
31
0.0
0
LINE
8
HNP-PERFORATION
10
425.000
20
700.000
30
0.0
11
425.000
21
745.000
31
0.0
0
LINE
8
HNP-PERFORATION
10
425.000
20
745.000
30
0.0
11
380.000
21
745.000
31
0.0
0
LINE
8
HNP-PERFORATION
10
380.000
20
745.000
30
0.0
11
380.000
21
700.000
31
0.0
0
LINE
8
HNP-PERFORATION
10
460.000
20
700.000
30
0.0
11
505.000
21
700.000
31
0.0
0
LINE
8
HNP-PERFORATION
10
505.000
20
700.000
30
0.0
11
505.000
21
745.000
31
0.0
0
LINE
8
HNP-PERFORATION
10
505.000
20
745.000
30
0.0
11
460.000
21
745.000
31
0.0
0
LINE
8
HNP-PERFORATION
10
460.000
20
745.000
30
0.0
11
460.000
21
700.000
31
0.0
0
LINE
8
HNP-PERFORATION
10
540.000
20
700.000
30
0.0
11
585.000
21
700.000
31
0.0
0
LINE
8
HNP-PERFORATION
10
585.000
20
700.000
30
0.0
11
585.000
21
745.000
31
0.0
0
LINE
8
HNP-PERFORATION
10
585.000
20
745.000
30
0.0
11
540.000
21
745.000
31
0.0
0
LINE
8
HNP-PERFORATION
10
540.000
20
745.000
30
0.0
11
540.000
21
700.000
31
0.0
0
LINE
8
HNP-PERFORATION
10
620.000
20
700.000
30
0.0
11
665.000
21
700.000
31
0.0
0
LINE
8
HNP-PERFORATION
10
665.000
20
700.000
30
0.0
11
665.000
21
745.000
31
0.0
0
LINE
8
HNP-PERFORATION
10
665.000
20
745.000
30
0.0
11
620.000
21
745.000
31
0.0
0
LINE
8
HNP-PERFORATION
10
620.000
20
745.000
30
0.0
11
620.000
21
700.000
31
0.0
0
LINE
8
HNP-PERFORATION
10
700.000
20
700.000
30
0.0
11
745.000
21
700.000
31
0.0
0
LINE
8
HNP-PERFORATION
10
745.000
20
700.000
30
0.0
11
745.000
21
745.000
31
0.0
0
LINE
8
HNP-PERFORATION
10
745.000
20
745.000
30
0.0
11
700.000
21
745.000
31
0.0
0
LINE
8
HNP-PERFORATION
10
700.000
20
745.000
30
0.0
11
700.000
21
700.000
31
0.0
0
LINE
8
HNP-PERFORATION
10
780.000
20
700.000
30
0.0
11
825.000
21
700.000
31
0.0
0
LINE
8
HNP-PERFORATION
10
825.000
20
700.000
30
0.0
11
825.000
21
745.000
31
0.0
0
LINE
8
HNP-PERFORATION
10
825.000
20
745.000
30
0.0
11
780.000
21
745.000
31
0.0
0
LINE
8
HNP-PERFORATION
10
780.000
20
745.000
30
0.0
11
780.000
21
700.000
31
0.0
0
LINE
8
HNP-PERFORATION
10
860.000
20
700.000
30
0.0
11
905.000
21
700.000
31
0.0
0
LINE
8
HNP-PERFORATION
10
905.000
20
700.000
30
0.0
11
905.000
21
745.000
31
0.0
0
LINE
8
HNP-PERFORATION
10
905.000
20
745.000
30
0.0
11
860.000
21
745.000
31
0.0
0
LINE
8
HNP-PERFORATION
10
860.000
20
745.000
30
0.0
11
860.000
21
700.000
31
0.0
0
LINE
8
HNP-PERFORATION
10
940.000
20
700.000
30
0.0
11
985.000
21
700.000
31
0.0
0
LINE
8
HNP-PERFORATION
10
985.000
20
700.000
30
0.0
11
985.000
21
745.000
31
0.0
0
LINE
8
HNP-PERFORATION
10
985.000
20
745.000
30
0.0
11
940.000
21
745.000
31
0.0
0
LINE
8
HNP-PERFORATION
10
940.000
20
745.000
30
0.0
11
940.000
21
700.000
31
0.0
0
LINE
8
HNP-PERFORATION
10
1020.000
20
700.000
30
0.0
11
1065.000
21
700.000
31
0.0
0
LINE
8
HNP-PERFORATION
10
1065.000
20
700.000
30
0.0
11
1065.000
21
745.000
31
0.0
0
LINE
8
HNP-PERFORATION
10
1065.000
20
745.000
30
0.0
11
1020.000
21
745.000
31
0.0
0
LINE
8
HNP-PERFORATION
10
1020.000
20
745.000
30
0.0
11
1020.000
21
700.000
31
0.0
0
LINE
8
HNP-PERFORATION
10
60.000
20
780.000
30
0.0
11
105.000
21
780.000
31
0.0
0
LINE
8
HNP-PERFORATION
10
105.000
20
780.000
30
0.0
11
105.000
21
825.000
31
0.0
0
LINE
8
HNP-PERFORATION
10
105.000
20
825.000
30
0.0
11
60.000
21
825.000
31
0.0
0
LINE
8
HNP-PERFORATION
10
60.000
20
825.000
30
0.0
11
60.000
21
780.000
31
0.0
0
LINE
8
HNP-PERFORATION
10
140.000
20
780.000
30
0.0
11
185.000
21
780.000
31
0.0
0
LINE
8
HNP-PERFORATION
10
185.000
20
780.000
30
0.0
11
185.000
21
825.000
31
0.0
0
LINE
8
HNP-PERFORATION
10
185.000
20
825.000
30
0.0
11
140.000
21
825.000
31
0.0
0
LINE
8
HNP-PERFORATION
10
140.000
20
825.000
30
0.0
11
140.000
21
780.000
31
0.0
0
LINE
8
HNP-PERFORATION
10
220.000
20
780.000
30
0.0
11
265.000
21
780.000
31
0.0
0
LINE
8
HNP-PERFORATION
10
265.000
20
780.000
30
0.0
11
265.000
21
825.000
31
0.0
0
LINE
8
HNP-PERFORATION
10
265.000
20
825.000
30
0.0
11
220.000
21
825.000
31
0.0
0
LINE
8
HNP-PERFORATION
10
220.000
20
825.000
30
0.0
11
220.000
21
780.000
31
0.0
0
LINE
8
HNP-PERFORATION
10
300.000
20
780.000
30
0.0
11
345.000
21
780.000
31
0.0
0
LINE
8
HNP-PERFORATION
10
345.000
20
780.000
30
0.0
11
345.000
21
825.000
31
0.0
0
LINE
8
HNP-PERFORATION
10
345.000
20
825.000
30
0.0
11
300.000
21
825.000
31
0.0
0
LINE
8
HNP-PERFORATION
10
300.000
20
825.000
30
0.0
11
300.000
21
780.000
31
0.0
0
LINE
8
HNP-PERFORATION
10
380.000
20
780.000
30
0.0
11
425.000
21
780.000
31
0.0
0
LINE
8
HNP-PERFORATION
10
425.000
20
780.000
30
0.0
11
425.000
21
825.000
31
0.0
0
LINE
8
HNP-PERFORATION
10
425.000
20
825.000
30
0.0
11
380.000
21
825.000
31
0.0
0
LINE
8
HNP-PERFORATION
10
380.000
20
825.000
30
0.0
11
380.000
21
780.000
31
0.0
0
LINE
8
HNP-PERFORATION
10
460.000
20
780.000
30
0.0
11
505.000
21
780.000
31
0.0
0
LINE
8
HNP-PERFORATION
10
505.000
20
780.000
30
0.0
11
505.000
21
825.000
31
0.0
0
LINE
8
HNP-PERFORATION
10
505.000
20
825.000
30
0.0
11
460.000
21
825.000
31
0.0
0
LINE
8
HNP-PERFORATION
10
460.000
20
825.000
30
0.0
11
460.000
21
780.000
31
0.0
0
LINE
8
HNP-PERFORATION
10
540.000
20
780.000
30
0.0
11
585.000
21
780.000
31
0.0
0
LINE
8
HNP-PERFORATION
10
585.000
20
780.000
30
0.0
11
585.000
21
825.000
31
0.0
0
LINE
8
HNP-PERFORATION
10
585.000
20
825.000
30
0.0
11
540.000
21
825.000
31
0.0
0
LINE
8
HNP-PERFORATION
10
540.000
20
825.000
30
0.0
11
540.000
21
780.000
31
0.0
0
LINE
8
HNP-PERFORATION
10
620.000
20
780.000
30
0.0
11
665.000
21
780.000
31
0.0
0
LINE
8
HNP-PERFORATION
10
665.000
20
780.000
30
0.0
11
665.000
21
825.000
31
0.0
0
LINE
8
HNP-PERFORATION
10
665.000
20
825.000
30
0.0
11
620.000
21
825.000
31
0.0
0
LINE
8
HNP-PERFORATION
10
620.000
20
825.000
30
0.0
11
620.000
21
780.000
31
0.0
0
LINE
8
HNP-PERFORATION
10
700.000
20
780.000
30
0.0
11
745.000
21
780.000
31
0.0
0
LINE
8
HNP-PERFORATION
10
745.000
20
780.000
30
0.0
11
745.000
21
825.000
31
0.0
0
LINE
8
HNP-PERFORATION
10
745.000
20
825.000
30
0.0
11
700.000
21
825.000
31
0.0
0
LINE
8
HNP-PERFORATION
10
700.000
20
825.000
30
0.0
11
700.000
21
780.000
31
0.0
0
LINE
8
HNP-PERFORATION
10
780.000
20
780.000
30
0.0
11
825.000
21
780.000
31
0.0
0
LINE
8
HNP-PERFORATION
10
825.000
20
780.000
30
0.0
11
825.000
21
825.000
31
0.0
0
LINE
8
HNP-PERFORATION
10
825.000
20
825.000
30
0.0
11
780.000
21
825.000
31
0.0
0
LINE
8
HNP-PERFORATION
10
780.000
20
825.000
30
0.0
11
780.000
21
780.000
31
0.0
0
LINE
8
HNP-PERFORATION
10
860.000
20
780.000
30
0.0
11
905.000
21
780.000
31
0.0
0
LINE
8
HNP-PERFORATION
10
905.000
20
780.000
30
0.0
11
905.000
21
825.000
31
0.0
0
LINE
8
HNP-PERFORATION
10
905.000
20
825.000
30
0.0
11
860.000
21
825.000
31
0.0
0
LINE
8
HNP-PERFORATION
10
860.000
20
825.000
30
0.0
11
860.000
21
780.000
31
0.0
0
LINE
8
HNP-PERFORATION
10
940.000
20
780.000
30
0.0
11
985.000
21
780.000
31
0.0
0
LINE
8
HNP-PERFORATION
10
985.000
20
780.000
30
0.0
11
985.000
21
825.000
31
0.0
0
LINE
8
HNP-PERFORATION
10
985.000
20
825.000
30
0.0
11
940.000
21
825.000
31
0.0
0
LINE
8
HNP-PERFORATION
10
940.000
20
825.000
30
0.0
11
940.000
21
780.000
31
0.0
0
LINE
8
HNP-PERFORATION
10
1020.000
20
780.000
30
0.0
11
1065.000
21
780.000
31
0.0
0
LINE
8
HNP-PERFORATION
10
1065.000
20
780.000
30
0.0
11
1065.000
21
825.000
31
0.0
0
LINE
8
HNP-PERFORATION
10
1065.000
20
825.000
30
0.0
11
1020.000
21
825.000
31
0.0
0
LINE
8
HNP-PERFORATION
10
1020.000
20
825.000
30
0.0
11
1020.000
21
780.000
31
0.0
0
LINE
8
HNP-PERFORATION
10
60.000
20
860.000
30
0.0
11
105.000
21
860.000
31
0.0
0
LINE
8
HNP-PERFORATION
10
105.000
20
860.000
30
0.0
11
105.000
21
905.000
31
0.0
0
LINE
8
HNP-PERFORATION
10
105.000
20
905.000
30
0.0
11
60.000
21
905.000
31
0.0
0
LINE
8
HNP-PERFORATION
10
60.000
20
905.000
30
0.0
11
60.000
21
860.000
31
0.0
0
LINE
8
HNP-PERFORATION
10
140.000
20
860.000
30
0.0
11
185.000
21
860.000
31
0.0
0
LINE
8
HNP-PERFORATION
10
185.000
20
860.000
30
0.0
11
185.000
21
905.000
31
0.0
0
LINE
8
HNP-PERFORATION
10
185.000
20
905.000
30
0.0
11
140.000
21
905.000
31
0.0
0
LINE
8
HNP-PERFORATION
10
140.000
20
905.000
30
0.0
11
140.000
21
860.000
31
0.0
0
LINE
8
HNP-PERFORATION
10
220.000
20
860.000
30
0.0
11
265.000
21
860.000
31
0.0
0
LINE
8
HNP-PERFORATION
10
265.000
20
860.000
30
0.0
11
265.000
21
905.000
31
0.0
0
LINE
8
HNP-PERFORATION
10
265.000
20
905.000
30
0.0
11
220.000
21
905.000
31
0.0
0
LINE
8
HNP-PERFORATION
10
220.000
20
905.000
30
0.0
11
220.000
21
860.000
31
0.0
0
LINE
8
HNP-PERFORATION
10
300.000
20
860.000
30
0.0
11
345.000
21
860.000
31
0.0
0
LINE
8
HNP-PERFORATION
10
345.000
20
860.000
30
0.0
11
345.000
21
905.000
31
0.0
0
LINE
8
HNP-PERFORATION
10
345.000
20
905.000
30
0.0
11
300.000
21
905.000
31
0.0
0
LINE
8
HNP-PERFORATION
10
300.000
20
905.000
30
0.0
11
300.000
21
860.000
31
0.0
0
LINE
8
HNP-PERFORATION
10
380.000
20
860.000
30
0.0
11
425.000
21
860.000
31
0.0
0
LINE
8
HNP-PERFORATION
10
425.000
20
860.000
30
0.0
11
425.000
21
905.000
31
0.0
0
LINE
8
HNP-PERFORATION
10
425.000
20
905.000
30
0.0
11
380.000
21
905.000
31
0.0
0
LINE
8
HNP-PERFORATION
10
380.000
20
905.000
30
0.0
11
380.000
21
860.000
31
0.0
0
LINE
8
HNP-PERFORATION
10
460.000
20
860.000
30
0.0
11
505.000
21
860.000
31
0.0
0
LINE
8
HNP-PERFORATION
10
505.000
20
860.000
30
0.0
11
505.000
21
905.000
31
0.0
0
LINE
8
HNP-PERFORATION
10
505.000
20
905.000
30
0.0
11
460.000
21
905.000
31
0.0
0
LINE
8
HNP-PERFORATION
10
460.000
20
905.000
30
0.0
11
460.000
21
860.000
31
0.0
0
LINE
8
HNP-PERFORATION
10
540.000
20
860.000
30
0.0
11
585.000
21
860.000
31
0.0
0
LINE
8
HNP-PERFORATION
10
585.000
20
860.000
30
0.0
11
585.000
21
905.000
31
0.0
0
LINE
8
HNP-PERFORATION
10
585.000
20
905.000
30
0.0
11
540.000
21
905.000
31
0.0
0
LINE
8
HNP-PERFORATION
10
540.000
20
905.000
30
0.0
11
540.000
21
860.000
31
0.0
0
LINE
8
HNP-PERFORATION
10
620.000
20
860.000
30
0.0
11
665.000
21
860.000
31
0.0
0
LINE
8
HNP-PERFORATION
10
665.000
20
860.000
30
0.0
11
665.000
21
905.000
31
0.0
0
LINE
8
HNP-PERFORATION
10
665.000
20
905.000
30
0.0
11
620.000
21
905.000
31
0.0
0
LINE
8
HNP-PERFORATION
10
620.000
20
905.000
30
0.0
11
620.000
21
860.000
31
0.0
0
LINE
8
HNP-PERFORATION
10
700.000
20
860.000
30
0.0
11
745.000
21
860.000
31
0.0
0
LINE
8
HNP-PERFORATION
10
745.000
20
860.000
30
0.0
11
745.000
21
905.000
31
0.0
0
LINE
8
HNP-PERFORATION
10
745.000
20
905.000
30
0.0
11
700.000
21
905.000
31
0.0
0
LINE
8
HNP-PERFORATION
10
700.000
20
905.000
30
0.0
11
700.000
21
860.000
31
0.0
0
LINE
8
HNP-PERFORATION
10
780.000
20
860.000
30
0.0
11
825.000
21
860.000
31
0.0
0
LINE
8
HNP-PERFORATION
10
825.000
20
860.000
30
0.0
11
825.000
21
905.000
31
0.0
0
LINE
8
HNP-PERFORATION
10
825.000
20
905.000
30
0.0
11
780.000
21
905.000
31
0.0
0
LINE
8
HNP-PERFORATION
10
780.000
20
905.000
30
0.0
11
780.000
21
860.000
31
0.0
0
LINE
8
HNP-PERFORATION
10
860.000
20
860.000
30
0.0
11
905.000
21
860.000
31
0.0
0
LINE
8
HNP-PERFORATION
10
905.000
20
860.000
30
0.0
11
905.000
21
905.000
31
0.0
0
LINE
8
HNP-PERFORATION
10
905.000
20
905.000
30
0.0
11
860.000
21
905.000
31
0.0
0
LINE
8
HNP-PERFORATION
10
860.000
20
905.000
30
0.0
11
860.000
21
860.000
31
0.0
0
LINE
8
HNP-PERFORATION
10
940.000
20
860.000
30
0.0
11
985.000
21
860.000
31
0.0
0
LINE
8
HNP-PERFORATION
10
985.000
20
860.000
30
0.0
11
985.000
21
905.000
31
0.0
0
LINE
8
HNP-PERFORATION
10
985.000
20
905.000
30
0.0
11
940.000
21
905.000
31
0.0
0
LINE
8
HNP-PERFORATION
10
940.000
20
905.000
30
0.0
11
940.000
21
860.000
31
0.0
0
LINE
8
HNP-PERFORATION
10
1020.000
20
860.000
30
0.0
11
1065.000
21
860.000
31
0.0
0
LINE
8
HNP-PERFORATION
10
1065.000
20
860.000
30
0.0
11
1065.000
21
905.000
31
0.0
0
LINE
8
HNP-PERFORATION
10
1065.000
20
905.000
30
0.0
11
1020.000
21
905.000
31
0.0
0
LINE
8
HNP-PERFORATION
10
1020.000
20
905.000
30
0.0
11
1020.000
21
860.000
31
0.0
0
LINE
8
HNP-PERFORATION
10
60.000
20
940.000
30
0.0
11
105.000
21
940.000
31
0.0
0
LINE
8
HNP-PERFORATION
10
105.000
20
940.000
30
0.0
11
105.000
21
985.000
31
0.0
0
LINE
8
HNP-PERFORATION
10
105.000
20
985.000
30
0.0
11
60.000
21
985.000
31
0.0
0
LINE
8
HNP-PERFORATION
10
60.000
20
985.000
30
0.0
11
60.000
21
940.000
31
0.0
0
LINE
8
HNP-PERFORATION
10
140.000
20
940.000
30
0.0
11
185.000
21
940.000
31
0.0
0
LINE
8
HNP-PERFORATION
10
185.000
20
940.000
30
0.0
11
185.000
21
985.000
31
0.0
0
LINE
8
HNP-PERFORATION
10
185.000
20
985.000
30
0.0
11
140.000
21
985.000
31
0.0
0
LINE
8
HNP-PERFORATION
10
140.000
20
985.000
30
0.0
11
140.000
21
940.000
31
0.0
0
LINE
8
HNP-PERFORATION
10
220.000
20
940.000
30
0.0
11
265.000
21
940.000
31
0.0
0
LINE
8
HNP-PERFORATION
10
265.000
20
940.000
30
0.0
11
265.000
21
985.000
31
0.0
0
LINE
8
HNP-PERFORATION
10
265.000
20
985.000
30
0.0
11
220.000
21
985.000
31
0.0
0
LINE
8
HNP-PERFORATION
10
220.000
20
985.000
30
0.0
11
220.000
21
940.000
31
0.0
0
LINE
8
HNP-PERFORATION
10
300.000
20
940.000
30
0.0
11
345.000
21
940.000
31
0.0
0
LINE
8
HNP-PERFORATION
10
345.000
20
940.000
30
0.0
11
345.000
21
985.000
31
0.0
0
LINE
8
HNP-PERFORATION
10
345.000
20
985.000
30
0.0
11
300.000
21
985.000
31
0.0
0
LINE
8
HNP-PERFORATION
10
300.000
20
985.000
30
0.0
11
300.000
21
940.000
31
0.0
0
LINE
8
HNP-PERFORATION
10
380.000
20
940.000
30
0.0
11
425.000
21
940.000
31
0.0
0
LINE
8
HNP-PERFORATION
10
425.000
20
940.000
30
0.0
11
425.000
21
985.000
31
0.0
0
LINE
8
HNP-PERFORATION
10
425.000
20
985.000
30
0.0
11
380.000
21
985.000
31
0.0
0
LINE
8
HNP-PERFORATION
10
380.000
20
985.000
30
0.0
11
380.000
21
940.000
31
0.0
0
LINE
8
HNP-PERFORATION
10
460.000
20
940.000
30
0.0
11
505.000
21
940.000
31
0.0
0
LINE
8
HNP-PERFORATION
10
505.000
20
940.000
30
0.0
11
505.000
21
985.000
31
0.0
0
LINE
8
HNP-PERFORATION
10
505.000
20
985.000
30
0.0
11
460.000
21
985.000
31
0.0
0
LINE
8
HNP-PERFORATION
10
460.000
20
985.000
30
0.0
11
460.000
21
940.000
31
0.0
0
LINE
8
HNP-PERFORATION
10
540.000
20
940.000
30
0.0
11
585.000
21
940.000
31
0.0
0
LINE
8
HNP-PERFORATION
10
585.000
20
940.000
30
0.0
11
585.000
21
985.000
31
0.0
0
LINE
8
HNP-PERFORATION
10
585.000
20
985.000
30
0.0
11
540.000
21
985.000
31
0.0
0
LINE
8
HNP-PERFORATION
10
540.000
20
985.000
30
0.0
11
540.000
21
940.000
31
0.0
0
LINE
8
HNP-PERFORATION
10
620.000
20
940.000
30
0.0
11
665.000
21
940.000
31
0.0
0
LINE
8
HNP-PERFORATION
10
665.000
20
940.000
30
0.0
11
665.000
21
985.000
31
0.0
0
LINE
8
HNP-PERFORATION
10
665.000
20
985.000
30
0.0
11
620.000
21
985.000
31
0.0
0
LINE
8
HNP-PERFORATION
10
620.000
20
985.000
30
0.0
11
620.000
21
940.000
31
0.0
0
LINE
8
HNP-PERFORATION
10
700.000
20
940.000
30
0.0
11
745.000
21
940.000
31
0.0
0
LINE
8
HNP-PERFORATION
10
745.000
20
940.000
30
0.0
11
745.000
21
985.000
31
0.0
0
LINE
8
HNP-PERFORATION
10
745.000
20
985.000
30
0.0
11
700.000
21
985.000
31
0.0
0
LINE
8
HNP-PERFORATION
10
700.000
20
985.000
30
0.0
11
700.000
21
940.000
31
0.0
0
LINE
8
HNP-PERFORATION
10
780.000
20
940.000
30
0.0
11
825.000
21
940.000
31
0.0
0
LINE
8
HNP-PERFORATION
10
825.000
20
940.000
30
0.0
11
825.000
21
985.000
31
0.0
0
LINE
8
HNP-PERFORATION
10
825.000
20
985.000
30
0.0
11
780.000
21
985.000
31
0.0
0
LINE
8
HNP-PERFORATION
10
780.000
20
985.000
30
0.0
11
780.000
21
940.000
31
0.0
0
LINE
8
HNP-PERFORATION
10
860.000
20
940.000
30
0.0
11
905.000
21
940.000
31
0.0
0
LINE
8
HNP-PERFORATION
10
905.000
20
940.000
30
0.0
11
905.000
21
985.000
31
0.0
0
LINE
8
HNP-PERFORATION
10
905.000
20
985.000
30
0.0
11
860.000
21
985.000
31
0.0
0
LINE
8
HNP-PERFORATION
10
860.000
20
985.000
30
0.0
11
860.000
21
940.000
31
0.0
0
LINE
8
HNP-PERFORATION
10
940.000
20
940.000
30
0.0
11
985.000
21
940.000
31
0.0
0
LINE
8
HNP-PERFORATION
10
985.000
20
940.000
30
0.0
11
985.000
21
985.000
31
0.0
0
LINE
8
HNP-PERFORATION
10
985.000
20
985.000
30
0.0
11
940.000
21
985.000
31
0.0
0
LINE
8
HNP-PERFORATION
10
940.000
20
985.000
30
0.0
11
940.000
21
940.000
31
0.0
0
LINE
8
HNP-PERFORATION
10
1020.000
20
940.000
30
0.0
11
1065.000
21
940.000
31
0.0
0
LINE
8
HNP-PERFORATION
10
1065.000
20
940.000
30
0.0
11
1065.000
21
985.000
31
0.0
0
LINE
8
HNP-PERFORATION
10
1065.000
20
985.000
30
0.0
11
1020.000
21
985.000
31
0.0
0
LINE
8
HNP-PERFORATION
10
1020.000
20
985.000
30
0.0
11
1020.000
21
940.000
31
0.0
0
LINE
8
HNP-PERFORATION
10
60.000
20
1020.000
30
0.0
11
105.000
21
1020.000
31
0.0
0
LINE
8
HNP-PERFORATION
10
105.000
20
1020.000
30
0.0
11
105.000
21
1065.000
31
0.0
0
LINE
8
HNP-PERFORATION
10
105.000
20
1065.000
30
0.0
11
60.000
21
1065.000
31
0.0
0
LINE
8
HNP-PERFORATION
10
60.000
20
1065.000
30
0.0
11
60.000
21
1020.000
31
0.0
0
LINE
8
HNP-PERFORATION
10
140.000
20
1020.000
30
0.0
11
185.000
21
1020.000
31
0.0
0
LINE
8
HNP-PERFORATION
10
185.000
20
1020.000
30
0.0
11
185.000
21
1065.000
31
0.0
0
LINE
8
HNP-PERFORATION
10
185.000
20
1065.000
30
0.0
11
140.000
21
1065.000
31
0.0
0
LINE
8
HNP-PERFORATION
10
140.000
20
1065.000
30
0.0
11
140.000
21
1020.000
31
0.0
0
LINE
8
HNP-PERFORATION
10
220.000
20
1020.000
30
0.0
11
265.000
21
1020.000
31
0.0
0
LINE
8
HNP-PERFORATION
10
265.000
20
1020.000
30
0.0
11
265.000
21
1065.000
31
0.0
0
LINE
8
HNP-PERFORATION
10
265.000
20
1065.000
30
0.0
11
220.000
21
1065.000
31
0.0
0
LINE
8
HNP-PERFORATION
10
220.000
20
1065.000
30
0.0
11
220.000
21
1020.000
31
0.0
0
LINE
8
HNP-PERFORATION
10
300.000
20
1020.000
30
0.0
11
345.000
21
1020.000
31
0.0
0
LINE
8
HNP-PERFORATION
10
345.000
20
1020.000
30
0.0
11
345.000
21
1065.000
31
0.0
0
LINE
8
HNP-PERFORATION
10
345.000
20
1065.000
30
0.0
11
300.000
21
1065.000
31
0.0
0
LINE
8
HNP-PERFORATION
10
300.000
20
1065.000
30
0.0
11
300.000
21
1020.000
31
0.0
0
LINE
8
HNP-PERFORATION
10
380.000
20
1020.000
30
0.0
11
425.000
21
1020.000
31
0.0
0
LINE
8
HNP-PERFORATION
10
425.000
20
1020.000
30
0.0
11
425.000
21
1065.000
31
0.0
0
LINE
8
HNP-PERFORATION
10
425.000
20
1065.000
30
0.0
11
380.000
21
1065.000
31
0.0
0
LINE
8
HNP-PERFORATION
10
380.000
20
1065.000
30
0.0
11
380.000
21
1020.000
31
0.0
0
LINE
8
HNP-PERFORATION
10
460.000
20
1020.000
30
0.0
11
505.000
21
1020.000
31
0.0
0
LINE
8
HNP-PERFORATION
10
505.000
20
1020.000
30
0.0
11
505.000
21
1065.000
31
0.0
0
LINE
8
HNP-PERFORATION
10
505.000
20
1065.000
30
0.0
11
460.000
21
1065.000
31
0.0
0
LINE
8
HNP-PERFORATION
10
460.000
20
1065.000
30
0.0
11
460.000
21
1020.000
31
0.0
0
LINE
8
HNP-PERFORATION
10
540.000
20
1020.000
30
0.0
11
585.000
21
1020.000
31
0.0
0
LINE
8
HNP-PERFORATION
10
585.000
20
1020.000
30
0.0
11
585.000
21
1065.000
31
0.0
0
LINE
8
HNP-PERFORATION
10
585.000
20
1065.000
30
0.0
11
540.000
21
1065.000
31
0.0
0
LINE
8
HNP-PERFORATION
10
540.000
20
1065.000
30
0.0
11
540.000
21
1020.000
31
0.0
0
LINE
8
HNP-PERFORATION
10
620.000
20
1020.000
30
0.0
11
665.000
21
1020.000
31
0.0
0
LINE
8
HNP-PERFORATION
10
665.000
20
1020.000
30
0.0
11
665.000
21
1065.000
31
0.0
0
LINE
8
HNP-PERFORATION
10
665.000
20
1065.000
30
0.0
11
620.000
21
1065.000
31
0.0
0
LINE
8
HNP-PERFORATION
10
620.000
20
1065.000
30
0.0
11
620.000
21
1020.000
31
0.0
0
LINE
8
HNP-PERFORATION
10
700.000
20
1020.000
30
0.0
11
745.000
21
1020.000
31
0.0
0
LINE
8
HNP-PERFORATION
10
745.000
20
1020.000
30
0.0
11
745.000
21
1065.000
31
0.0
0
LINE
8
HNP-PERFORATION
10
745.000
20
1065.000
30
0.0
11
700.000
21
1065.000
31
0.0
0
LINE
8
HNP-PERFORATION
10
700.000
20
1065.000
30
0.0
11
700.000
21
1020.000
31
0.0
0
LINE
8
HNP-PERFORATION
10
780.000
20
1020.000
30
0.0
11
825.000
21
1020.000
31
0.0
0
LINE
8
HNP-PERFORATION
10
825.000
20
1020.000
30
0.0
11
825.000
21
1065.000
31
0.0
0
LINE
8
HNP-PERFORATION
10
825.000
20
1065.000
30
0.0
11
780.000
21
1065.000
31
0.0
0
LINE
8
HNP-PERFORATION
10
780.000
20
1065.000
30
0.0
11
780.000
21
1020.000
31
0.0
0
LINE
8
HNP-PERFORATION
10
860.000
20
1020.000
30
0.0
11
905.000
21
1020.000
31
0.0
0
LINE
8
HNP-PERFORATION
10
905.000
20
1020.000
30
0.0
11
905.000
21
1065.000
31
0.0
0
LINE
8
HNP-PERFORATION
10
905.000
20
1065.000
30
0.0
11
860.000
21
1065.000
31
0.0
0
LINE
8
HNP-PERFORATION
10
860.000
20
1065.000
30
0.0
11
860.000
21
1020.000
31
0.0
0
LINE
8
HNP-PERFORATION
10
940.000
20
1020.000
30
0.0
11
985.000
21
1020.000
31
0.0
0
LINE
8
HNP-PERFORATION
10
985.000
20
1020.000
30
0.0
11
985.000
21
1065.000
31
0.0
0
LINE
8
HNP-PERFORATION
10
985.000
20
1065.000
30
0.0
11
940.000
21
1065.000
31
0.0
0
LINE
8
HNP-PERFORATION
10
940.000
20
1065.000
30
0.0
11
940.000
21
1020.000
31
0.0
0
LINE
8
HNP-PERFORATION
10
1020.000
20
1020.000
30
0.0
11
1065.000
21
1020.000
31
0.0
0
LINE
8
HNP-PERFORATION
10
1065.000
20
1020.000
30
0.0
11
1065.000
21
1065.000
31
0.0
0
LINE
8
HNP-PERFORATION
10
1065.000
20
1065.000
30
0.0
11
1020.000
21
1065.000
31
0.0
0
LINE
8
HNP-PERFORATION
10
1020.000
20
1065.000
30
0.0
11
1020.000
21
1020.000
31
0.0
0
LINE
8
HNP-PERFORATION
10
60.000
20
1100.000
30
0.0
11
105.000
21
1100.000
31
0.0
0
LINE
8
HNP-PERFORATION
10
105.000
20
1100.000
30
0.0
11
105.000
21
1145.000
31
0.0
0
LINE
8
HNP-PERFORATION
10
105.000
20
1145.000
30
0.0
11
60.000
21
1145.000
31
0.0
0
LINE
8
HNP-PERFORATION
10
60.000
20
1145.000
30
0.0
11
60.000
21
1100.000
31
0.0
0
LINE
8
HNP-PERFORATION
10
140.000
20
1100.000
30
0.0
11
185.000
21
1100.000
31
0.0
0
LINE
8
HNP-PERFORATION
10
185.000
20
1100.000
30
0.0
11
185.000
21
1145.000
31
0.0
0
LINE
8
HNP-PERFORATION
10
185.000
20
1145.000
30
0.0
11
140.000
21
1145.000
31
0.0
0
LINE
8
HNP-PERFORATION
10
140.000
20
1145.000
30
0.0
11
140.000
21
1100.000
31
0.0
0
LINE
8
HNP-PERFORATION
10
220.000
20
1100.000
30
0.0
11
265.000
21
1100.000
31
0.0
0
LINE
8
HNP-PERFORATION
10
265.000
20
1100.000
30
0.0
11
265.000
21
1145.000
31
0.0
0
LINE
8
HNP-PERFORATION
10
265.000
20
1145.000
30
0.0
11
220.000
21
1145.000
31
0.0
0
LINE
8
HNP-PERFORATION
10
220.000
20
1145.000
30
0.0
11
220.000
21
1100.000
31
0.0
0
LINE
8
HNP-PERFORATION
10
300.000
20
1100.000
30
0.0
11
345.000
21
1100.000
31
0.0
0
LINE
8
HNP-PERFORATION
10
345.000
20
1100.000
30
0.0
11
345.000
21
1145.000
31
0.0
0
LINE
8
HNP-PERFORATION
10
345.000
20
1145.000
30
0.0
11
300.000
21
1145.000
31
0.0
0
LINE
8
HNP-PERFORATION
10
300.000
20
1145.000
30
0.0
11
300.000
21
1100.000
31
0.0
0
LINE
8
HNP-PERFORATION
10
380.000
20
1100.000
30
0.0
11
425.000
21
1100.000
31
0.0
0
LINE
8
HNP-PERFORATION
10
425.000
20
1100.000
30
0.0
11
425.000
21
1145.000
31
0.0
0
LINE
8
HNP-PERFORATION
10
425.000
20
1145.000
30
0.0
11
380.000
21
1145.000
31
0.0
0
LINE
8
HNP-PERFORATION
10
380.000
20
1145.000
30
0.0
11
380.000
21
1100.000
31
0.0
0
LINE
8
HNP-PERFORATION
10
460.000
20
1100.000
30
0.0
11
505.000
21
1100.000
31
0.0
0
LINE
8
HNP-PERFORATION
10
505.000
20
1100.000
30
0.0
11
505.000
21
1145.000
31
0.0
0
LINE
8
HNP-PERFORATION
10
505.000
20
1145.000
30
0.0
11
460.000
21
1145.000
31
0.0
0
LINE
8
HNP-PERFORATION
10
460.000
20
1145.000
30
0.0
11
460.000
21
1100.000
31
0.0
0
LINE
8
HNP-PERFORATION
10
540.000
20
1100.000
30
0.0
11
585.000
21
1100.000
31
0.0
0
LINE
8
HNP-PERFORATION
10
585.000
20
1100.000
30
0.0
11
585.000
21
1145.000
31
0.0
0
LINE
8
HNP-PERFORATION
10
585.000
20
1145.000
30
0.0
11
540.000
21
1145.000
31
0.0
0
LINE
8
HNP-PERFORATION
10
540.000
20
1145.000
30
0.0
11
540.000
21
1100.000
31
0.0
0
LINE
8
HNP-PERFORATION
10
620.000
20
1100.000
30
0.0
11
665.000
21
1100.000
31
0.0
0
LINE
8
HNP-PERFORATION
10
665.000
20
1100.000
30
0.0
11
665.000
21
1145.000
31
0.0
0
LINE
8
HNP-PERFORATION
10
665.000
20
1145.000
30
0.0
11
620.000
21
1145.000
31
0.0
0
LINE
8
HNP-PERFORATION
10
620.000
20
1145.000
30
0.0
11
620.000
21
1100.000
31
0.0
0
LINE
8
HNP-PERFORATION
10
700.000
20
1100.000
30
0.0
11
745.000
21
1100.000
31
0.0
0
LINE
8
HNP-PERFORATION
10
745.000
20
1100.000
30
0.0
11
745.000
21
1145.000
31
0.0
0
LINE
8
HNP-PERFORATION
10
745.000
20
1145.000
30
0.0
11
700.000
21
1145.000
31
0.0
0
LINE
8
HNP-PERFORATION
10
700.000
20
1145.000
30
0.0
11
700.000
21
1100.000
31
0.0
0
LINE
8
HNP-PERFORATION
10
780.000
20
1100.000
30
0.0
11
825.000
21
1100.000
31
0.0
0
LINE
8
HNP-PERFORATION
10
825.000
20
1100.000
30
0.0
11
825.000
21
1145.000
31
0.0
0
LINE
8
HNP-PERFORATION
10
825.000
20
1145.000
30
0.0
11
780.000
21
1145.000
31
0.0
0
LINE
8
HNP-PERFORATION
10
780.000
20
1145.000
30
0.0
11
780.000
21
1100.000
31
0.0
0
LINE
8
HNP-PERFORATION
10
860.000
20
1100.000
30
0.0
11
905.000
21
1100.000
31
0.0
0
LINE
8
HNP-PERFORATION
10
905.000
20
1100.000
30
0.0
11
905.000
21
1145.000
31
0.0
0
LINE
8
HNP-PERFORATION
10
905.000
20
1145.000
30
0.0
11
860.000
21
1145.000
31
0.0
0
LINE
8
HNP-PERFORATION
10
860.000
20
1145.000
30
0.0
11
860.000
21
1100.000
31
0.0
0
LINE
8
HNP-PERFORATION
10
940.000
20
1100.000
30
0.0
11
985.000
21
1100.000
31
0.0
0
LINE
8
HNP-PERFORATION
10
985.000
20
1100.000
30
0.0
11
985.000
21
1145.000
31
0.0
0
LINE
8
HNP-PERFORATION
10
985.000
20
1145.000
30
0.0
11
940.000
21
1145.000
31
0.0
0
LINE
8
HNP-PERFORATION
10
940.000
20
1145.000
30
0.0
11
940.000
21
1100.000
31
0.0
0
LINE
8
HNP-PERFORATION
10
1020.000
20
1100.000
30
0.0
11
1065.000
21
1100.000
31
0.0
0
LINE
8
HNP-PERFORATION
10
1065.000
20
1100.000
30
0.0
11
1065.000
21
1145.000
31
0.0
0
LINE
8
HNP-PERFORATION
10
1065.000
20
1145.000
30
0.0
11
1020.000
21
1145.000
31
0.0
0
LINE
8
HNP-PERFORATION
10
1020.000
20
1145.000
30
0.0
11
1020.000
21
1100.000
31
0.0
0
LINE
8
HNP-PERFORATION
10
60.000
20
1180.000
30
0.0
11
105.000
21
1180.000
31
0.0
0
LINE
8
HNP-PERFORATION
10
105.000
20
1180.000
30
0.0
11
105.000
21
1225.000
31
0.0
0
LINE
8
HNP-PERFORATION
10
105.000
20
1225.000
30
0.0
11
60.000
21
1225.000
31
0.0
0
LINE
8
HNP-PERFORATION
10
60.000
20
1225.000
30
0.0
11
60.000
21
1180.000
31
0.0
0
LINE
8
HNP-PERFORATION
10
140.000
20
1180.000
30
0.0
11
185.000
21
1180.000
31
0.0
0
LINE
8
HNP-PERFORATION
10
185.000
20
1180.000
30
0.0
11
185.000
21
1225.000
31
0.0
0
LINE
8
HNP-PERFORATION
10
185.000
20
1225.000
30
0.0
11
140.000
21
1225.000
31
0.0
0
LINE
8
HNP-PERFORATION
10
140.000
20
1225.000
30
0.0
11
140.000
21
1180.000
31
0.0
0
LINE
8
HNP-PERFORATION
10
220.000
20
1180.000
30
0.0
11
265.000
21
1180.000
31
0.0
0
LINE
8
HNP-PERFORATION
10
265.000
20
1180.000
30
0.0
11
265.000
21
1225.000
31
0.0
0
LINE
8
HNP-PERFORATION
10
265.000
20
1225.000
30
0.0
11
220.000
21
1225.000
31
0.0
0
LINE
8
HNP-PERFORATION
10
220.000
20
1225.000
30
0.0
11
220.000
21
1180.000
31
0.0
0
LINE
8
HNP-PERFORATION
10
300.000
20
1180.000
30
0.0
11
345.000
21
1180.000
31
0.0
0
LINE
8
HNP-PERFORATION
10
345.000
20
1180.000
30
0.0
11
345.000
21
1225.000
31
0.0
0
LINE
8
HNP-PERFORATION
10
345.000
20
1225.000
30
0.0
11
300.000
21
1225.000
31
0.0
0
LINE
8
HNP-PERFORATION
10
300.000
20
1225.000
30
0.0
11
300.000
21
1180.000
31
0.0
0
LINE
8
HNP-PERFORATION
10
380.000
20
1180.000
30
0.0
11
425.000
21
1180.000
31
0.0
0
LINE
8
HNP-PERFORATION
10
425.000
20
1180.000
30
0.0
11
425.000
21
1225.000
31
0.0
0
LINE
8
HNP-PERFORATION
10
425.000
20
1225.000
30
0.0
11
380.000
21
1225.000
31
0.0
0
LINE
8
HNP-PERFORATION
10
380.000
20
1225.000
30
0.0
11
380.000
21
1180.000
31
0.0
0
LINE
8
HNP-PERFORATION
10
460.000
20
1180.000
30
0.0
11
505.000
21
1180.000
31
0.0
0
LINE
8
HNP-PERFORATION
10
505.000
20
1180.000
30
0.0
11
505.000
21
1225.000
31
0.0
0
LINE
8
HNP-PERFORATION
10
505.000
20
1225.000
30
0.0
11
460.000
21
1225.000
31
0.0
0
LINE
8
HNP-PERFORATION
10
460.000
20
1225.000
30
0.0
11
460.000
21
1180.000
31
0.0
0
LINE
8
HNP-PERFORATION
10
540.000
20
1180.000
30
0.0
11
585.000
21
1180.000
31
0.0
0
LINE
8
HNP-PERFORATION
10
585.000
20
1180.000
30
0.0
11
585.000
21
1225.000
31
0.0
0
LINE
8
HNP-PERFORATION
10
585.000
20
1225.000
30
0.0
11
540.000
21
1225.000
31
0.0
0
LINE
8
HNP-PERFORATION
10
540.000
20
1225.000
30
0.0
11
540.000
21
1180.000
31
0.0
0
LINE
8
HNP-PERFORATION
10
620.000
20
1180.000
30
0.0
11
665.000
21
1180.000
31
0.0
0
LINE
8
HNP-PERFORATION
10
665.000
20
1180.000
30
0.0
11
665.000
21
1225.000
31
0.0
0
LINE
8
HNP-PERFORATION
10
665.000
20
1225.000
30
0.0
11
620.000
21
1225.000
31
0.0
0
LINE
8
HNP-PERFORATION
10
620.000
20
1225.000
30
0.0
11
620.000
21
1180.000
31
0.0
0
LINE
8
HNP-PERFORATION
10
700.000
20
1180.000
30
0.0
11
745.000
21
1180.000
31
0.0
0
LINE
8
HNP-PERFORATION
10
745.000
20
1180.000
30
0.0
11
745.000
21
1225.000
31
0.0
0
LINE
8
HNP-PERFORATION
10
745.000
20
1225.000
30
0.0
11
700.000
21
1225.000
31
0.0
0
LINE
8
HNP-PERFORATION
10
700.000
20
1225.000
30
0.0
11
700.000
21
1180.000
31
0.0
0
LINE
8
HNP-PERFORATION
10
780.000
20
1180.000
30
0.0
11
825.000
21
1180.000
31
0.0
0
LINE
8
HNP-PERFORATION
10
825.000
20
1180.000
30
0.0
11
825.000
21
1225.000
31
0.0
0
LINE
8
HNP-PERFORATION
10
825.000
20
1225.000
30
0.0
11
780.000
21
1225.000
31
0.0
0
LINE
8
HNP-PERFORATION
10
780.000
20
1225.000
30
0.0
11
780.000
21
1180.000
31
0.0
0
LINE
8
HNP-PERFORATION
10
860.000
20
1180.000
30
0.0
11
905.000
21
1180.000
31
0.0
0
LINE
8
HNP-PERFORATION
10
905.000
20
1180.000
30
0.0
11
905.000
21
1225.000
31
0.0
0
LINE
8
HNP-PERFORATION
10
905.000
20
1225.000
30
0.0
11
860.000
21
1225.000
31
0.0
0
LINE
8
HNP-PERFORATION
10
860.000
20
1225.000
30
0.0
11
860.000
21
1180.000
31
0.0
0
LINE
8
HNP-PERFORATION
10
940.000
20
1180.000
30
0.0
11
985.000
21
1180.000
31
0.0
0
LINE
8
HNP-PERFORATION
10
985.000
20
1180.000
30
0.0
11
985.000
21
1225.000
31
0.0
0
LINE
8
HNP-PERFORATION
10
985.000
20
1225.000
30
0.0
11
940.000
21
1225.000
31
0.0
0
LINE
8
HNP-PERFORATION
10
940.000
20
1225.000
30
0.0
11
940.000
21
1180.000
31
0.0
0
LINE
8
HNP-PERFORATION
10
1020.000
20
1180.000
30
0.0
11
1065.000
21
1180.000
31
0.0
0
LINE
8
HNP-PERFORATION
10
1065.000
20
1180.000
30
0.0
11
1065.000
21
1225.000
31
0.0
0
LINE
8
HNP-PERFORATION
10
1065.000
20
1225.000
30
0.0
11
1020.000
21
1225.000
31
0.0
0
LINE
8
HNP-PERFORATION
10
1020.000
20
1225.000
30
0.0
11
1020.000
21
1180.000
31
0.0
0
LINE
8
HNP-PERFORATION
10
60.000
20
1260.000
30
0.0
11
105.000
21
1260.000
31
0.0
0
LINE
8
HNP-PERFORATION
10
105.000
20
1260.000
30
0.0
11
105.000
21
1305.000
31
0.0
0
LINE
8
HNP-PERFORATION
10
105.000
20
1305.000
30
0.0
11
60.000
21
1305.000
31
0.0
0
LINE
8
HNP-PERFORATION
10
60.000
20
1305.000
30
0.0
11
60.000
21
1260.000
31
0.0
0
LINE
8
HNP-PERFORATION
10
140.000
20
1260.000
30
0.0
11
185.000
21
1260.000
31
0.0
0
LINE
8
HNP-PERFORATION
10
185.000
20
1260.000
30
0.0
11
185.000
21
1305.000
31
0.0
0
LINE
8
HNP-PERFORATION
10
185.000
20
1305.000
30
0.0
11
140.000
21
1305.000
31
0.0
0
LINE
8
HNP-PERFORATION
10
140.000
20
1305.000
30
0.0
11
140.000
21
1260.000
31
0.0
0
LINE
8
HNP-PERFORATION
10
220.000
20
1260.000
30
0.0
11
265.000
21
1260.000
31
0.0
0
LINE
8
HNP-PERFORATION
10
265.000
20
1260.000
30
0.0
11
265.000
21
1305.000
31
0.0
0
LINE
8
HNP-PERFORATION
10
265.000
20
1305.000
30
0.0
11
220.000
21
1305.000
31
0.0
0
LINE
8
HNP-PERFORATION
10
220.000
20
1305.000
30
0.0
11
220.000
21
1260.000
31
0.0
0
LINE
8
HNP-PERFORATION
10
300.000
20
1260.000
30
0.0
11
345.000
21
1260.000
31
0.0
0
LINE
8
HNP-PERFORATION
10
345.000
20
1260.000
30
0.0
11
345.000
21
1305.000
31
0.0
0
LINE
8
HNP-PERFORATION
10
345.000
20
1305.000
30
0.0
11
300.000
21
1305.000
31
0.0
0
LINE
8
HNP-PERFORATION
10
300.000
20
1305.000
30
0.0
11
300.000
21
1260.000
31
0.0
0
LINE
8
HNP-PERFORATION
10
380.000
20
1260.000
30
0.0
11
425.000
21
1260.000
31
0.0
0
LINE
8
HNP-PERFORATION
10
425.000
20
1260.000
30
0.0
11
425.000
21
1305.000
31
0.0
0
LINE
8
HNP-PERFORATION
10
425.000
20
1305.000
30
0.0
11
380.000
21
1305.000
31
0.0
0
LINE
8
HNP-PERFORATION
10
380.000
20
1305.000
30
0.0
11
380.000
21
1260.000
31
0.0
0
LINE
8
HNP-PERFORATION
10
460.000
20
1260.000
30
0.0
11
505.000
21
1260.000
31
0.0
0
LINE
8
HNP-PERFORATION
10
505.000
20
1260.000
30
0.0
11
505.000
21
1305.000
31
0.0
0
LINE
8
HNP-PERFORATION
10
505.000
20
1305.000
30
0.0
11
460.000
21
1305.000
31
0.0
0
LINE
8
HNP-PERFORATION
10
460.000
20
1305.000
30
0.0
11
460.000
21
1260.000
31
0.0
0
LINE
8
HNP-PERFORATION
10
540.000
20
1260.000
30
0.0
11
585.000
21
1260.000
31
0.0
0
LINE
8
HNP-PERFORATION
10
585.000
20
1260.000
30
0.0
11
585.000
21
1305.000
31
0.0
0
LINE
8
HNP-PERFORATION
10
585.000
20
1305.000
30
0.0
11
540.000
21
1305.000
31
0.0
0
LINE
8
HNP-PERFORATION
10
540.000
20
1305.000
30
0.0
11
540.000
21
1260.000
31
0.0
0
LINE
8
HNP-PERFORATION
10
620.000
20
1260.000
30
0.0
11
665.000
21
1260.000
31
0.0
0
LINE
8
HNP-PERFORATION
10
665.000
20
1260.000
30
0.0
11
665.000
21
1305.000
31
0.0
0
LINE
8
HNP-PERFORATION
10
665.000
20
1305.000
30
0.0
11
620.000
21
1305.000
31
0.0
0
LINE
8
HNP-PERFORATION
10
620.000
20
1305.000
30
0.0
11
620.000
21
1260.000
31
0.0
0
LINE
8
HNP-PERFORATION
10
700.000
20
1260.000
30
0.0
11
745.000
21
1260.000
31
0.0
0
LINE
8
HNP-PERFORATION
10
745.000
20
1260.000
30
0.0
11
745.000
21
1305.000
31
0.0
0
LINE
8
HNP-PERFORATION
10
745.000
20
1305.000
30
0.0
11
700.000
21
1305.000
31
0.0
0
LINE
8
HNP-PERFORATION
10
700.000
20
1305.000
30
0.0
11
700.000
21
1260.000
31
0.0
0
LINE
8
HNP-PERFORATION
10
780.000
20
1260.000
30
0.0
11
825.000
21
1260.000
31
0.0
0
LINE
8
HNP-PERFORATION
10
825.000
20
1260.000
30
0.0
11
825.000
21
1305.000
31
0.0
0
LINE
8
HNP-PERFORATION
10
825.000
20
1305.000
30
0.0
11
780.000
21
1305.000
31
0.0
0
LINE
8
HNP-PERFORATION
10
780.000
20
1305.000
30
0.0
11
780.000
21
1260.000
31
0.0
0
LINE
8
HNP-PERFORATION
10
860.000
20
1260.000
30
0.0
11
905.000
21
1260.000
31
0.0
0
LINE
8
HNP-PERFORATION
10
905.000
20
1260.000
30
0.0
11
905.000
21
1305.000
31
0.0
0
LINE
8
HNP-PERFORATION
10
905.000
20
1305.000
30
0.0
11
860.000
21
1305.000
31
0.0
0
LINE
8
HNP-PERFORATION
10
860.000
20
1305.000
30
0.0
11
860.000
21
1260.000
31
0.0
0
LINE
8
HNP-PERFORATION
10
940.000
20
1260.000
30
0.0
11
985.000
21
1260.000
31
0.0
0
LINE
8
HNP-PERFORATION
10
985.000
20
1260.000
30
0.0
11
985.000
21
1305.000
31
0.0
0
LINE
8
HNP-PERFORATION
10
985.000
20
1305.000
30
0.0
11
940.000
21
1305.000
31
0.0
0
LINE
8
HNP-PERFORATION
10
940.000
20
1305.000
30
0.0
11
940.000
21
1260.000
31
0.0
0
LINE
8
HNP-PERFORATION
10
1020.000
20
1260.000
30
0.0
11
1065.000
21
1260.000
31
0.0
0
LINE
8
HNP-PERFORATION
10
1065.000
20
1260.000
30
0.0
11
1065.000
21
1305.000
31
0.0
0
LINE
8
HNP-PERFORATION
10
1065.000
20
1305.000
30
0.0
11
1020.000
21
1305.000
31
0.0
0
LINE
8
HNP-PERFORATION
10
1020.000
20
1305.000
30
0.0
11
1020.000
21
1260.000
31
0.0
0
LINE
8
HNP-PERFORATION
10
60.000
20
1340.000
30
0.0
11
105.000
21
1340.000
31
0.0
0
LINE
8
HNP-PERFORATION
10
105.000
20
1340.000
30
0.0
11
105.000
21
1385.000
31
0.0
0
LINE
8
HNP-PERFORATION
10
105.000
20
1385.000
30
0.0
11
60.000
21
1385.000
31
0.0
0
LINE
8
HNP-PERFORATION
10
60.000
20
1385.000
30
0.0
11
60.000
21
1340.000
31
0.0
0
LINE
8
HNP-PERFORATION
10
140.000
20
1340.000
30
0.0
11
185.000
21
1340.000
31
0.0
0
LINE
8
HNP-PERFORATION
10
185.000
20
1340.000
30
0.0
11
185.000
21
1385.000
31
0.0
0
LINE
8
HNP-PERFORATION
10
185.000
20
1385.000
30
0.0
11
140.000
21
1385.000
31
0.0
0
LINE
8
HNP-PERFORATION
10
140.000
20
1385.000
30
0.0
11
140.000
21
1340.000
31
0.0
0
LINE
8
HNP-PERFORATION
10
220.000
20
1340.000
30
0.0
11
265.000
21
1340.000
31
0.0
0
LINE
8
HNP-PERFORATION
10
265.000
20
1340.000
30
0.0
11
265.000
21
1385.000
31
0.0
0
LINE
8
HNP-PERFORATION
10
265.000
20
1385.000
30
0.0
11
220.000
21
1385.000
31
0.0
0
LINE
8
HNP-PERFORATION
10
220.000
20
1385.000
30
0.0
11
220.000
21
1340.000
31
0.0
0
LINE
8
HNP-PERFORATION
10
300.000
20
1340.000
30
0.0
11
345.000
21
1340.000
31
0.0
0
LINE
8
HNP-PERFORATION
10
345.000
20
1340.000
30
0.0
11
345.000
21
1385.000
31
0.0
0
LINE
8
HNP-PERFORATION
10
345.000
20
1385.000
30
0.0
11
300.000
21
1385.000
31
0.0
0
LINE
8
HNP-PERFORATION
10
300.000
20
1385.000
30
0.0
11
300.000
21
1340.000
31
0.0
0
LINE
8
HNP-PERFORATION
10
380.000
20
1340.000
30
0.0
11
425.000
21
1340.000
31
0.0
0
LINE
8
HNP-PERFORATION
10
425.000
20
1340.000
30
0.0
11
425.000
21
1385.000
31
0.0
0
LINE
8
HNP-PERFORATION
10
425.000
20
1385.000
30
0.0
11
380.000
21
1385.000
31
0.0
0
LINE
8
HNP-PERFORATION
10
380.000
20
1385.000
30
0.0
11
380.000
21
1340.000
31
0.0
0
LINE
8
HNP-PERFORATION
10
460.000
20
1340.000
30
0.0
11
505.000
21
1340.000
31
0.0
0
LINE
8
HNP-PERFORATION
10
505.000
20
1340.000
30
0.0
11
505.000
21
1385.000
31
0.0
0
LINE
8
HNP-PERFORATION
10
505.000
20
1385.000
30
0.0
11
460.000
21
1385.000
31
0.0
0
LINE
8
HNP-PERFORATION
10
460.000
20
1385.000
30
0.0
11
460.000
21
1340.000
31
0.0
0
LINE
8
HNP-PERFORATION
10
540.000
20
1340.000
30
0.0
11
585.000
21
1340.000
31
0.0
0
LINE
8
HNP-PERFORATION
10
585.000
20
1340.000
30
0.0
11
585.000
21
1385.000
31
0.0
0
LINE
8
HNP-PERFORATION
10
585.000
20
1385.000
30
0.0
11
540.000
21
1385.000
31
0.0
0
LINE
8
HNP-PERFORATION
10
540.000
20
1385.000
30
0.0
11
540.000
21
1340.000
31
0.0
0
LINE
8
HNP-PERFORATION
10
620.000
20
1340.000
30
0.0
11
665.000
21
1340.000
31
0.0
0
LINE
8
HNP-PERFORATION
10
665.000
20
1340.000
30
0.0
11
665.000
21
1385.000
31
0.0
0
LINE
8
HNP-PERFORATION
10
665.000
20
1385.000
30
0.0
11
620.000
21
1385.000
31
0.0
0
LINE
8
HNP-PERFORATION
10
620.000
20
1385.000
30
0.0
11
620.000
21
1340.000
31
0.0
0
LINE
8
HNP-PERFORATION
10
700.000
20
1340.000
30
0.0
11
745.000
21
1340.000
31
0.0
0
LINE
8
HNP-PERFORATION
10
745.000
20
1340.000
30
0.0
11
745.000
21
1385.000
31
0.0
0
LINE
8
HNP-PERFORATION
10
745.000
20
1385.000
30
0.0
11
700.000
21
1385.000
31
0.0
0
LINE
8
HNP-PERFORATION
10
700.000
20
1385.000
30
0.0
11
700.000
21
1340.000
31
0.0
0
LINE
8
HNP-PERFORATION
10
780.000
20
1340.000
30
0.0
11
825.000
21
1340.000
31
0.0
0
LINE
8
HNP-PERFORATION
10
825.000
20
1340.000
30
0.0
11
825.000
21
1385.000
31
0.0
0
LINE
8
HNP-PERFORATION
10
825.000
20
1385.000
30
0.0
11
780.000
21
1385.000
31
0.0
0
LINE
8
HNP-PERFORATION
10
780.000
20
1385.000
30
0.0
11
780.000
21
1340.000
31
0.0
0
LINE
8
HNP-PERFORATION
10
860.000
20
1340.000
30
0.0
11
905.000
21
1340.000
31
0.0
0
LINE
8
HNP-PERFORATION
10
905.000
20
1340.000
30
0.0
11
905.000
21
1385.000
31
0.0
0
LINE
8
HNP-PERFORATION
10
905.000
20
1385.000
30
0.0
11
860.000
21
1385.000
31
0.0
0
LINE
8
HNP-PERFORATION
10
860.000
20
1385.000
30
0.0
11
860.000
21
1340.000
31
0.0
0
LINE
8
HNP-PERFORATION
10
940.000
20
1340.000
30
0.0
11
985.000
21
1340.000
31
0.0
0
LINE
8
HNP-PERFORATION
10
985.000
20
1340.000
30
0.0
11
985.000
21
1385.000
31
0.0
0
LINE
8
HNP-PERFORATION
10
985.000
20
1385.000
30
0.0
11
940.000
21
1385.000
31
0.0
0
LINE
8
HNP-PERFORATION
10
940.000
20
1385.000
30
0.0
11
940.000
21
1340.000
31
0.0
0
LINE
8
HNP-PERFORATION
10
1020.000
20
1340.000
30
0.0
11
1065.000
21
1340.000
31
0.0
0
LINE
8
HNP-PERFORATION
10
1065.000
20
1340.000
30
0.0
11
1065.000
21
1385.000
31
0.0
0
LINE
8
HNP-PERFORATION
10
1065.000
20
1385.000
30
0.0
11
1020.000
21
1385.000
31
0.0
0
LINE
8
HNP-PERFORATION
10
1020.000
20
1385.000
30
0.0
11
1020.000
21
1340.000
31
0.0
0
LINE
8
HNP-PERFORATION
10
60.000
20
1420.000
30
0.0
11
105.000
21
1420.000
31
0.0
0
LINE
8
HNP-PERFORATION
10
105.000
20
1420.000
30
0.0
11
105.000
21
1465.000
31
0.0
0
LINE
8
HNP-PERFORATION
10
105.000
20
1465.000
30
0.0
11
60.000
21
1465.000
31
0.0
0
LINE
8
HNP-PERFORATION
10
60.000
20
1465.000
30
0.0
11
60.000
21
1420.000
31
0.0
0
LINE
8
HNP-PERFORATION
10
140.000
20
1420.000
30
0.0
11
185.000
21
1420.000
31
0.0
0
LINE
8
HNP-PERFORATION
10
185.000
20
1420.000
30
0.0
11
185.000
21
1465.000
31
0.0
0
LINE
8
HNP-PERFORATION
10
185.000
20
1465.000
30
0.0
11
140.000
21
1465.000
31
0.0
0
LINE
8
HNP-PERFORATION
10
140.000
20
1465.000
30
0.0
11
140.000
21
1420.000
31
0.0
0
LINE
8
HNP-PERFORATION
10
220.000
20
1420.000
30
0.0
11
265.000
21
1420.000
31
0.0
0
LINE
8
HNP-PERFORATION
10
265.000
20
1420.000
30
0.0
11
265.000
21
1465.000
31
0.0
0
LINE
8
HNP-PERFORATION
10
265.000
20
1465.000
30
0.0
11
220.000
21
1465.000
31
0.0
0
LINE
8
HNP-PERFORATION
10
220.000
20
1465.000
30
0.0
11
220.000
21
1420.000
31
0.0
0
LINE
8
HNP-PERFORATION
10
300.000
20
1420.000
30
0.0
11
345.000
21
1420.000
31
0.0
0
LINE
8
HNP-PERFORATION
10
345.000
20
1420.000
30
0.0
11
345.000
21
1465.000
31
0.0
0
LINE
8
HNP-PERFORATION
10
345.000
20
1465.000
30
0.0
11
300.000
21
1465.000
31
0.0
0
LINE
8
HNP-PERFORATION
10
300.000
20
1465.000
30
0.0
11
300.000
21
1420.000
31
0.0
0
LINE
8
HNP-PERFORATION
10
380.000
20
1420.000
30
0.0
11
425.000
21
1420.000
31
0.0
0
LINE
8
HNP-PERFORATION
10
425.000
20
1420.000
30
0.0
11
425.000
21
1465.000
31
0.0
0
LINE
8
HNP-PERFORATION
10
425.000
20
1465.000
30
0.0
11
380.000
21
1465.000
31
0.0
0
LINE
8
HNP-PERFORATION
10
380.000
20
1465.000
30
0.0
11
380.000
21
1420.000
31
0.0
0
LINE
8
HNP-PERFORATION
10
460.000
20
1420.000
30
0.0
11
505.000
21
1420.000
31
0.0
0
LINE
8
HNP-PERFORATION
10
505.000
20
1420.000
30
0.0
11
505.000
21
1465.000
31
0.0
0
LINE
8
HNP-PERFORATION
10
505.000
20
1465.000
30
0.0
11
460.000
21
1465.000
31
0.0
0
LINE
8
HNP-PERFORATION
10
460.000
20
1465.000
30
0.0
11
460.000
21
1420.000
31
0.0
0
LINE
8
HNP-PERFORATION
10
540.000
20
1420.000
30
0.0
11
585.000
21
1420.000
31
0.0
0
LINE
8
HNP-PERFORATION
10
585.000
20
1420.000
30
0.0
11
585.000
21
1465.000
31
0.0
0
LINE
8
HNP-PERFORATION
10
585.000
20
1465.000
30
0.0
11
540.000
21
1465.000
31
0.0
0
LINE
8
HNP-PERFORATION
10
540.000
20
1465.000
30
0.0
11
540.000
21
1420.000
31
0.0
0
LINE
8
HNP-PERFORATION
10
620.000
20
1420.000
30
0.0
11
665.000
21
1420.000
31
0.0
0
LINE
8
HNP-PERFORATION
10
665.000
20
1420.000
30
0.0
11
665.000
21
1465.000
31
0.0
0
LINE
8
HNP-PERFORATION
10
665.000
20
1465.000
30
0.0
11
620.000
21
1465.000
31
0.0
0
LINE
8
HNP-PERFORATION
10
620.000
20
1465.000
30
0.0
11
620.000
21
1420.000
31
0.0
0
LINE
8
HNP-PERFORATION
10
700.000
20
1420.000
30
0.0
11
745.000
21
1420.000
31
0.0
0
LINE
8
HNP-PERFORATION
10
745.000
20
1420.000
30
0.0
11
745.000
21
1465.000
31
0.0
0
LINE
8
HNP-PERFORATION
10
745.000
20
1465.000
30
0.0
11
700.000
21
1465.000
31
0.0
0
LINE
8
HNP-PERFORATION
10
700.000
20
1465.000
30
0.0
11
700.000
21
1420.000
31
0.0
0
LINE
8
HNP-PERFORATION
10
780.000
20
1420.000
30
0.0
11
825.000
21
1420.000
31
0.0
0
LINE
8
HNP-PERFORATION
10
825.000
20
1420.000
30
0.0
11
825.000
21
1465.000
31
0.0
0
LINE
8
HNP-PERFORATION
10
825.000
20
1465.000
30
0.0
11
780.000
21
1465.000
31
0.0
0
LINE
8
HNP-PERFORATION
10
780.000
20
1465.000
30
0.0
11
780.000
21
1420.000
31
0.0
0
LINE
8
HNP-PERFORATION
10
860.000
20
1420.000
30
0.0
11
905.000
21
1420.000
31
0.0
0
LINE
8
HNP-PERFORATION
10
905.000
20
1420.000
30
0.0
11
905.000
21
1465.000
31
0.0
0
LINE
8
HNP-PERFORATION
10
905.000
20
1465.000
30
0.0
11
860.000
21
1465.000
31
0.0
0
LINE
8
HNP-PERFORATION
10
860.000
20
1465.000
30
0.0
11
860.000
21
1420.000
31
0.0
0
LINE
8
HNP-PERFORATION
10
940.000
20
1420.000
30
0.0
11
985.000
21
1420.000
31
0.0
0
LINE
8
HNP-PERFORATION
10
985.000
20
1420.000
30
0.0
11
985.000
21
1465.000
31
0.0
0
LINE
8
HNP-PERFORATION
10
985.000
20
1465.000
30
0.0
11
940.000
21
1465.000
31
0.0
0
LINE
8
HNP-PERFORATION
10
940.000
20
1465.000
30
0.0
11
940.000
21
1420.000
31
0.0
0
LINE
8
HNP-PERFORATION
10
1020.000
20
1420.000
30
0.0
11
1065.000
21
1420.000
31
0.0
0
LINE
8
HNP-PERFORATION
10
1065.000
20
1420.000
30
0.0
11
1065.000
21
1465.000
31
0.0
0
LINE
8
HNP-PERFORATION
10
1065.000
20
1465.000
30
0.0
11
1020.000
21
1465.000
31
0.0
0
LINE
8
HNP-PERFORATION
10
1020.000
20
1465.000
30
0.0
11
1020.000
21
1420.000
31
0.0
0
LINE
8
HNP-PERFORATION
10
60.000
20
1500.000
30
0.0
11
105.000
21
1500.000
31
0.0
0
LINE
8
HNP-PERFORATION
10
105.000
20
1500.000
30
0.0
11
105.000
21
1545.000
31
0.0
0
LINE
8
HNP-PERFORATION
10
105.000
20
1545.000
30
0.0
11
60.000
21
1545.000
31
0.0
0
LINE
8
HNP-PERFORATION
10
60.000
20
1545.000
30
0.0
11
60.000
21
1500.000
31
0.0
0
LINE
8
HNP-PERFORATION
10
140.000
20
1500.000
30
0.0
11
185.000
21
1500.000
31
0.0
0
LINE
8
HNP-PERFORATION
10
185.000
20
1500.000
30
0.0
11
185.000
21
1545.000
31
0.0
0
LINE
8
HNP-PERFORATION
10
185.000
20
1545.000
30
0.0
11
140.000
21
1545.000
31
0.0
0
LINE
8
HNP-PERFORATION
10
140.000
20
1545.000
30
0.0
11
140.000
21
1500.000
31
0.0
0
LINE
8
HNP-PERFORATION
10
220.000
20
1500.000
30
0.0
11
265.000
21
1500.000
31
0.0
0
LINE
8
HNP-PERFORATION
10
265.000
20
1500.000
30
0.0
11
265.000
21
1545.000
31
0.0
0
LINE
8
HNP-PERFORATION
10
265.000
20
1545.000
30
0.0
11
220.000
21
1545.000
31
0.0
0
LINE
8
HNP-PERFORATION
10
220.000
20
1545.000
30
0.0
11
220.000
21
1500.000
31
0.0
0
LINE
8
HNP-PERFORATION
10
300.000
20
1500.000
30
0.0
11
345.000
21
1500.000
31
0.0
0
LINE
8
HNP-PERFORATION
10
345.000
20
1500.000
30
0.0
11
345.000
21
1545.000
31
0.0
0
LINE
8
HNP-PERFORATION
10
345.000
20
1545.000
30
0.0
11
300.000
21
1545.000
31
0.0
0
LINE
8
HNP-PERFORATION
10
300.000
20
1545.000
30
0.0
11
300.000
21
1500.000
31
0.0
0
LINE
8
HNP-PERFORATION
10
380.000
20
1500.000
30
0.0
11
425.000
21
1500.000
31
0.0
0
LINE
8
HNP-PERFORATION
10
425.000
20
1500.000
30
0.0
11
425.000
21
1545.000
31
0.0
0
LINE
8
HNP-PERFORATION
10
425.000
20
1545.000
30
0.0
11
380.000
21
1545.000
31
0.0
0
LINE
8
HNP-PERFORATION
10
380.000
20
1545.000
30
0.0
11
380.000
21
1500.000
31
0.0
0
LINE
8
HNP-PERFORATION
10
460.000
20
1500.000
30
0.0
11
505.000
21
1500.000
31
0.0
0
LINE
8
HNP-PERFORATION
10
505.000
20
1500.000
30
0.0
11
505.000
21
1545.000
31
0.0
0
LINE
8
HNP-PERFORATION
10
505.000
20
1545.000
30
0.0
11
460.000
21
1545.000
31
0.0
0
LINE
8
HNP-PERFORATION
10
460.000
20
1545.000
30
0.0
11
460.000
21
1500.000
31
0.0
0
LINE
8
HNP-PERFORATION
10
540.000
20
1500.000
30
0.0
11
585.000
21
1500.000
31
0.0
0
LINE
8
HNP-PERFORATION
10
585.000
20
1500.000
30
0.0
11
585.000
21
1545.000
31
0.0
0
LINE
8
HNP-PERFORATION
10
585.000
20
1545.000
30
0.0
11
540.000
21
1545.000
31
0.0
0
LINE
8
HNP-PERFORATION
10
540.000
20
1545.000
30
0.0
11
540.000
21
1500.000
31
0.0
0
LINE
8
HNP-PERFORATION
10
620.000
20
1500.000
30
0.0
11
665.000
21
1500.000
31
0.0
0
LINE
8
HNP-PERFORATION
10
665.000
20
1500.000
30
0.0
11
665.000
21
1545.000
31
0.0
0
LINE
8
HNP-PERFORATION
10
665.000
20
1545.000
30
0.0
11
620.000
21
1545.000
31
0.0
0
LINE
8
HNP-PERFORATION
10
620.000
20
1545.000
30
0.0
11
620.000
21
1500.000
31
0.0
0
LINE
8
HNP-PERFORATION
10
700.000
20
1500.000
30
0.0
11
745.000
21
1500.000
31
0.0
0
LINE
8
HNP-PERFORATION
10
745.000
20
1500.000
30
0.0
11
745.000
21
1545.000
31
0.0
0
LINE
8
HNP-PERFORATION
10
745.000
20
1545.000
30
0.0
11
700.000
21
1545.000
31
0.0
0
LINE
8
HNP-PERFORATION
10
700.000
20
1545.000
30
0.0
11
700.000
21
1500.000
31
0.0
0
LINE
8
HNP-PERFORATION
10
780.000
20
1500.000
30
0.0
11
825.000
21
1500.000
31
0.0
0
LINE
8
HNP-PERFORATION
10
825.000
20
1500.000
30
0.0
11
825.000
21
1545.000
31
0.0
0
LINE
8
HNP-PERFORATION
10
825.000
20
1545.000
30
0.0
11
780.000
21
1545.000
31
0.0
0
LINE
8
HNP-PERFORATION
10
780.000
20
1545.000
30
0.0
11
780.000
21
1500.000
31
0.0
0
LINE
8
HNP-PERFORATION
10
860.000
20
1500.000
30
0.0
11
905.000
21
1500.000
31
0.0
0
LINE
8
HNP-PERFORATION
10
905.000
20
1500.000
30
0.0
11
905.000
21
1545.000
31
0.0
0
LINE
8
HNP-PERFORATION
10
905.000
20
1545.000
30
0.0
11
860.000
21
1545.000
31
0.0
0
LINE
8
HNP-PERFORATION
10
860.000
20
1545.000
30
0.0
11
860.000
21
1500.000
31
0.0
0
LINE
8
HNP-PERFORATION
10
940.000
20
1500.000
30
0.0
11
985.000
21
1500.000
31
0.0
0
LINE
8
HNP-PERFORATION
10
985.000
20
1500.000
30
0.0
11
985.000
21
1545.000
31
0.0
0
LINE
8
HNP-PERFORATION
10
985.000
20
1545.000
30
0.0
11
940.000
21
1545.000
31
0.0
0
LINE
8
HNP-PERFORATION
10
940.000
20
1545.000
30
0.0
11
940.000
21
1500.000
31
0.0
0
LINE
8
HNP-PERFORATION
10
1020.000
20
1500.000
30
0.0
11
1065.000
21
1500.000
31
0.0
0
LINE
8
HNP-PERFORATION
10
1065.000
20
1500.000
30
0.0
11
1065.000
21
1545.000
31
0.0
0
LINE
8
HNP-PERFORATION
10
1065.000
20
1545.000
30
0.0
11
1020.000
21
1545.000
31
0.0
0
LINE
8
HNP-PERFORATION
10
1020.000
20
1545.000
30
0.0
11
1020.000
21
1500.000
31
0.0
0
LINE
8
HNP-PERFORATION
10
60.000
20
1580.000
30
0.0
11
105.000
21
1580.000
31
0.0
0
LINE
8
HNP-PERFORATION
10
105.000
20
1580.000
30
0.0
11
105.000
21
1625.000
31
0.0
0
LINE
8
HNP-PERFORATION
10
105.000
20
1625.000
30
0.0
11
60.000
21
1625.000
31
0.0
0
LINE
8
HNP-PERFORATION
10
60.000
20
1625.000
30
0.0
11
60.000
21
1580.000
31
0.0
0
LINE
8
HNP-PERFORATION
10
140.000
20
1580.000
30
0.0
11
185.000
21
1580.000
31
0.0
0
LINE
8
HNP-PERFORATION
10
185.000
20
1580.000
30
0.0
11
185.000
21
1625.000
31
0.0
0
LINE
8
HNP-PERFORATION
10
185.000
20
1625.000
30
0.0
11
140.000
21
1625.000
31
0.0
0
LINE
8
HNP-PERFORATION
10
140.000
20
1625.000
30
0.0
11
140.000
21
1580.000
31
0.0
0
LINE
8
HNP-PERFORATION
10
220.000
20
1580.000
30
0.0
11
265.000
21
1580.000
31
0.0
0
LINE
8
HNP-PERFORATION
10
265.000
20
1580.000
30
0.0
11
265.000
21
1625.000
31
0.0
0
LINE
8
HNP-PERFORATION
10
265.000
20
1625.000
30
0.0
11
220.000
21
1625.000
31
0.0
0
LINE
8
HNP-PERFORATION
10
220.000
20
1625.000
30
0.0
11
220.000
21
1580.000
31
0.0
0
LINE
8
HNP-PERFORATION
10
300.000
20
1580.000
30
0.0
11
345.000
21
1580.000
31
0.0
0
LINE
8
HNP-PERFORATION
10
345.000
20
1580.000
30
0.0
11
345.000
21
1625.000
31
0.0
0
LINE
8
HNP-PERFORATION
10
345.000
20
1625.000
30
0.0
11
300.000
21
1625.000
31
0.0
0
LINE
8
HNP-PERFORATION
10
300.000
20
1625.000
30
0.0
11
300.000
21
1580.000
31
0.0
0
LINE
8
HNP-PERFORATION
10
380.000
20
1580.000
30
0.0
11
425.000
21
1580.000
31
0.0
0
LINE
8
HNP-PERFORATION
10
425.000
20
1580.000
30
0.0
11
425.000
21
1625.000
31
0.0
0
LINE
8
HNP-PERFORATION
10
425.000
20
1625.000
30
0.0
11
380.000
21
1625.000
31
0.0
0
LINE
8
HNP-PERFORATION
10
380.000
20
1625.000
30
0.0
11
380.000
21
1580.000
31
0.0
0
LINE
8
HNP-PERFORATION
10
460.000
20
1580.000
30
0.0
11
505.000
21
1580.000
31
0.0
0
LINE
8
HNP-PERFORATION
10
505.000
20
1580.000
30
0.0
11
505.000
21
1625.000
31
0.0
0
LINE
8
HNP-PERFORATION
10
505.000
20
1625.000
30
0.0
11
460.000
21
1625.000
31
0.0
0
LINE
8
HNP-PERFORATION
10
460.000
20
1625.000
30
0.0
11
460.000
21
1580.000
31
0.0
0
LINE
8
HNP-PERFORATION
10
540.000
20
1580.000
30
0.0
11
585.000
21
1580.000
31
0.0
0
LINE
8
HNP-PERFORATION
10
585.000
20
1580.000
30
0.0
11
585.000
21
1625.000
31
0.0
0
LINE
8
HNP-PERFORATION
10
585.000
20
1625.000
30
0.0
11
540.000
21
1625.000
31
0.0
0
LINE
8
HNP-PERFORATION
10
540.000
20
1625.000
30
0.0
11
540.000
21
1580.000
31
0.0
0
LINE
8
HNP-PERFORATION
10
620.000
20
1580.000
30
0.0
11
665.000
21
1580.000
31
0.0
0
LINE
8
HNP-PERFORATION
10
665.000
20
1580.000
30
0.0
11
665.000
21
1625.000
31
0.0
0
LINE
8
HNP-PERFORATION
10
665.000
20
1625.000
30
0.0
11
620.000
21
1625.000
31
0.0
0
LINE
8
HNP-PERFORATION
10
620.000
20
1625.000
30
0.0
11
620.000
21
1580.000
31
0.0
0
LINE
8
HNP-PERFORATION
10
700.000
20
1580.000
30
0.0
11
745.000
21
1580.000
31
0.0
0
LINE
8
HNP-PERFORATION
10
745.000
20
1580.000
30
0.0
11
745.000
21
1625.000
31
0.0
0
LINE
8
HNP-PERFORATION
10
745.000
20
1625.000
30
0.0
11
700.000
21
1625.000
31
0.0
0
LINE
8
HNP-PERFORATION
10
700.000
20
1625.000
30
0.0
11
700.000
21
1580.000
31
0.0
0
LINE
8
HNP-PERFORATION
10
780.000
20
1580.000
30
0.0
11
825.000
21
1580.000
31
0.0
0
LINE
8
HNP-PERFORATION
10
825.000
20
1580.000
30
0.0
11
825.000
21
1625.000
31
0.0
0
LINE
8
HNP-PERFORATION
10
825.000
20
1625.000
30
0.0
11
780.000
21
1625.000
31
0.0
0
LINE
8
HNP-PERFORATION
10
780.000
20
1625.000
30
0.0
11
780.000
21
1580.000
31
0.0
0
LINE
8
HNP-PERFORATION
10
860.000
20
1580.000
30
0.0
11
905.000
21
1580.000
31
0.0
0
LINE
8
HNP-PERFORATION
10
905.000
20
1580.000
30
0.0
11
905.000
21
1625.000
31
0.0
0
LINE
8
HNP-PERFORATION
10
905.000
20
1625.000
30
0.0
11
860.000
21
1625.000
31
0.0
0
LINE
8
HNP-PERFORATION
10
860.000
20
1625.000
30
0.0
11
860.000
21
1580.000
31
0.0
0
LINE
8
HNP-PERFORATION
10
940.000
20
1580.000
30
0.0
11
985.000
21
1580.000
31
0.0
0
LINE
8
HNP-PERFORATION
10
985.000
20
1580.000
30
0.0
11
985.000
21
1625.000
31
0.0
0
LINE
8
HNP-PERFORATION
10
985.000
20
1625.000
30
0.0
11
940.000
21
1625.000
31
0.0
0
LINE
8
HNP-PERFORATION
10
940.000
20
1625.000
30
0.0
11
940.000
21
1580.000
31
0.0
0
LINE
8
HNP-PERFORATION
10
1020.000
20
1580.000
30
0.0
11
1065.000
21
1580.000
31
0.0
0
LINE
8
HNP-PERFORATION
10
1065.000
20
1580.000
30
0.0
11
1065.000
21
1625.000
31
0.0
0
LINE
8
HNP-PERFORATION
10
1065.000
20
1625.000
30
0.0
11
1020.000
21
1625.000
31
0.0
0
LINE
8
HNP-PERFORATION
10
1020.000
20
1625.000
30
0.0
11
1020.000
21
1580.000
31
0.0
0
LINE
8
HNP-PERFORATION
10
60.000
20
1660.000
30
0.0
11
105.000
21
1660.000
31
0.0
0
LINE
8
HNP-PERFORATION
10
105.000
20
1660.000
30
0.0
11
105.000
21
1705.000
31
0.0
0
LINE
8
HNP-PERFORATION
10
105.000
20
1705.000
30
0.0
11
60.000
21
1705.000
31
0.0
0
LINE
8
HNP-PERFORATION
10
60.000
20
1705.000
30
0.0
11
60.000
21
1660.000
31
0.0
0
LINE
8
HNP-PERFORATION
10
140.000
20
1660.000
30
0.0
11
185.000
21
1660.000
31
0.0
0
LINE
8
HNP-PERFORATION
10
185.000
20
1660.000
30
0.0
11
185.000
21
1705.000
31
0.0
0
LINE
8
HNP-PERFORATION
10
185.000
20
1705.000
30
0.0
11
140.000
21
1705.000
31
0.0
0
LINE
8
HNP-PERFORATION
10
140.000
20
1705.000
30
0.0
11
140.000
21
1660.000
31
0.0
0
LINE
8
HNP-PERFORATION
10
220.000
20
1660.000
30
0.0
11
265.000
21
1660.000
31
0.0
0
LINE
8
HNP-PERFORATION
10
265.000
20
1660.000
30
0.0
11
265.000
21
1705.000
31
0.0
0
LINE
8
HNP-PERFORATION
10
265.000
20
1705.000
30
0.0
11
220.000
21
1705.000
31
0.0
0
LINE
8
HNP-PERFORATION
10
220.000
20
1705.000
30
0.0
11
220.000
21
1660.000
31
0.0
0
LINE
8
HNP-PERFORATION
10
300.000
20
1660.000
30
0.0
11
345.000
21
1660.000
31
0.0
0
LINE
8
HNP-PERFORATION
10
345.000
20
1660.000
30
0.0
11
345.000
21
1705.000
31
0.0
0
LINE
8
HNP-PERFORATION
10
345.000
20
1705.000
30
0.0
11
300.000
21
1705.000
31
0.0
0
LINE
8
HNP-PERFORATION
10
300.000
20
1705.000
30
0.0
11
300.000
21
1660.000
31
0.0
0
LINE
8
HNP-PERFORATION
10
380.000
20
1660.000
30
0.0
11
425.000
21
1660.000
31
0.0
0
LINE
8
HNP-PERFORATION
10
425.000
20
1660.000
30
0.0
11
425.000
21
1705.000
31
0.0
0
LINE
8
HNP-PERFORATION
10
425.000
20
1705.000
30
0.0
11
380.000
21
1705.000
31
0.0
0
LINE
8
HNP-PERFORATION
10
380.000
20
1705.000
30
0.0
11
380.000
21
1660.000
31
0.0
0
LINE
8
HNP-PERFORATION
10
460.000
20
1660.000
30
0.0
11
505.000
21
1660.000
31
0.0
0
LINE
8
HNP-PERFORATION
10
505.000
20
1660.000
30
0.0
11
505.000
21
1705.000
31
0.0
0
LINE
8
HNP-PERFORATION
10
505.000
20
1705.000
30
0.0
11
460.000
21
1705.000
31
0.0
0
LINE
8
HNP-PERFORATION
10
460.000
20
1705.000
30
0.0
11
460.000
21
1660.000
31
0.0
0
LINE
8
HNP-PERFORATION
10
540.000
20
1660.000
30
0.0
11
585.000
21
1660.000
31
0.0
0
LINE
8
HNP-PERFORATION
10
585.000
20
1660.000
30
0.0
11
585.000
21
1705.000
31
0.0
0
LINE
8
HNP-PERFORATION
10
585.000
20
1705.000
30
0.0
11
540.000
21
1705.000
31
0.0
0
LINE
8
HNP-PERFORATION
10
540.000
20
1705.000
30
0.0
11
540.000
21
1660.000
31
0.0
0
LINE
8
HNP-PERFORATION
10
620.000
20
1660.000
30
0.0
11
665.000
21
1660.000
31
0.0
0
LINE
8
HNP-PERFORATION
10
665.000
20
1660.000
30
0.0
11
665.000
21
1705.000
31
0.0
0
LINE
8
HNP-PERFORATION
10
665.000
20
1705.000
30
0.0
11
620.000
21
1705.000
31
0.0
0
LINE
8
HNP-PERFORATION
10
620.000
20
1705.000
30
0.0
11
620.000
21
1660.000
31
0.0
0
LINE
8
HNP-PERFORATION
10
700.000
20
1660.000
30
0.0
11
745.000
21
1660.000
31
0.0
0
LINE
8
HNP-PERFORATION
10
745.000
20
1660.000
30
0.0
11
745.000
21
1705.000
31
0.0
0
LINE
8
HNP-PERFORATION
10
745.000
20
1705.000
30
0.0
11
700.000
21
1705.000
31
0.0
0
LINE
8
HNP-PERFORATION
10
700.000
20
1705.000
30
0.0
11
700.000
21
1660.000
31
0.0
0
LINE
8
HNP-PERFORATION
10
780.000
20
1660.000
30
0.0
11
825.000
21
1660.000
31
0.0
0
LINE
8
HNP-PERFORATION
10
825.000
20
1660.000
30
0.0
11
825.000
21
1705.000
31
0.0
0
LINE
8
HNP-PERFORATION
10
825.000
20
1705.000
30
0.0
11
780.000
21
1705.000
31
0.0
0
LINE
8
HNP-PERFORATION
10
780.000
20
1705.000
30
0.0
11
780.000
21
1660.000
31
0.0
0
LINE
8
HNP-PERFORATION
10
860.000
20
1660.000
30
0.0
11
905.000
21
1660.000
31
0.0
0
LINE
8
HNP-PERFORATION
10
905.000
20
1660.000
30
0.0
11
905.000
21
1705.000
31
0.0
0
LINE
8
HNP-PERFORATION
10
905.000
20
1705.000
30
0.0
11
860.000
21
1705.000
31
0.0
0
LINE
8
HNP-PERFORATION
10
860.000
20
1705.000
30
0.0
11
860.000
21
1660.000
31
0.0
0
LINE
8
HNP-PERFORATION
10
940.000
20
1660.000
30
0.0
11
985.000
21
1660.000
31
0.0
0
LINE
8
HNP-PERFORATION
10
985.000
20
1660.000
30
0.0
11
985.000
21
1705.000
31
0.0
0
LINE
8
HNP-PERFORATION
10
985.000
20
1705.000
30
0.0
11
940.000
21
1705.000
31
0.0
0
LINE
8
HNP-PERFORATION
10
940.000
20
1705.000
30
0.0
11
940.000
21
1660.000
31
0.0
0
LINE
8
HNP-PERFORATION
10
1020.000
20
1660.000
30
0.0
11
1065.000
21
1660.000
31
0.0
0
LINE
8
HNP-PERFORATION
10
1065.000
20
1660.000
30
0.0
11
1065.000
21
1705.000
31
0.0
0
LINE
8
HNP-PERFORATION
10
1065.000
20
1705.000
30
0.0
11
1020.000
21
1705.000
31
0.0
0
LINE
8
HNP-PERFORATION
10
1020.000
20
1705.000
30
0.0
11
1020.000
21
1660.000
31
0.0
0
LINE
8
HNP-PERFORATION
10
60.000
20
1740.000
30
0.0
11
105.000
21
1740.000
31
0.0
0
LINE
8
HNP-PERFORATION
10
105.000
20
1740.000
30
0.0
11
105.000
21
1785.000
31
0.0
0
LINE
8
HNP-PERFORATION
10
105.000
20
1785.000
30
0.0
11
60.000
21
1785.000
31
0.0
0
LINE
8
HNP-PERFORATION
10
60.000
20
1785.000
30
0.0
11
60.000
21
1740.000
31
0.0
0
LINE
8
HNP-PERFORATION
10
140.000
20
1740.000
30
0.0
11
185.000
21
1740.000
31
0.0
0
LINE
8
HNP-PERFORATION
10
185.000
20
1740.000
30
0.0
11
185.000
21
1785.000
31
0.0
0
LINE
8
HNP-PERFORATION
10
185.000
20
1785.000
30
0.0
11
140.000
21
1785.000
31
0.0
0
LINE
8
HNP-PERFORATION
10
140.000
20
1785.000
30
0.0
11
140.000
21
1740.000
31
0.0
0
LINE
8
HNP-PERFORATION
10
220.000
20
1740.000
30
0.0
11
265.000
21
1740.000
31
0.0
0
LINE
8
HNP-PERFORATION
10
265.000
20
1740.000
30
0.0
11
265.000
21
1785.000
31
0.0
0
LINE
8
HNP-PERFORATION
10
265.000
20
1785.000
30
0.0
11
220.000
21
1785.000
31
0.0
0
LINE
8
HNP-PERFORATION
10
220.000
20
1785.000
30
0.0
11
220.000
21
1740.000
31
0.0
0
LINE
8
HNP-PERFORATION
10
300.000
20
1740.000
30
0.0
11
345.000
21
1740.000
31
0.0
0
LINE
8
HNP-PERFORATION
10
345.000
20
1740.000
30
0.0
11
345.000
21
1785.000
31
0.0
0
LINE
8
HNP-PERFORATION
10
345.000
20
1785.000
30
0.0
11
300.000
21
1785.000
31
0.0
0
LINE
8
HNP-PERFORATION
10
300.000
20
1785.000
30
0.0
11
300.000
21
1740.000
31
0.0
0
LINE
8
HNP-PERFORATION
10
380.000
20
1740.000
30
0.0
11
425.000
21
1740.000
31
0.0
0
LINE
8
HNP-PERFORATION
10
425.000
20
1740.000
30
0.0
11
425.000
21
1785.000
31
0.0
0
LINE
8
HNP-PERFORATION
10
425.000
20
1785.000
30
0.0
11
380.000
21
1785.000
31
0.0
0
LINE
8
HNP-PERFORATION
10
380.000
20
1785.000
30
0.0
11
380.000
21
1740.000
31
0.0
0
LINE
8
HNP-PERFORATION
10
460.000
20
1740.000
30
0.0
11
505.000
21
1740.000
31
0.0
0
LINE
8
HNP-PERFORATION
10
505.000
20
1740.000
30
0.0
11
505.000
21
1785.000
31
0.0
0
LINE
8
HNP-PERFORATION
10
505.000
20
1785.000
30
0.0
11
460.000
21
1785.000
31
0.0
0
LINE
8
HNP-PERFORATION
10
460.000
20
1785.000
30
0.0
11
460.000
21
1740.000
31
0.0
0
LINE
8
HNP-PERFORATION
10
540.000
20
1740.000
30
0.0
11
585.000
21
1740.000
31
0.0
0
LINE
8
HNP-PERFORATION
10
585.000
20
1740.000
30
0.0
11
585.000
21
1785.000
31
0.0
0
LINE
8
HNP-PERFORATION
10
585.000
20
1785.000
30
0.0
11
540.000
21
1785.000
31
0.0
0
LINE
8
HNP-PERFORATION
10
540.000
20
1785.000
30
0.0
11
540.000
21
1740.000
31
0.0
0
LINE
8
HNP-PERFORATION
10
620.000
20
1740.000
30
0.0
11
665.000
21
1740.000
31
0.0
0
LINE
8
HNP-PERFORATION
10
665.000
20
1740.000
30
0.0
11
665.000
21
1785.000
31
0.0
0
LINE
8
HNP-PERFORATION
10
665.000
20
1785.000
30
0.0
11
620.000
21
1785.000
31
0.0
0
LINE
8
HNP-PERFORATION
10
620.000
20
1785.000
30
0.0
11
620.000
21
1740.000
31
0.0
0
LINE
8
HNP-PERFORATION
10
700.000
20
1740.000
30
0.0
11
745.000
21
1740.000
31
0.0
0
LINE
8
HNP-PERFORATION
10
745.000
20
1740.000
30
0.0
11
745.000
21
1785.000
31
0.0
0
LINE
8
HNP-PERFORATION
10
745.000
20
1785.000
30
0.0
11
700.000
21
1785.000
31
0.0
0
LINE
8
HNP-PERFORATION
10
700.000
20
1785.000
30
0.0
11
700.000
21
1740.000
31
0.0
0
LINE
8
HNP-PERFORATION
10
780.000
20
1740.000
30
0.0
11
825.000
21
1740.000
31
0.0
0
LINE
8
HNP-PERFORATION
10
825.000
20
1740.000
30
0.0
11
825.000
21
1785.000
31
0.0
0
LINE
8
HNP-PERFORATION
10
825.000
20
1785.000
30
0.0
11
780.000
21
1785.000
31
0.0
0
LINE
8
HNP-PERFORATION
10
780.000
20
1785.000
30
0.0
11
780.000
21
1740.000
31
0.0
0
LINE
8
HNP-PERFORATION
10
860.000
20
1740.000
30
0.0
11
905.000
21
1740.000
31
0.0
0
LINE
8
HNP-PERFORATION
10
905.000
20
1740.000
30
0.0
11
905.000
21
1785.000
31
0.0
0
LINE
8
HNP-PERFORATION
10
905.000
20
1785.000
30
0.0
11
860.000
21
1785.000
31
0.0
0
LINE
8
HNP-PERFORATION
10
860.000
20
1785.000
30
0.0
11
860.000
21
1740.000
31
0.0
0
LINE
8
HNP-PERFORATION
10
940.000
20
1740.000
30
0.0
11
985.000
21
1740.000
31
0.0
0
LINE
8
HNP-PERFORATION
10
985.000
20
1740.000
30
0.0
11
985.000
21
1785.000
31
0.0
0
LINE
8
HNP-PERFORATION
10
985.000
20
1785.000
30
0.0
11
940.000
21
1785.000
31
0.0
0
LINE
8
HNP-PERFORATION
10
940.000
20
1785.000
30
0.0
11
940.000
21
1740.000
31
0.0
0
LINE
8
HNP-PERFORATION
10
1020.000
20
1740.000
30
0.0
11
1065.000
21
1740.000
31
0.0
0
LINE
8
HNP-PERFORATION
10
1065.000
20
1740.000
30
0.0
11
1065.000
21
1785.000
31
0.0
0
LINE
8
HNP-PERFORATION
10
1065.000
20
1785.000
30
0.0
11
1020.000
21
1785.000
31
0.0
0
LINE
8
HNP-PERFORATION
10
1020.000
20
1785.000
30
0.0
11
1020.000
21
1740.000
31
0.0
0
LINE
8
HNP-PERFORATION
10
60.000
20
1820.000
30
0.0
11
105.000
21
1820.000
31
0.0
0
LINE
8
HNP-PERFORATION
10
105.000
20
1820.000
30
0.0
11
105.000
21
1865.000
31
0.0
0
LINE
8
HNP-PERFORATION
10
105.000
20
1865.000
30
0.0
11
60.000
21
1865.000
31
0.0
0
LINE
8
HNP-PERFORATION
10
60.000
20
1865.000
30
0.0
11
60.000
21
1820.000
31
0.0
0
LINE
8
HNP-PERFORATION
10
140.000
20
1820.000
30
0.0
11
185.000
21
1820.000
31
0.0
0
LINE
8
HNP-PERFORATION
10
185.000
20
1820.000
30
0.0
11
185.000
21
1865.000
31
0.0
0
LINE
8
HNP-PERFORATION
10
185.000
20
1865.000
30
0.0
11
140.000
21
1865.000
31
0.0
0
LINE
8
HNP-PERFORATION
10
140.000
20
1865.000
30
0.0
11
140.000
21
1820.000
31
0.0
0
LINE
8
HNP-PERFORATION
10
220.000
20
1820.000
30
0.0
11
265.000
21
1820.000
31
0.0
0
LINE
8
HNP-PERFORATION
10
265.000
20
1820.000
30
0.0
11
265.000
21
1865.000
31
0.0
0
LINE
8
HNP-PERFORATION
10
265.000
20
1865.000
30
0.0
11
220.000
21
1865.000
31
0.0
0
LINE
8
HNP-PERFORATION
10
220.000
20
1865.000
30
0.0
11
220.000
21
1820.000
31
0.0
0
LINE
8
HNP-PERFORATION
10
300.000
20
1820.000
30
0.0
11
345.000
21
1820.000
31
0.0
0
LINE
8
HNP-PERFORATION
10
345.000
20
1820.000
30
0.0
11
345.000
21
1865.000
31
0.0
0
LINE
8
HNP-PERFORATION
10
345.000
20
1865.000
30
0.0
11
300.000
21
1865.000
31
0.0
0
LINE
8
HNP-PERFORATION
10
300.000
20
1865.000
30
0.0
11
300.000
21
1820.000
31
0.0
0
LINE
8
HNP-PERFORATION
10
380.000
20
1820.000
30
0.0
11
425.000
21
1820.000
31
0.0
0
LINE
8
HNP-PERFORATION
10
425.000
20
1820.000
30
0.0
11
425.000
21
1865.000
31
0.0
0
LINE
8
HNP-PERFORATION
10
425.000
20
1865.000
30
0.0
11
380.000
21
1865.000
31
0.0
0
LINE
8
HNP-PERFORATION
10
380.000
20
1865.000
30
0.0
11
380.000
21
1820.000
31
0.0
0
LINE
8
HNP-PERFORATION
10
460.000
20
1820.000
30
0.0
11
505.000
21
1820.000
31
0.0
0
LINE
8
HNP-PERFORATION
10
505.000
20
1820.000
30
0.0
11
505.000
21
1865.000
31
0.0
0
LINE
8
HNP-PERFORATION
10
505.000
20
1865.000
30
0.0
11
460.000
21
1865.000
31
0.0
0
LINE
8
HNP-PERFORATION
10
460.000
20
1865.000
30
0.0
11
460.000
21
1820.000
31
0.0
0
LINE
8
HNP-PERFORATION
10
540.000
20
1820.000
30
0.0
11
585.000
21
1820.000
31
0.0
0
LINE
8
HNP-PERFORATION
10
585.000
20
1820.000
30
0.0
11
585.000
21
1865.000
31
0.0
0
LINE
8
HNP-PERFORATION
10
585.000
20
1865.000
30
0.0
11
540.000
21
1865.000
31
0.0
0
LINE
8
HNP-PERFORATION
10
540.000
20
1865.000
30
0.0
11
540.000
21
1820.000
31
0.0
0
LINE
8
HNP-PERFORATION
10
620.000
20
1820.000
30
0.0
11
665.000
21
1820.000
31
0.0
0
LINE
8
HNP-PERFORATION
10
665.000
20
1820.000
30
0.0
11
665.000
21
1865.000
31
0.0
0
LINE
8
HNP-PERFORATION
10
665.000
20
1865.000
30
0.0
11
620.000
21
1865.000
31
0.0
0
LINE
8
HNP-PERFORATION
10
620.000
20
1865.000
30
0.0
11
620.000
21
1820.000
31
0.0
0
LINE
8
HNP-PERFORATION
10
700.000
20
1820.000
30
0.0
11
745.000
21
1820.000
31
0.0
0
LINE
8
HNP-PERFORATION
10
745.000
20
1820.000
30
0.0
11
745.000
21
1865.000
31
0.0
0
LINE
8
HNP-PERFORATION
10
745.000
20
1865.000
30
0.0
11
700.000
21
1865.000
31
0.0
0
LINE
8
HNP-PERFORATION
10
700.000
20
1865.000
30
0.0
11
700.000
21
1820.000
31
0.0
0
LINE
8
HNP-PERFORATION
10
780.000
20
1820.000
30
0.0
11
825.000
21
1820.000
31
0.0
0
LINE
8
HNP-PERFORATION
10
825.000
20
1820.000
30
0.0
11
825.000
21
1865.000
31
0.0
0
LINE
8
HNP-PERFORATION
10
825.000
20
1865.000
30
0.0
11
780.000
21
1865.000
31
0.0
0
LINE
8
HNP-PERFORATION
10
780.000
20
1865.000
30
0.0
11
780.000
21
1820.000
31
0.0
0
LINE
8
HNP-PERFORATION
10
860.000
20
1820.000
30
0.0
11
905.000
21
1820.000
31
0.0
0
LINE
8
HNP-PERFORATION
10
905.000
20
1820.000
30
0.0
11
905.000
21
1865.000
31
0.0
0
LINE
8
HNP-PERFORATION
10
905.000
20
1865.000
30
0.0
11
860.000
21
1865.000
31
0.0
0
LINE
8
HNP-PERFORATION
10
860.000
20
1865.000
30
0.0
11
860.000
21
1820.000
31
0.0
0
LINE
8
HNP-PERFORATION
10
940.000
20
1820.000
30
0.0
11
985.000
21
1820.000
31
0.0
0
LINE
8
HNP-PERFORATION
10
985.000
20
1820.000
30
0.0
11
985.000
21
1865.000
31
0.0
0
LINE
8
HNP-PERFORATION
10
985.000
20
1865.000
30
0.0
11
940.000
21
1865.000
31
0.0
0
LINE
8
HNP-PERFORATION
10
940.000
20
1865.000
30
0.0
11
940.000
21
1820.000
31
0.0
0
LINE
8
HNP-PERFORATION
10
1020.000
20
1820.000
30
0.0
11
1065.000
21
1820.000
31
0.0
0
LINE
8
HNP-PERFORATION
10
1065.000
20
1820.000
30
0.0
11
1065.000
21
1865.000
31
0.0
0
LINE
8
HNP-PERFORATION
10
1065.000
20
1865.000
30
0.0
11
1020.000
21
1865.000
31
0.0
0
LINE
8
HNP-PERFORATION
10
1020.000
20
1865.000
30
0.0
11
1020.000
21
1820.000
31
0.0
0
LINE
8
HNP-PERFORATION
10
60.000
20
1900.000
30
0.0
11
105.000
21
1900.000
31
0.0
0
LINE
8
HNP-PERFORATION
10
105.000
20
1900.000
30
0.0
11
105.000
21
1945.000
31
0.0
0
LINE
8
HNP-PERFORATION
10
105.000
20
1945.000
30
0.0
11
60.000
21
1945.000
31
0.0
0
LINE
8
HNP-PERFORATION
10
60.000
20
1945.000
30
0.0
11
60.000
21
1900.000
31
0.0
0
LINE
8
HNP-PERFORATION
10
140.000
20
1900.000
30
0.0
11
185.000
21
1900.000
31
0.0
0
LINE
8
HNP-PERFORATION
10
185.000
20
1900.000
30
0.0
11
185.000
21
1945.000
31
0.0
0
LINE
8
HNP-PERFORATION
10
185.000
20
1945.000
30
0.0
11
140.000
21
1945.000
31
0.0
0
LINE
8
HNP-PERFORATION
10
140.000
20
1945.000
30
0.0
11
140.000
21
1900.000
31
0.0
0
LINE
8
HNP-PERFORATION
10
220.000
20
1900.000
30
0.0
11
265.000
21
1900.000
31
0.0
0
LINE
8
HNP-PERFORATION
10
265.000
20
1900.000
30
0.0
11
265.000
21
1945.000
31
0.0
0
LINE
8
HNP-PERFORATION
10
265.000
20
1945.000
30
0.0
11
220.000
21
1945.000
31
0.0
0
LINE
8
HNP-PERFORATION
10
220.000
20
1945.000
30
0.0
11
220.000
21
1900.000
31
0.0
0
LINE
8
HNP-PERFORATION
10
300.000
20
1900.000
30
0.0
11
345.000
21
1900.000
31
0.0
0
LINE
8
HNP-PERFORATION
10
345.000
20
1900.000
30
0.0
11
345.000
21
1945.000
31
0.0
0
LINE
8
HNP-PERFORATION
10
345.000
20
1945.000
30
0.0
11
300.000
21
1945.000
31
0.0
0
LINE
8
HNP-PERFORATION
10
300.000
20
1945.000
30
0.0
11
300.000
21
1900.000
31
0.0
0
LINE
8
HNP-PERFORATION
10
380.000
20
1900.000
30
0.0
11
425.000
21
1900.000
31
0.0
0
LINE
8
HNP-PERFORATION
10
425.000
20
1900.000
30
0.0
11
425.000
21
1945.000
31
0.0
0
LINE
8
HNP-PERFORATION
10
425.000
20
1945.000
30
0.0
11
380.000
21
1945.000
31
0.0
0
LINE
8
HNP-PERFORATION
10
380.000
20
1945.000
30
0.0
11
380.000
21
1900.000
31
0.0
0
LINE
8
HNP-PERFORATION
10
460.000
20
1900.000
30
0.0
11
505.000
21
1900.000
31
0.0
0
LINE
8
HNP-PERFORATION
10
505.000
20
1900.000
30
0.0
11
505.000
21
1945.000
31
0.0
0
LINE
8
HNP-PERFORATION
10
505.000
20
1945.000
30
0.0
11
460.000
21
1945.000
31
0.0
0
LINE
8
HNP-PERFORATION
10
460.000
20
1945.000
30
0.0
11
460.000
21
1900.000
31
0.0
0
LINE
8
HNP-PERFORATION
10
540.000
20
1900.000
30
0.0
11
585.000
21
1900.000
31
0.0
0
LINE
8
HNP-PERFORATION
10
585.000
20
1900.000
30
0.0
11
585.000
21
1945.000
31
0.0
0
LINE
8
HNP-PERFORATION
10
585.000
20
1945.000
30
0.0
11
540.000
21
1945.000
31
0.0
0
LINE
8
HNP-PERFORATION
10
540.000
20
1945.000
30
0.0
11
540.000
21
1900.000
31
0.0
0
LINE
8
HNP-PERFORATION
10
620.000
20
1900.000
30
0.0
11
665.000
21
1900.000
31
0.0
0
LINE
8
HNP-PERFORATION
10
665.000
20
1900.000
30
0.0
11
665.000
21
1945.000
31
0.0
0
LINE
8
HNP-PERFORATION
10
665.000
20
1945.000
30
0.0
11
620.000
21
1945.000
31
0.0
0
LINE
8
HNP-PERFORATION
10
620.000
20
1945.000
30
0.0
11
620.000
21
1900.000
31
0.0
0
LINE
8
HNP-PERFORATION
10
700.000
20
1900.000
30
0.0
11
745.000
21
1900.000
31
0.0
0
LINE
8
HNP-PERFORATION
10
745.000
20
1900.000
30
0.0
11
745.000
21
1945.000
31
0.0
0
LINE
8
HNP-PERFORATION
10
745.000
20
1945.000
30
0.0
11
700.000
21
1945.000
31
0.0
0
LINE
8
HNP-PERFORATION
10
700.000
20
1945.000
30
0.0
11
700.000
21
1900.000
31
0.0
0
LINE
8
HNP-PERFORATION
10
780.000
20
1900.000
30
0.0
11
825.000
21
1900.000
31
0.0
0
LINE
8
HNP-PERFORATION
10
825.000
20
1900.000
30
0.0
11
825.000
21
1945.000
31
0.0
0
LINE
8
HNP-PERFORATION
10
825.000
20
1945.000
30
0.0
11
780.000
21
1945.000
31
0.0
0
LINE
8
HNP-PERFORATION
10
780.000
20
1945.000
30
0.0
11
780.000
21
1900.000
31
0.0
0
LINE
8
HNP-PERFORATION
10
860.000
20
1900.000
30
0.0
11
905.000
21
1900.000
31
0.0
0
LINE
8
HNP-PERFORATION
10
905.000
20
1900.000
30
0.0
11
905.000
21
1945.000
31
0.0
0
LINE
8
HNP-PERFORATION
10
905.000
20
1945.000
30
0.0
11
860.000
21
1945.000
31
0.0
0
LINE
8
HNP-PERFORATION
10
860.000
20
1945.000
30
0.0
11
860.000
21
1900.000
31
0.0
0
LINE
8
HNP-PERFORATION
10
940.000
20
1900.000
30
0.0
11
985.000
21
1900.000
31
0.0
0
LINE
8
HNP-PERFORATION
10
985.000
20
1900.000
30
0.0
11
985.000
21
1945.000
31
0.0
0
LINE
8
HNP-PERFORATION
10
985.000
20
1945.000
30
0.0
11
940.000
21
1945.000
31
0.0
0
LINE
8
HNP-PERFORATION
10
940.000
20
1945.000
30
0.0
11
940.000
21
1900.000
31
0.0
0
LINE
8
HNP-PERFORATION
10
1020.000
20
1900.000
30
0.0
11
1065.000
21
1900.000
31
0.0
0
LINE
8
HNP-PERFORATION
10
1065.000
20
1900.000
30
0.0
11
1065.000
21
1945.000
31
0.0
0
LINE
8
HNP-PERFORATION
10
1065.000
20
1945.000
30
0.0
11
1020.000
21
1945.000
31
0.0
0
LINE
8
HNP-PERFORATION
10
1020.000
20
1945.000
30
0.0
11
1020.000
21
1900.000
31
0.0
0
LINE
8
HNP-PERFORATION
10
60.000
20
1980.000
30
0.0
11
105.000
21
1980.000
31
0.0
0
LINE
8
HNP-PERFORATION
10
105.000
20
1980.000
30
0.0
11
105.000
21
2025.000
31
0.0
0
LINE
8
HNP-PERFORATION
10
105.000
20
2025.000
30
0.0
11
60.000
21
2025.000
31
0.0
0
LINE
8
HNP-PERFORATION
10
60.000
20
2025.000
30
0.0
11
60.000
21
1980.000
31
0.0
0
LINE
8
HNP-PERFORATION
10
140.000
20
1980.000
30
0.0
11
185.000
21
1980.000
31
0.0
0
LINE
8
HNP-PERFORATION
10
185.000
20
1980.000
30
0.0
11
185.000
21
2025.000
31
0.0
0
LINE
8
HNP-PERFORATION
10
185.000
20
2025.000
30
0.0
11
140.000
21
2025.000
31
0.0
0
LINE
8
HNP-PERFORATION
10
140.000
20
2025.000
30
0.0
11
140.000
21
1980.000
31
0.0
0
LINE
8
HNP-PERFORATION
10
220.000
20
1980.000
30
0.0
11
265.000
21
1980.000
31
0.0
0
LINE
8
HNP-PERFORATION
10
265.000
20
1980.000
30
0.0
11
265.000
21
2025.000
31
0.0
0
LINE
8
HNP-PERFORATION
10
265.000
20
2025.000
30
0.0
11
220.000
21
2025.000
31
0.0
0
LINE
8
HNP-PERFORATION
10
220.000
20
2025.000
30
0.0
11
220.000
21
1980.000
31
0.0
0
LINE
8
HNP-PERFORATION
10
300.000
20
1980.000
30
0.0
11
345.000
21
1980.000
31
0.0
0
LINE
8
HNP-PERFORATION
10
345.000
20
1980.000
30
0.0
11
345.000
21
2025.000
31
0.0
0
LINE
8
HNP-PERFORATION
10
345.000
20
2025.000
30
0.0
11
300.000
21
2025.000
31
0.0
0
LINE
8
HNP-PERFORATION
10
300.000
20
2025.000
30
0.0
11
300.000
21
1980.000
31
0.0
0
LINE
8
HNP-PERFORATION
10
380.000
20
1980.000
30
0.0
11
425.000
21
1980.000
31
0.0
0
LINE
8
HNP-PERFORATION
10
425.000
20
1980.000
30
0.0
11
425.000
21
2025.000
31
0.0
0
LINE
8
HNP-PERFORATION
10
425.000
20
2025.000
30
0.0
11
380.000
21
2025.000
31
0.0
0
LINE
8
HNP-PERFORATION
10
380.000
20
2025.000
30
0.0
11
380.000
21
1980.000
31
0.0
0
LINE
8
HNP-PERFORATION
10
460.000
20
1980.000
30
0.0
11
505.000
21
1980.000
31
0.0
0
LINE
8
HNP-PERFORATION
10
505.000
20
1980.000
30
0.0
11
505.000
21
2025.000
31
0.0
0
LINE
8
HNP-PERFORATION
10
505.000
20
2025.000
30
0.0
11
460.000
21
2025.000
31
0.0
0
LINE
8
HNP-PERFORATION
10
460.000
20
2025.000
30
0.0
11
460.000
21
1980.000
31
0.0
0
LINE
8
HNP-PERFORATION
10
540.000
20
1980.000
30
0.0
11
585.000
21
1980.000
31
0.0
0
LINE
8
HNP-PERFORATION
10
585.000
20
1980.000
30
0.0
11
585.000
21
2025.000
31
0.0
0
LINE
8
HNP-PERFORATION
10
585.000
20
2025.000
30
0.0
11
540.000
21
2025.000
31
0.0
0
LINE
8
HNP-PERFORATION
10
540.000
20
2025.000
30
0.0
11
540.000
21
1980.000
31
0.0
0
LINE
8
HNP-PERFORATION
10
620.000
20
1980.000
30
0.0
11
665.000
21
1980.000
31
0.0
0
LINE
8
HNP-PERFORATION
10
665.000
20
1980.000
30
0.0
11
665.000
21
2025.000
31
0.0
0
LINE
8
HNP-PERFORATION
10
665.000
20
2025.000
30
0.0
11
620.000
21
2025.000
31
0.0
0
LINE
8
HNP-PERFORATION
10
620.000
20
2025.000
30
0.0
11
620.000
21
1980.000
31
0.0
0
LINE
8
HNP-PERFORATION
10
700.000
20
1980.000
30
0.0
11
745.000
21
1980.000
31
0.0
0
LINE
8
HNP-PERFORATION
10
745.000
20
1980.000
30
0.0
11
745.000
21
2025.000
31
0.0
0
LINE
8
HNP-PERFORATION
10
745.000
20
2025.000
30
0.0
11
700.000
21
2025.000
31
0.0
0
LINE
8
HNP-PERFORATION
10
700.000
20
2025.000
30
0.0
11
700.000
21
1980.000
31
0.0
0
LINE
8
HNP-PERFORATION
10
780.000
20
1980.000
30
0.0
11
825.000
21
1980.000
31
0.0
0
LINE
8
HNP-PERFORATION
10
825.000
20
1980.000
30
0.0
11
825.000
21
2025.000
31
0.0
0
LINE
8
HNP-PERFORATION
10
825.000
20
2025.000
30
0.0
11
780.000
21
2025.000
31
0.0
0
LINE
8
HNP-PERFORATION
10
780.000
20
2025.000
30
0.0
11
780.000
21
1980.000
31
0.0
0
LINE
8
HNP-PERFORATION
10
860.000
20
1980.000
30
0.0
11
905.000
21
1980.000
31
0.0
0
LINE
8
HNP-PERFORATION
10
905.000
20
1980.000
30
0.0
11
905.000
21
2025.000
31
0.0
0
LINE
8
HNP-PERFORATION
10
905.000
20
2025.000
30
0.0
11
860.000
21
2025.000
31
0.0
0
LINE
8
HNP-PERFORATION
10
860.000
20
2025.000
30
0.0
11
860.000
21
1980.000
31
0.0
0
LINE
8
HNP-PERFORATION
10
940.000
20
1980.000
30
0.0
11
985.000
21
1980.000
31
0.0
0
LINE
8
HNP-PERFORATION
10
985.000
20
1980.000
30
0.0
11
985.000
21
2025.000
31
0.0
0
LINE
8
HNP-PERFORATION
10
985.000
20
2025.000
30
0.0
11
940.000
21
2025.000
31
0.0
0
LINE
8
HNP-PERFORATION
10
940.000
20
2025.000
30
0.0
11
940.000
21
1980.000
31
0.0
0
LINE
8
HNP-PERFORATION
10
1020.000
20
1980.000
30
0.0
11
1065.000
21
1980.000
31
0.0
0
LINE
8
HNP-PERFORATION
10
1065.000
20
1980.000
30
0.0
11
1065.000
21
2025.000
31
0.0
0
LINE
8
HNP-PERFORATION
10
1065.000
20
2025.000
30
0.0
11
1020.000
21
2025.000
31
0.0
0
LINE
8
HNP-PERFORATION
10
1020.000
20
2025.000
30
0.0
11
1020.000
21
1980.000
31
0.0
0
LINE
8
HNP-PERFORATION
10
60.000
20
2060.000
30
0.0
11
105.000
21
2060.000
31
0.0
0
LINE
8
HNP-PERFORATION
10
105.000
20
2060.000
30
0.0
11
105.000
21
2105.000
31
0.0
0
LINE
8
HNP-PERFORATION
10
105.000
20
2105.000
30
0.0
11
60.000
21
2105.000
31
0.0
0
LINE
8
HNP-PERFORATION
10
60.000
20
2105.000
30
0.0
11
60.000
21
2060.000
31
0.0
0
LINE
8
HNP-PERFORATION
10
140.000
20
2060.000
30
0.0
11
185.000
21
2060.000
31
0.0
0
LINE
8
HNP-PERFORATION
10
185.000
20
2060.000
30
0.0
11
185.000
21
2105.000
31
0.0
0
LINE
8
HNP-PERFORATION
10
185.000
20
2105.000
30
0.0
11
140.000
21
2105.000
31
0.0
0
LINE
8
HNP-PERFORATION
10
140.000
20
2105.000
30
0.0
11
140.000
21
2060.000
31
0.0
0
LINE
8
HNP-PERFORATION
10
220.000
20
2060.000
30
0.0
11
265.000
21
2060.000
31
0.0
0
LINE
8
HNP-PERFORATION
10
265.000
20
2060.000
30
0.0
11
265.000
21
2105.000
31
0.0
0
LINE
8
HNP-PERFORATION
10
265.000
20
2105.000
30
0.0
11
220.000
21
2105.000
31
0.0
0
LINE
8
HNP-PERFORATION
10
220.000
20
2105.000
30
0.0
11
220.000
21
2060.000
31
0.0
0
LINE
8
HNP-PERFORATION
10
300.000
20
2060.000
30
0.0
11
345.000
21
2060.000
31
0.0
0
LINE
8
HNP-PERFORATION
10
345.000
20
2060.000
30
0.0
11
345.000
21
2105.000
31
0.0
0
LINE
8
HNP-PERFORATION
10
345.000
20
2105.000
30
0.0
11
300.000
21
2105.000
31
0.0
0
LINE
8
HNP-PERFORATION
10
300.000
20
2105.000
30
0.0
11
300.000
21
2060.000
31
0.0
0
LINE
8
HNP-PERFORATION
10
380.000
20
2060.000
30
0.0
11
425.000
21
2060.000
31
0.0
0
LINE
8
HNP-PERFORATION
10
425.000
20
2060.000
30
0.0
11
425.000
21
2105.000
31
0.0
0
LINE
8
HNP-PERFORATION
10
425.000
20
2105.000
30
0.0
11
380.000
21
2105.000
31
0.0
0
LINE
8
HNP-PERFORATION
10
380.000
20
2105.000
30
0.0
11
380.000
21
2060.000
31
0.0
0
LINE
8
HNP-PERFORATION
10
460.000
20
2060.000
30
0.0
11
505.000
21
2060.000
31
0.0
0
LINE
8
HNP-PERFORATION
10
505.000
20
2060.000
30
0.0
11
505.000
21
2105.000
31
0.0
0
LINE
8
HNP-PERFORATION
10
505.000
20
2105.000
30
0.0
11
460.000
21
2105.000
31
0.0
0
LINE
8
HNP-PERFORATION
10
460.000
20
2105.000
30
0.0
11
460.000
21
2060.000
31
0.0
0
LINE
8
HNP-PERFORATION
10
540.000
20
2060.000
30
0.0
11
585.000
21
2060.000
31
0.0
0
LINE
8
HNP-PERFORATION
10
585.000
20
2060.000
30
0.0
11
585.000
21
2105.000
31
0.0
0
LINE
8
HNP-PERFORATION
10
585.000
20
2105.000
30
0.0
11
540.000
21
2105.000
31
0.0
0
LINE
8
HNP-PERFORATION
10
540.000
20
2105.000
30
0.0
11
540.000
21
2060.000
31
0.0
0
LINE
8
HNP-PERFORATION
10
620.000
20
2060.000
30
0.0
11
665.000
21
2060.000
31
0.0
0
LINE
8
HNP-PERFORATION
10
665.000
20
2060.000
30
0.0
11
665.000
21
2105.000
31
0.0
0
LINE
8
HNP-PERFORATION
10
665.000
20
2105.000
30
0.0
11
620.000
21
2105.000
31
0.0
0
LINE
8
HNP-PERFORATION
10
620.000
20
2105.000
30
0.0
11
620.000
21
2060.000
31
0.0
0
LINE
8
HNP-PERFORATION
10
700.000
20
2060.000
30
0.0
11
745.000
21
2060.000
31
0.0
0
LINE
8
HNP-PERFORATION
10
745.000
20
2060.000
30
0.0
11
745.000
21
2105.000
31
0.0
0
LINE
8
HNP-PERFORATION
10
745.000
20
2105.000
30
0.0
11
700.000
21
2105.000
31
0.0
0
LINE
8
HNP-PERFORATION
10
700.000
20
2105.000
30
0.0
11
700.000
21
2060.000
31
0.0
0
LINE
8
HNP-PERFORATION
10
780.000
20
2060.000
30
0.0
11
825.000
21
2060.000
31
0.0
0
LINE
8
HNP-PERFORATION
10
825.000
20
2060.000
30
0.0
11
825.000
21
2105.000
31
0.0
0
LINE
8
HNP-PERFORATION
10
825.000
20
2105.000
30
0.0
11
780.000
21
2105.000
31
0.0
0
LINE
8
HNP-PERFORATION
10
780.000
20
2105.000
30
0.0
11
780.000
21
2060.000
31
0.0
0
LINE
8
HNP-PERFORATION
10
860.000
20
2060.000
30
0.0
11
905.000
21
2060.000
31
0.0
0
LINE
8
HNP-PERFORATION
10
905.000
20
2060.000
30
0.0
11
905.000
21
2105.000
31
0.0
0
LINE
8
HNP-PERFORATION
10
905.000
20
2105.000
30
0.0
11
860.000
21
2105.000
31
0.0
0
LINE
8
HNP-PERFORATION
10
860.000
20
2105.000
30
0.0
11
860.000
21
2060.000
31
0.0
0
LINE
8
HNP-PERFORATION
10
940.000
20
2060.000
30
0.0
11
985.000
21
2060.000
31
0.0
0
LINE
8
HNP-PERFORATION
10
985.000
20
2060.000
30
0.0
11
985.000
21
2105.000
31
0.0
0
LINE
8
HNP-PERFORATION
10
985.000
20
2105.000
30
0.0
11
940.000
21
2105.000
31
0.0
0
LINE
8
HNP-PERFORATION
10
940.000
20
2105.000
30
0.0
11
940.000
21
2060.000
31
0.0
0
LINE
8
HNP-PERFORATION
10
1020.000
20
2060.000
30
0.0
11
1065.000
21
2060.000
31
0.0
0
LINE
8
HNP-PERFORATION
10
1065.000
20
2060.000
30
0.0
11
1065.000
21
2105.000
31
0.0
0
LINE
8
HNP-PERFORATION
10
1065.000
20
2105.000
30
0.0
11
1020.000
21
2105.000
31
0.0
0
LINE
8
HNP-PERFORATION
10
1020.000
20
2105.000
30
0.0
11
1020.000
21
2060.000
31
0.0
0
LINE
8
HNP-PERFORATION
10
60.000
20
2140.000
30
0.0
11
105.000
21
2140.000
31
0.0
0
LINE
8
HNP-PERFORATION
10
105.000
20
2140.000
30
0.0
11
105.000
21
2185.000
31
0.0
0
LINE
8
HNP-PERFORATION
10
105.000
20
2185.000
30
0.0
11
60.000
21
2185.000
31
0.0
0
LINE
8
HNP-PERFORATION
10
60.000
20
2185.000
30
0.0
11
60.000
21
2140.000
31
0.0
0
LINE
8
HNP-PERFORATION
10
140.000
20
2140.000
30
0.0
11
185.000
21
2140.000
31
0.0
0
LINE
8
HNP-PERFORATION
10
185.000
20
2140.000
30
0.0
11
185.000
21
2185.000
31
0.0
0
LINE
8
HNP-PERFORATION
10
185.000
20
2185.000
30
0.0
11
140.000
21
2185.000
31
0.0
0
LINE
8
HNP-PERFORATION
10
140.000
20
2185.000
30
0.0
11
140.000
21
2140.000
31
0.0
0
LINE
8
HNP-PERFORATION
10
220.000
20
2140.000
30
0.0
11
265.000
21
2140.000
31
0.0
0
LINE
8
HNP-PERFORATION
10
265.000
20
2140.000
30
0.0
11
265.000
21
2185.000
31
0.0
0
LINE
8
HNP-PERFORATION
10
265.000
20
2185.000
30
0.0
11
220.000
21
2185.000
31
0.0
0
LINE
8
HNP-PERFORATION
10
220.000
20
2185.000
30
0.0
11
220.000
21
2140.000
31
0.0
0
LINE
8
HNP-PERFORATION
10
300.000
20
2140.000
30
0.0
11
345.000
21
2140.000
31
0.0
0
LINE
8
HNP-PERFORATION
10
345.000
20
2140.000
30
0.0
11
345.000
21
2185.000
31
0.0
0
LINE
8
HNP-PERFORATION
10
345.000
20
2185.000
30
0.0
11
300.000
21
2185.000
31
0.0
0
LINE
8
HNP-PERFORATION
10
300.000
20
2185.000
30
0.0
11
300.000
21
2140.000
31
0.0
0
LINE
8
HNP-PERFORATION
10
380.000
20
2140.000
30
0.0
11
425.000
21
2140.000
31
0.0
0
LINE
8
HNP-PERFORATION
10
425.000
20
2140.000
30
0.0
11
425.000
21
2185.000
31
0.0
0
LINE
8
HNP-PERFORATION
10
425.000
20
2185.000
30
0.0
11
380.000
21
2185.000
31
0.0
0
LINE
8
HNP-PERFORATION
10
380.000
20
2185.000
30
0.0
11
380.000
21
2140.000
31
0.0
0
LINE
8
HNP-PERFORATION
10
460.000
20
2140.000
30
0.0
11
505.000
21
2140.000
31
0.0
0
LINE
8
HNP-PERFORATION
10
505.000
20
2140.000
30
0.0
11
505.000
21
2185.000
31
0.0
0
LINE
8
HNP-PERFORATION
10
505.000
20
2185.000
30
0.0
11
460.000
21
2185.000
31
0.0
0
LINE
8
HNP-PERFORATION
10
460.000
20
2185.000
30
0.0
11
460.000
21
2140.000
31
0.0
0
LINE
8
HNP-PERFORATION
10
540.000
20
2140.000
30
0.0
11
585.000
21
2140.000
31
0.0
0
LINE
8
HNP-PERFORATION
10
585.000
20
2140.000
30
0.0
11
585.000
21
2185.000
31
0.0
0
LINE
8
HNP-PERFORATION
10
585.000
20
2185.000
30
0.0
11
540.000
21
2185.000
31
0.0
0
LINE
8
HNP-PERFORATION
10
540.000
20
2185.000
30
0.0
11
540.000
21
2140.000
31
0.0
0
LINE
8
HNP-PERFORATION
10
620.000
20
2140.000
30
0.0
11
665.000
21
2140.000
31
0.0
0
LINE
8
HNP-PERFORATION
10
665.000
20
2140.000
30
0.0
11
665.000
21
2185.000
31
0.0
0
LINE
8
HNP-PERFORATION
10
665.000
20
2185.000
30
0.0
11
620.000
21
2185.000
31
0.0
0
LINE
8
HNP-PERFORATION
10
620.000
20
2185.000
30
0.0
11
620.000
21
2140.000
31
0.0
0
LINE
8
HNP-PERFORATION
10
700.000
20
2140.000
30
0.0
11
745.000
21
2140.000
31
0.0
0
LINE
8
HNP-PERFORATION
10
745.000
20
2140.000
30
0.0
11
745.000
21
2185.000
31
0.0
0
LINE
8
HNP-PERFORATION
10
745.000
20
2185.000
30
0.0
11
700.000
21
2185.000
31
0.0
0
LINE
8
HNP-PERFORATION
10
700.000
20
2185.000
30
0.0
11
700.000
21
2140.000
31
0.0
0
LINE
8
HNP-PERFORATION
10
780.000
20
2140.000
30
0.0
11
825.000
21
2140.000
31
0.0
0
LINE
8
HNP-PERFORATION
10
825.000
20
2140.000
30
0.0
11
825.000
21
2185.000
31
0.0
0
LINE
8
HNP-PERFORATION
10
825.000
20
2185.000
30
0.0
11
780.000
21
2185.000
31
0.0
0
LINE
8
HNP-PERFORATION
10
780.000
20
2185.000
30
0.0
11
780.000
21
2140.000
31
0.0
0
LINE
8
HNP-PERFORATION
10
860.000
20
2140.000
30
0.0
11
905.000
21
2140.000
31
0.0
0
LINE
8
HNP-PERFORATION
10
905.000
20
2140.000
30
0.0
11
905.000
21
2185.000
31
0.0
0
LINE
8
HNP-PERFORATION
10
905.000
20
2185.000
30
0.0
11
860.000
21
2185.000
31
0.0
0
LINE
8
HNP-PERFORATION
10
860.000
20
2185.000
30
0.0
11
860.000
21
2140.000
31
0.0
0
LINE
8
HNP-PERFORATION
10
940.000
20
2140.000
30
0.0
11
985.000
21
2140.000
31
0.0
0
LINE
8
HNP-PERFORATION
10
985.000
20
2140.000
30
0.0
11
985.000
21
2185.000
31
0.0
0
LINE
8
HNP-PERFORATION
10
985.000
20
2185.000
30
0.0
11
940.000
21
2185.000
31
0.0
0
LINE
8
HNP-PERFORATION
10
940.000
20
2185.000
30
0.0
11
940.000
21
2140.000
31
0.0
0
LINE
8
HNP-PERFORATION
10
1020.000
20
2140.000
30
0.0
11
1065.000
21
2140.000
31
0.0
0
LINE
8
HNP-PERFORATION
10
1065.000
20
2140.000
30
0.0
11
1065.000
21
2185.000
31
0.0
0
LINE
8
HNP-PERFORATION
10
1065.000
20
2185.000
30
0.0
11
1020.000
21
2185.000
31
0.0
0
LINE
8
HNP-PERFORATION
10
1020.000
20
2185.000
30
0.0
11
1020.000
21
2140.000
31
0.0
0
LINE
8
HNP-PERFORATION
10
60.000
20
2220.000
30
0.0
11
105.000
21
2220.000
31
0.0
0
LINE
8
HNP-PERFORATION
10
105.000
20
2220.000
30
0.0
11
105.000
21
2265.000
31
0.0
0
LINE
8
HNP-PERFORATION
10
105.000
20
2265.000
30
0.0
11
60.000
21
2265.000
31
0.0
0
LINE
8
HNP-PERFORATION
10
60.000
20
2265.000
30
0.0
11
60.000
21
2220.000
31
0.0
0
LINE
8
HNP-PERFORATION
10
140.000
20
2220.000
30
0.0
11
185.000
21
2220.000
31
0.0
0
LINE
8
HNP-PERFORATION
10
185.000
20
2220.000
30
0.0
11
185.000
21
2265.000
31
0.0
0
LINE
8
HNP-PERFORATION
10
185.000
20
2265.000
30
0.0
11
140.000
21
2265.000
31
0.0
0
LINE
8
HNP-PERFORATION
10
140.000
20
2265.000
30
0.0
11
140.000
21
2220.000
31
0.0
0
LINE
8
HNP-PERFORATION
10
220.000
20
2220.000
30
0.0
11
265.000
21
2220.000
31
0.0
0
LINE
8
HNP-PERFORATION
10
265.000
20
2220.000
30
0.0
11
265.000
21
2265.000
31
0.0
0
LINE
8
HNP-PERFORATION
10
265.000
20
2265.000
30
0.0
11
220.000
21
2265.000
31
0.0
0
LINE
8
HNP-PERFORATION
10
220.000
20
2265.000
30
0.0
11
220.000
21
2220.000
31
0.0
0
LINE
8
HNP-PERFORATION
10
300.000
20
2220.000
30
0.0
11
345.000
21
2220.000
31
0.0
0
LINE
8
HNP-PERFORATION
10
345.000
20
2220.000
30
0.0
11
345.000
21
2265.000
31
0.0
0
LINE
8
HNP-PERFORATION
10
345.000
20
2265.000
30
0.0
11
300.000
21
2265.000
31
0.0
0
LINE
8
HNP-PERFORATION
10
300.000
20
2265.000
30
0.0
11
300.000
21
2220.000
31
0.0
0
LINE
8
HNP-PERFORATION
10
380.000
20
2220.000
30
0.0
11
425.000
21
2220.000
31
0.0
0
LINE
8
HNP-PERFORATION
10
425.000
20
2220.000
30
0.0
11
425.000
21
2265.000
31
0.0
0
LINE
8
HNP-PERFORATION
10
425.000
20
2265.000
30
0.0
11
380.000
21
2265.000
31
0.0
0
LINE
8
HNP-PERFORATION
10
380.000
20
2265.000
30
0.0
11
380.000
21
2220.000
31
0.0
0
LINE
8
HNP-PERFORATION
10
460.000
20
2220.000
30
0.0
11
505.000
21
2220.000
31
0.0
0
LINE
8
HNP-PERFORATION
10
505.000
20
2220.000
30
0.0
11
505.000
21
2265.000
31
0.0
0
LINE
8
HNP-PERFORATION
10
505.000
20
2265.000
30
0.0
11
460.000
21
2265.000
31
0.0
0
LINE
8
HNP-PERFORATION
10
460.000
20
2265.000
30
0.0
11
460.000
21
2220.000
31
0.0
0
LINE
8
HNP-PERFORATION
10
540.000
20
2220.000
30
0.0
11
585.000
21
2220.000
31
0.0
0
LINE
8
HNP-PERFORATION
10
585.000
20
2220.000
30
0.0
11
585.000
21
2265.000
31
0.0
0
LINE
8
HNP-PERFORATION
10
585.000
20
2265.000
30
0.0
11
540.000
21
2265.000
31
0.0
0
LINE
8
HNP-PERFORATION
10
540.000
20
2265.000
30
0.0
11
540.000
21
2220.000
31
0.0
0
LINE
8
HNP-PERFORATION
10
620.000
20
2220.000
30
0.0
11
665.000
21
2220.000
31
0.0
0
LINE
8
HNP-PERFORATION
10
665.000
20
2220.000
30
0.0
11
665.000
21
2265.000
31
0.0
0
LINE
8
HNP-PERFORATION
10
665.000
20
2265.000
30
0.0
11
620.000
21
2265.000
31
0.0
0
LINE
8
HNP-PERFORATION
10
620.000
20
2265.000
30
0.0
11
620.000
21
2220.000
31
0.0
0
LINE
8
HNP-PERFORATION
10
700.000
20
2220.000
30
0.0
11
745.000
21
2220.000
31
0.0
0
LINE
8
HNP-PERFORATION
10
745.000
20
2220.000
30
0.0
11
745.000
21
2265.000
31
0.0
0
LINE
8
HNP-PERFORATION
10
745.000
20
2265.000
30
0.0
11
700.000
21
2265.000
31
0.0
0
LINE
8
HNP-PERFORATION
10
700.000
20
2265.000
30
0.0
11
700.000
21
2220.000
31
0.0
0
LINE
8
HNP-PERFORATION
10
780.000
20
2220.000
30
0.0
11
825.000
21
2220.000
31
0.0
0
LINE
8
HNP-PERFORATION
10
825.000
20
2220.000
30
0.0
11
825.000
21
2265.000
31
0.0
0
LINE
8
HNP-PERFORATION
10
825.000
20
2265.000
30
0.0
11
780.000
21
2265.000
31
0.0
0
LINE
8
HNP-PERFORATION
10
780.000
20
2265.000
30
0.0
11
780.000
21
2220.000
31
0.0
0
LINE
8
HNP-PERFORATION
10
860.000
20
2220.000
30
0.0
11
905.000
21
2220.000
31
0.0
0
LINE
8
HNP-PERFORATION
10
905.000
20
2220.000
30
0.0
11
905.000
21
2265.000
31
0.0
0
LINE
8
HNP-PERFORATION
10
905.000
20
2265.000
30
0.0
11
860.000
21
2265.000
31
0.0
0
LINE
8
HNP-PERFORATION
10
860.000
20
2265.000
30
0.0
11
860.000
21
2220.000
31
0.0
0
LINE
8
HNP-PERFORATION
10
940.000
20
2220.000
30
0.0
11
985.000
21
2220.000
31
0.0
0
LINE
8
HNP-PERFORATION
10
985.000
20
2220.000
30
0.0
11
985.000
21
2265.000
31
0.0
0
LINE
8
HNP-PERFORATION
10
985.000
20
2265.000
30
0.0
11
940.000
21
2265.000
31
0.0
0
LINE
8
HNP-PERFORATION
10
940.000
20
2265.000
30
0.0
11
940.000
21
2220.000
31
0.0
0
LINE
8
HNP-PERFORATION
10
1020.000
20
2220.000
30
0.0
11
1065.000
21
2220.000
31
0.0
0
LINE
8
HNP-PERFORATION
10
1065.000
20
2220.000
30
0.0
11
1065.000
21
2265.000
31
0.0
0
LINE
8
HNP-PERFORATION
10
1065.000
20
2265.000
30
0.0
11
1020.000
21
2265.000
31
0.0
0
LINE
8
HNP-PERFORATION
10
1020.000
20
2265.000
30
0.0
11
1020.000
21
2220.000
31
0.0
0
CIRCLE
8
HNP-FIXING
10
70.000
20
110.000
30
0.0
40
5.000
0
CIRCLE
8
HNP-FIXING
10
1130.000
20
110.000
30
0.0
40
5.000
0
CIRCLE
8
HNP-FIXING
10
70.000
20
1200.000
30
0.0
40
5.000
0
CIRCLE
8
HNP-FIXING
10
1130.000
20
1200.000
30
0.0
40
5.000
0
CIRCLE
8
HNP-FIXING
10
70.000
20
2290.000
30
0.0
40
5.000
0
CIRCLE
8
HNP-FIXING
10
1130.000
20
2290.000
30
0.0
40
5.000
0
LINE
8
HNP-NOTES
10
0.000
20
-260.000
30
0.0
11
1200.000
21
-260.000
31
0.0
0
LINE
8
HNP-NOTES
10
1200.000
20
-260.000
30
0.0
11
1200.000
21
-60.000
31
0.0
0
LINE
8
HNP-NOTES
10
1200.000
20
-60.000
30
0.0
11
0.000
21
-60.000
31
0.0
0
LINE
8
HNP-NOTES
10
0.000
20
-60.000
30
0.0
11
0.000
21
-260.000
31
0.0
0
TEXT
8
HNP-NOTES
10
20.000
20
-110.000
30
0.0
40
34.000
1
H&P BUILDING - FACADE PANEL - SQUARE PERFORATION
0
TEXT
8
HNP-NOTES
10
20.000
20
-160.000
30
0.0
40
20.000
1
APERTURE 45x45mm - GRID PITCH 80mm  |  PANEL 1200 x 2400 mm  |  OPEN AREA ~26%
0
TEXT
8
HNP-NOTES
10
20.000
20
-205.000
30
0.0
40
18.000
1
REPRESENTATIVE GEOMETRY - CUT TO PROJECT SHEET SIZE, MATERIAL AND OPEN AREA
0
TEXT
8
HNP-NOTES
10
20.000
20
-245.000
30
0.0
40
18.000
1
hnpbuilding.com  |  sales@hnpbuilding.com  |  (720) 609-9307
0
ENDSEC
0
EOF
