0
SECTION
2
HEADER
9
$ACADVER
1
AC1009
9
$INSUNITS
70
4
9
$EXTMIN
10
0.0
20
0.0
30
0.0
9
$EXTMAX
10
1200.0
20
2400.0
30
0.0
0
ENDSEC
0
SECTION
2
TABLES
0
TABLE
2
LAYER
70
4
0
LAYER
2
HNP-PANEL-OUTLINE
70
0
62
7
6
CONTINUOUS
0
LAYER
2
HNP-PERFORATION
70
0
62
1
6
CONTINUOUS
0
LAYER
2
HNP-FIXING
70
0
62
5
6
CONTINUOUS
0
LAYER
2
HNP-NOTES
70
0
62
8
6
CONTINUOUS
0
ENDTAB
0
ENDSEC
0
SECTION
2
ENTITIES
0
LINE
8
HNP-PANEL-OUTLINE
10
0.000
20
0.000
30
0.0
11
1200.000
21
0.000
31
0.0
0
LINE
8
HNP-PANEL-OUTLINE
10
1200.000
20
0.000
30
0.0
11
1200.000
21
2400.000
31
0.0
0
LINE
8
HNP-PANEL-OUTLINE
10
1200.000
20
2400.000
30
0.0
11
0.000
21
2400.000
31
0.0
0
LINE
8
HNP-PANEL-OUTLINE
10
0.000
20
2400.000
30
0.0
11
0.000
21
0.000
31
0.0
0
CIRCLE
8
HNP-PERFORATION
10
80.000
20
80.000
30
0.0
40
20.000
0
CIRCLE
8
HNP-PERFORATION
10
150.000
20
80.000
30
0.0
40
20.000
0
CIRCLE
8
HNP-PERFORATION
10
220.000
20
80.000
30
0.0
40
20.000
0
CIRCLE
8
HNP-PERFORATION
10
290.000
20
80.000
30
0.0
40
20.000
0
CIRCLE
8
HNP-PERFORATION
10
360.000
20
80.000
30
0.0
40
20.000
0
CIRCLE
8
HNP-PERFORATION
10
430.000
20
80.000
30
0.0
40
20.000
0
CIRCLE
8
HNP-PERFORATION
10
500.000
20
80.000
30
0.0
40
20.000
0
CIRCLE
8
HNP-PERFORATION
10
570.000
20
80.000
30
0.0
40
20.000
0
CIRCLE
8
HNP-PERFORATION
10
640.000
20
80.000
30
0.0
40
20.000
0
CIRCLE
8
HNP-PERFORATION
10
710.000
20
80.000
30
0.0
40
20.000
0
CIRCLE
8
HNP-PERFORATION
10
780.000
20
80.000
30
0.0
40
20.000
0
CIRCLE
8
HNP-PERFORATION
10
850.000
20
80.000
30
0.0
40
20.000
0
CIRCLE
8
HNP-PERFORATION
10
920.000
20
80.000
30
0.0
40
20.000
0
CIRCLE
8
HNP-PERFORATION
10
990.000
20
80.000
30
0.0
40
20.000
0
CIRCLE
8
HNP-PERFORATION
10
1060.000
20
80.000
30
0.0
40
20.000
0
CIRCLE
8
HNP-PERFORATION
10
115.000
20
140.622
30
0.0
40
20.000
0
CIRCLE
8
HNP-PERFORATION
10
185.000
20
140.622
30
0.0
40
20.000
0
CIRCLE
8
HNP-PERFORATION
10
255.000
20
140.622
30
0.0
40
20.000
0
CIRCLE
8
HNP-PERFORATION
10
325.000
20
140.622
30
0.0
40
20.000
0
CIRCLE
8
HNP-PERFORATION
10
395.000
20
140.622
30
0.0
40
20.000
0
CIRCLE
8
HNP-PERFORATION
10
465.000
20
140.622
30
0.0
40
20.000
0
CIRCLE
8
HNP-PERFORATION
10
535.000
20
140.622
30
0.0
40
20.000
0
CIRCLE
8
HNP-PERFORATION
10
605.000
20
140.622
30
0.0
40
20.000
0
CIRCLE
8
HNP-PERFORATION
10
675.000
20
140.622
30
0.0
40
20.000
0
CIRCLE
8
HNP-PERFORATION
10
745.000
20
140.622
30
0.0
40
20.000
0
CIRCLE
8
HNP-PERFORATION
10
815.000
20
140.622
30
0.0
40
20.000
0
CIRCLE
8
HNP-PERFORATION
10
885.000
20
140.622
30
0.0
40
20.000
0
CIRCLE
8
HNP-PERFORATION
10
955.000
20
140.622
30
0.0
40
20.000
0
CIRCLE
8
HNP-PERFORATION
10
1025.000
20
140.622
30
0.0
40
20.000
0
CIRCLE
8
HNP-PERFORATION
10
1095.000
20
140.622
30
0.0
40
20.000
0
CIRCLE
8
HNP-PERFORATION
10
80.000
20
201.244
30
0.0
40
20.000
0
CIRCLE
8
HNP-PERFORATION
10
150.000
20
201.244
30
0.0
40
20.000
0
CIRCLE
8
HNP-PERFORATION
10
220.000
20
201.244
30
0.0
40
20.000
0
CIRCLE
8
HNP-PERFORATION
10
290.000
20
201.244
30
0.0
40
20.000
0
CIRCLE
8
HNP-PERFORATION
10
360.000
20
201.244
30
0.0
40
20.000
0
CIRCLE
8
HNP-PERFORATION
10
430.000
20
201.244
30
0.0
40
20.000
0
CIRCLE
8
HNP-PERFORATION
10
500.000
20
201.244
30
0.0
40
20.000
0
CIRCLE
8
HNP-PERFORATION
10
570.000
20
201.244
30
0.0
40
20.000
0
CIRCLE
8
HNP-PERFORATION
10
640.000
20
201.244
30
0.0
40
20.000
0
CIRCLE
8
HNP-PERFORATION
10
710.000
20
201.244
30
0.0
40
20.000
0
CIRCLE
8
HNP-PERFORATION
10
780.000
20
201.244
30
0.0
40
20.000
0
CIRCLE
8
HNP-PERFORATION
10
850.000
20
201.244
30
0.0
40
20.000
0
CIRCLE
8
HNP-PERFORATION
10
920.000
20
201.244
30
0.0
40
20.000
0
CIRCLE
8
HNP-PERFORATION
10
990.000
20
201.244
30
0.0
40
20.000
0
CIRCLE
8
HNP-PERFORATION
10
1060.000
20
201.244
30
0.0
40
20.000
0
CIRCLE
8
HNP-PERFORATION
10
115.000
20
261.865
30
0.0
40
20.000
0
CIRCLE
8
HNP-PERFORATION
10
185.000
20
261.865
30
0.0
40
20.000
0
CIRCLE
8
HNP-PERFORATION
10
255.000
20
261.865
30
0.0
40
20.000
0
CIRCLE
8
HNP-PERFORATION
10
325.000
20
261.865
30
0.0
40
20.000
0
CIRCLE
8
HNP-PERFORATION
10
395.000
20
261.865
30
0.0
40
20.000
0
CIRCLE
8
HNP-PERFORATION
10
465.000
20
261.865
30
0.0
40
20.000
0
CIRCLE
8
HNP-PERFORATION
10
535.000
20
261.865
30
0.0
40
20.000
0
CIRCLE
8
HNP-PERFORATION
10
605.000
20
261.865
30
0.0
40
20.000
0
CIRCLE
8
HNP-PERFORATION
10
675.000
20
261.865
30
0.0
40
20.000
0
CIRCLE
8
HNP-PERFORATION
10
745.000
20
261.865
30
0.0
40
20.000
0
CIRCLE
8
HNP-PERFORATION
10
815.000
20
261.865
30
0.0
40
20.000
0
CIRCLE
8
HNP-PERFORATION
10
885.000
20
261.865
30
0.0
40
20.000
0
CIRCLE
8
HNP-PERFORATION
10
955.000
20
261.865
30
0.0
40
20.000
0
CIRCLE
8
HNP-PERFORATION
10
1025.000
20
261.865
30
0.0
40
20.000
0
CIRCLE
8
HNP-PERFORATION
10
1095.000
20
261.865
30
0.0
40
20.000
0
CIRCLE
8
HNP-PERFORATION
10
80.000
20
322.487
30
0.0
40
20.000
0
CIRCLE
8
HNP-PERFORATION
10
150.000
20
322.487
30
0.0
40
20.000
0
CIRCLE
8
HNP-PERFORATION
10
220.000
20
322.487
30
0.0
40
20.000
0
CIRCLE
8
HNP-PERFORATION
10
290.000
20
322.487
30
0.0
40
20.000
0
CIRCLE
8
HNP-PERFORATION
10
360.000
20
322.487
30
0.0
40
20.000
0
CIRCLE
8
HNP-PERFORATION
10
430.000
20
322.487
30
0.0
40
20.000
0
CIRCLE
8
HNP-PERFORATION
10
500.000
20
322.487
30
0.0
40
20.000
0
CIRCLE
8
HNP-PERFORATION
10
570.000
20
322.487
30
0.0
40
20.000
0
CIRCLE
8
HNP-PERFORATION
10
640.000
20
322.487
30
0.0
40
20.000
0
CIRCLE
8
HNP-PERFORATION
10
710.000
20
322.487
30
0.0
40
20.000
0
CIRCLE
8
HNP-PERFORATION
10
780.000
20
322.487
30
0.0
40
20.000
0
CIRCLE
8
HNP-PERFORATION
10
850.000
20
322.487
30
0.0
40
20.000
0
CIRCLE
8
HNP-PERFORATION
10
920.000
20
322.487
30
0.0
40
20.000
0
CIRCLE
8
HNP-PERFORATION
10
990.000
20
322.487
30
0.0
40
20.000
0
CIRCLE
8
HNP-PERFORATION
10
1060.000
20
322.487
30
0.0
40
20.000
0
CIRCLE
8
HNP-PERFORATION
10
115.000
20
383.109
30
0.0
40
20.000
0
CIRCLE
8
HNP-PERFORATION
10
185.000
20
383.109
30
0.0
40
20.000
0
CIRCLE
8
HNP-PERFORATION
10
255.000
20
383.109
30
0.0
40
20.000
0
CIRCLE
8
HNP-PERFORATION
10
325.000
20
383.109
30
0.0
40
20.000
0
CIRCLE
8
HNP-PERFORATION
10
395.000
20
383.109
30
0.0
40
20.000
0
CIRCLE
8
HNP-PERFORATION
10
465.000
20
383.109
30
0.0
40
20.000
0
CIRCLE
8
HNP-PERFORATION
10
535.000
20
383.109
30
0.0
40
20.000
0
CIRCLE
8
HNP-PERFORATION
10
605.000
20
383.109
30
0.0
40
20.000
0
CIRCLE
8
HNP-PERFORATION
10
675.000
20
383.109
30
0.0
40
20.000
0
CIRCLE
8
HNP-PERFORATION
10
745.000
20
383.109
30
0.0
40
20.000
0
CIRCLE
8
HNP-PERFORATION
10
815.000
20
383.109
30
0.0
40
20.000
0
CIRCLE
8
HNP-PERFORATION
10
885.000
20
383.109
30
0.0
40
20.000
0
CIRCLE
8
HNP-PERFORATION
10
955.000
20
383.109
30
0.0
40
20.000
0
CIRCLE
8
HNP-PERFORATION
10
1025.000
20
383.109
30
0.0
40
20.000
0
CIRCLE
8
HNP-PERFORATION
10
1095.000
20
383.109
30
0.0
40
20.000
0
CIRCLE
8
HNP-PERFORATION
10
80.000
20
443.731
30
0.0
40
20.000
0
CIRCLE
8
HNP-PERFORATION
10
150.000
20
443.731
30
0.0
40
20.000
0
CIRCLE
8
HNP-PERFORATION
10
220.000
20
443.731
30
0.0
40
20.000
0
CIRCLE
8
HNP-PERFORATION
10
290.000
20
443.731
30
0.0
40
20.000
0
CIRCLE
8
HNP-PERFORATION
10
360.000
20
443.731
30
0.0
40
20.000
0
CIRCLE
8
HNP-PERFORATION
10
430.000
20
443.731
30
0.0
40
20.000
0
CIRCLE
8
HNP-PERFORATION
10
500.000
20
443.731
30
0.0
40
20.000
0
CIRCLE
8
HNP-PERFORATION
10
570.000
20
443.731
30
0.0
40
20.000
0
CIRCLE
8
HNP-PERFORATION
10
640.000
20
443.731
30
0.0
40
20.000
0
CIRCLE
8
HNP-PERFORATION
10
710.000
20
443.731
30
0.0
40
20.000
0
CIRCLE
8
HNP-PERFORATION
10
780.000
20
443.731
30
0.0
40
20.000
0
CIRCLE
8
HNP-PERFORATION
10
850.000
20
443.731
30
0.0
40
20.000
0
CIRCLE
8
HNP-PERFORATION
10
920.000
20
443.731
30
0.0
40
20.000
0
CIRCLE
8
HNP-PERFORATION
10
990.000
20
443.731
30
0.0
40
20.000
0
CIRCLE
8
HNP-PERFORATION
10
1060.000
20
443.731
30
0.0
40
20.000
0
CIRCLE
8
HNP-PERFORATION
10
115.000
20
504.352
30
0.0
40
20.000
0
CIRCLE
8
HNP-PERFORATION
10
185.000
20
504.352
30
0.0
40
20.000
0
CIRCLE
8
HNP-PERFORATION
10
255.000
20
504.352
30
0.0
40
20.000
0
CIRCLE
8
HNP-PERFORATION
10
325.000
20
504.352
30
0.0
40
20.000
0
CIRCLE
8
HNP-PERFORATION
10
395.000
20
504.352
30
0.0
40
20.000
0
CIRCLE
8
HNP-PERFORATION
10
465.000
20
504.352
30
0.0
40
20.000
0
CIRCLE
8
HNP-PERFORATION
10
535.000
20
504.352
30
0.0
40
20.000
0
CIRCLE
8
HNP-PERFORATION
10
605.000
20
504.352
30
0.0
40
20.000
0
CIRCLE
8
HNP-PERFORATION
10
675.000
20
504.352
30
0.0
40
20.000
0
CIRCLE
8
HNP-PERFORATION
10
745.000
20
504.352
30
0.0
40
20.000
0
CIRCLE
8
HNP-PERFORATION
10
815.000
20
504.352
30
0.0
40
20.000
0
CIRCLE
8
HNP-PERFORATION
10
885.000
20
504.352
30
0.0
40
20.000
0
CIRCLE
8
HNP-PERFORATION
10
955.000
20
504.352
30
0.0
40
20.000
0
CIRCLE
8
HNP-PERFORATION
10
1025.000
20
504.352
30
0.0
40
20.000
0
CIRCLE
8
HNP-PERFORATION
10
1095.000
20
504.352
30
0.0
40
20.000
0
CIRCLE
8
HNP-PERFORATION
10
80.000
20
564.974
30
0.0
40
20.000
0
CIRCLE
8
HNP-PERFORATION
10
150.000
20
564.974
30
0.0
40
20.000
0
CIRCLE
8
HNP-PERFORATION
10
220.000
20
564.974
30
0.0
40
20.000
0
CIRCLE
8
HNP-PERFORATION
10
290.000
20
564.974
30
0.0
40
20.000
0
CIRCLE
8
HNP-PERFORATION
10
360.000
20
564.974
30
0.0
40
20.000
0
CIRCLE
8
HNP-PERFORATION
10
430.000
20
564.974
30
0.0
40
20.000
0
CIRCLE
8
HNP-PERFORATION
10
500.000
20
564.974
30
0.0
40
20.000
0
CIRCLE
8
HNP-PERFORATION
10
570.000
20
564.974
30
0.0
40
20.000
0
CIRCLE
8
HNP-PERFORATION
10
640.000
20
564.974
30
0.0
40
20.000
0
CIRCLE
8
HNP-PERFORATION
10
710.000
20
564.974
30
0.0
40
20.000
0
CIRCLE
8
HNP-PERFORATION
10
780.000
20
564.974
30
0.0
40
20.000
0
CIRCLE
8
HNP-PERFORATION
10
850.000
20
564.974
30
0.0
40
20.000
0
CIRCLE
8
HNP-PERFORATION
10
920.000
20
564.974
30
0.0
40
20.000
0
CIRCLE
8
HNP-PERFORATION
10
990.000
20
564.974
30
0.0
40
20.000
0
CIRCLE
8
HNP-PERFORATION
10
1060.000
20
564.974
30
0.0
40
20.000
0
CIRCLE
8
HNP-PERFORATION
10
115.000
20
625.596
30
0.0
40
20.000
0
CIRCLE
8
HNP-PERFORATION
10
185.000
20
625.596
30
0.0
40
20.000
0
CIRCLE
8
HNP-PERFORATION
10
255.000
20
625.596
30
0.0
40
20.000
0
CIRCLE
8
HNP-PERFORATION
10
325.000
20
625.596
30
0.0
40
20.000
0
CIRCLE
8
HNP-PERFORATION
10
395.000
20
625.596
30
0.0
40
20.000
0
CIRCLE
8
HNP-PERFORATION
10
465.000
20
625.596
30
0.0
40
20.000
0
CIRCLE
8
HNP-PERFORATION
10
535.000
20
625.596
30
0.0
40
20.000
0
CIRCLE
8
HNP-PERFORATION
10
605.000
20
625.596
30
0.0
40
20.000
0
CIRCLE
8
HNP-PERFORATION
10
675.000
20
625.596
30
0.0
40
20.000
0
CIRCLE
8
HNP-PERFORATION
10
745.000
20
625.596
30
0.0
40
20.000
0
CIRCLE
8
HNP-PERFORATION
10
815.000
20
625.596
30
0.0
40
20.000
0
CIRCLE
8
HNP-PERFORATION
10
885.000
20
625.596
30
0.0
40
20.000
0
CIRCLE
8
HNP-PERFORATION
10
955.000
20
625.596
30
0.0
40
20.000
0
CIRCLE
8
HNP-PERFORATION
10
1025.000
20
625.596
30
0.0
40
20.000
0
CIRCLE
8
HNP-PERFORATION
10
1095.000
20
625.596
30
0.0
40
20.000
0
CIRCLE
8
HNP-PERFORATION
10
80.000
20
686.218
30
0.0
40
20.000
0
CIRCLE
8
HNP-PERFORATION
10
150.000
20
686.218
30
0.0
40
20.000
0
CIRCLE
8
HNP-PERFORATION
10
220.000
20
686.218
30
0.0
40
20.000
0
CIRCLE
8
HNP-PERFORATION
10
290.000
20
686.218
30
0.0
40
20.000
0
CIRCLE
8
HNP-PERFORATION
10
360.000
20
686.218
30
0.0
40
20.000
0
CIRCLE
8
HNP-PERFORATION
10
430.000
20
686.218
30
0.0
40
20.000
0
CIRCLE
8
HNP-PERFORATION
10
500.000
20
686.218
30
0.0
40
20.000
0
CIRCLE
8
HNP-PERFORATION
10
570.000
20
686.218
30
0.0
40
20.000
0
CIRCLE
8
HNP-PERFORATION
10
640.000
20
686.218
30
0.0
40
20.000
0
CIRCLE
8
HNP-PERFORATION
10
710.000
20
686.218
30
0.0
40
20.000
0
CIRCLE
8
HNP-PERFORATION
10
780.000
20
686.218
30
0.0
40
20.000
0
CIRCLE
8
HNP-PERFORATION
10
850.000
20
686.218
30
0.0
40
20.000
0
CIRCLE
8
HNP-PERFORATION
10
920.000
20
686.218
30
0.0
40
20.000
0
CIRCLE
8
HNP-PERFORATION
10
990.000
20
686.218
30
0.0
40
20.000
0
CIRCLE
8
HNP-PERFORATION
10
1060.000
20
686.218
30
0.0
40
20.000
0
CIRCLE
8
HNP-PERFORATION
10
115.000
20
746.840
30
0.0
40
20.000
0
CIRCLE
8
HNP-PERFORATION
10
185.000
20
746.840
30
0.0
40
20.000
0
CIRCLE
8
HNP-PERFORATION
10
255.000
20
746.840
30
0.0
40
20.000
0
CIRCLE
8
HNP-PERFORATION
10
325.000
20
746.840
30
0.0
40
20.000
0
CIRCLE
8
HNP-PERFORATION
10
395.000
20
746.840
30
0.0
40
20.000
0
CIRCLE
8
HNP-PERFORATION
10
465.000
20
746.840
30
0.0
40
20.000
0
CIRCLE
8
HNP-PERFORATION
10
535.000
20
746.840
30
0.0
40
20.000
0
CIRCLE
8
HNP-PERFORATION
10
605.000
20
746.840
30
0.0
40
20.000
0
CIRCLE
8
HNP-PERFORATION
10
675.000
20
746.840
30
0.0
40
20.000
0
CIRCLE
8
HNP-PERFORATION
10
745.000
20
746.840
30
0.0
40
20.000
0
CIRCLE
8
HNP-PERFORATION
10
815.000
20
746.840
30
0.0
40
20.000
0
CIRCLE
8
HNP-PERFORATION
10
885.000
20
746.840
30
0.0
40
20.000
0
CIRCLE
8
HNP-PERFORATION
10
955.000
20
746.840
30
0.0
40
20.000
0
CIRCLE
8
HNP-PERFORATION
10
1025.000
20
746.840
30
0.0
40
20.000
0
CIRCLE
8
HNP-PERFORATION
10
1095.000
20
746.840
30
0.0
40
20.000
0
CIRCLE
8
HNP-PERFORATION
10
80.000
20
807.461
30
0.0
40
20.000
0
CIRCLE
8
HNP-PERFORATION
10
150.000
20
807.461
30
0.0
40
20.000
0
CIRCLE
8
HNP-PERFORATION
10
220.000
20
807.461
30
0.0
40
20.000
0
CIRCLE
8
HNP-PERFORATION
10
290.000
20
807.461
30
0.0
40
20.000
0
CIRCLE
8
HNP-PERFORATION
10
360.000
20
807.461
30
0.0
40
20.000
0
CIRCLE
8
HNP-PERFORATION
10
430.000
20
807.461
30
0.0
40
20.000
0
CIRCLE
8
HNP-PERFORATION
10
500.000
20
807.461
30
0.0
40
20.000
0
CIRCLE
8
HNP-PERFORATION
10
570.000
20
807.461
30
0.0
40
20.000
0
CIRCLE
8
HNP-PERFORATION
10
640.000
20
807.461
30
0.0
40
20.000
0
CIRCLE
8
HNP-PERFORATION
10
710.000
20
807.461
30
0.0
40
20.000
0
CIRCLE
8
HNP-PERFORATION
10
780.000
20
807.461
30
0.0
40
20.000
0
CIRCLE
8
HNP-PERFORATION
10
850.000
20
807.461
30
0.0
40
20.000
0
CIRCLE
8
HNP-PERFORATION
10
920.000
20
807.461
30
0.0
40
20.000
0
CIRCLE
8
HNP-PERFORATION
10
990.000
20
807.461
30
0.0
40
20.000
0
CIRCLE
8
HNP-PERFORATION
10
1060.000
20
807.461
30
0.0
40
20.000
0
CIRCLE
8
HNP-PERFORATION
10
115.000
20
868.083
30
0.0
40
20.000
0
CIRCLE
8
HNP-PERFORATION
10
185.000
20
868.083
30
0.0
40
20.000
0
CIRCLE
8
HNP-PERFORATION
10
255.000
20
868.083
30
0.0
40
20.000
0
CIRCLE
8
HNP-PERFORATION
10
325.000
20
868.083
30
0.0
40
20.000
0
CIRCLE
8
HNP-PERFORATION
10
395.000
20
868.083
30
0.0
40
20.000
0
CIRCLE
8
HNP-PERFORATION
10
465.000
20
868.083
30
0.0
40
20.000
0
CIRCLE
8
HNP-PERFORATION
10
535.000
20
868.083
30
0.0
40
20.000
0
CIRCLE
8
HNP-PERFORATION
10
605.000
20
868.083
30
0.0
40
20.000
0
CIRCLE
8
HNP-PERFORATION
10
675.000
20
868.083
30
0.0
40
20.000
0
CIRCLE
8
HNP-PERFORATION
10
745.000
20
868.083
30
0.0
40
20.000
0
CIRCLE
8
HNP-PERFORATION
10
815.000
20
868.083
30
0.0
40
20.000
0
CIRCLE
8
HNP-PERFORATION
10
885.000
20
868.083
30
0.0
40
20.000
0
CIRCLE
8
HNP-PERFORATION
10
955.000
20
868.083
30
0.0
40
20.000
0
CIRCLE
8
HNP-PERFORATION
10
1025.000
20
868.083
30
0.0
40
20.000
0
CIRCLE
8
HNP-PERFORATION
10
1095.000
20
868.083
30
0.0
40
20.000
0
CIRCLE
8
HNP-PERFORATION
10
80.000
20
928.705
30
0.0
40
20.000
0
CIRCLE
8
HNP-PERFORATION
10
150.000
20
928.705
30
0.0
40
20.000
0
CIRCLE
8
HNP-PERFORATION
10
220.000
20
928.705
30
0.0
40
20.000
0
CIRCLE
8
HNP-PERFORATION
10
290.000
20
928.705
30
0.0
40
20.000
0
CIRCLE
8
HNP-PERFORATION
10
360.000
20
928.705
30
0.0
40
20.000
0
CIRCLE
8
HNP-PERFORATION
10
430.000
20
928.705
30
0.0
40
20.000
0
CIRCLE
8
HNP-PERFORATION
10
500.000
20
928.705
30
0.0
40
20.000
0
CIRCLE
8
HNP-PERFORATION
10
570.000
20
928.705
30
0.0
40
20.000
0
CIRCLE
8
HNP-PERFORATION
10
640.000
20
928.705
30
0.0
40
20.000
0
CIRCLE
8
HNP-PERFORATION
10
710.000
20
928.705
30
0.0
40
20.000
0
CIRCLE
8
HNP-PERFORATION
10
780.000
20
928.705
30
0.0
40
20.000
0
CIRCLE
8
HNP-PERFORATION
10
850.000
20
928.705
30
0.0
40
20.000
0
CIRCLE
8
HNP-PERFORATION
10
920.000
20
928.705
30
0.0
40
20.000
0
CIRCLE
8
HNP-PERFORATION
10
990.000
20
928.705
30
0.0
40
20.000
0
CIRCLE
8
HNP-PERFORATION
10
1060.000
20
928.705
30
0.0
40
20.000
0
CIRCLE
8
HNP-PERFORATION
10
115.000
20
989.327
30
0.0
40
20.000
0
CIRCLE
8
HNP-PERFORATION
10
185.000
20
989.327
30
0.0
40
20.000
0
CIRCLE
8
HNP-PERFORATION
10
255.000
20
989.327
30
0.0
40
20.000
0
CIRCLE
8
HNP-PERFORATION
10
325.000
20
989.327
30
0.0
40
20.000
0
CIRCLE
8
HNP-PERFORATION
10
395.000
20
989.327
30
0.0
40
20.000
0
CIRCLE
8
HNP-PERFORATION
10
465.000
20
989.327
30
0.0
40
20.000
0
CIRCLE
8
HNP-PERFORATION
10
535.000
20
989.327
30
0.0
40
20.000
0
CIRCLE
8
HNP-PERFORATION
10
605.000
20
989.327
30
0.0
40
20.000
0
CIRCLE
8
HNP-PERFORATION
10
675.000
20
989.327
30
0.0
40
20.000
0
CIRCLE
8
HNP-PERFORATION
10
745.000
20
989.327
30
0.0
40
20.000
0
CIRCLE
8
HNP-PERFORATION
10
815.000
20
989.327
30
0.0
40
20.000
0
CIRCLE
8
HNP-PERFORATION
10
885.000
20
989.327
30
0.0
40
20.000
0
CIRCLE
8
HNP-PERFORATION
10
955.000
20
989.327
30
0.0
40
20.000
0
CIRCLE
8
HNP-PERFORATION
10
1025.000
20
989.327
30
0.0
40
20.000
0
CIRCLE
8
HNP-PERFORATION
10
1095.000
20
989.327
30
0.0
40
20.000
0
CIRCLE
8
HNP-PERFORATION
10
80.000
20
1049.948
30
0.0
40
20.000
0
CIRCLE
8
HNP-PERFORATION
10
150.000
20
1049.948
30
0.0
40
20.000
0
CIRCLE
8
HNP-PERFORATION
10
220.000
20
1049.948
30
0.0
40
20.000
0
CIRCLE
8
HNP-PERFORATION
10
290.000
20
1049.948
30
0.0
40
20.000
0
CIRCLE
8
HNP-PERFORATION
10
360.000
20
1049.948
30
0.0
40
20.000
0
CIRCLE
8
HNP-PERFORATION
10
430.000
20
1049.948
30
0.0
40
20.000
0
CIRCLE
8
HNP-PERFORATION
10
500.000
20
1049.948
30
0.0
40
20.000
0
CIRCLE
8
HNP-PERFORATION
10
570.000
20
1049.948
30
0.0
40
20.000
0
CIRCLE
8
HNP-PERFORATION
10
640.000
20
1049.948
30
0.0
40
20.000
0
CIRCLE
8
HNP-PERFORATION
10
710.000
20
1049.948
30
0.0
40
20.000
0
CIRCLE
8
HNP-PERFORATION
10
780.000
20
1049.948
30
0.0
40
20.000
0
CIRCLE
8
HNP-PERFORATION
10
850.000
20
1049.948
30
0.0
40
20.000
0
CIRCLE
8
HNP-PERFORATION
10
920.000
20
1049.948
30
0.0
40
20.000
0
CIRCLE
8
HNP-PERFORATION
10
990.000
20
1049.948
30
0.0
40
20.000
0
CIRCLE
8
HNP-PERFORATION
10
1060.000
20
1049.948
30
0.0
40
20.000
0
CIRCLE
8
HNP-PERFORATION
10
115.000
20
1110.570
30
0.0
40
20.000
0
CIRCLE
8
HNP-PERFORATION
10
185.000
20
1110.570
30
0.0
40
20.000
0
CIRCLE
8
HNP-PERFORATION
10
255.000
20
1110.570
30
0.0
40
20.000
0
CIRCLE
8
HNP-PERFORATION
10
325.000
20
1110.570
30
0.0
40
20.000
0
CIRCLE
8
HNP-PERFORATION
10
395.000
20
1110.570
30
0.0
40
20.000
0
CIRCLE
8
HNP-PERFORATION
10
465.000
20
1110.570
30
0.0
40
20.000
0
CIRCLE
8
HNP-PERFORATION
10
535.000
20
1110.570
30
0.0
40
20.000
0
CIRCLE
8
HNP-PERFORATION
10
605.000
20
1110.570
30
0.0
40
20.000
0
CIRCLE
8
HNP-PERFORATION
10
675.000
20
1110.570
30
0.0
40
20.000
0
CIRCLE
8
HNP-PERFORATION
10
745.000
20
1110.570
30
0.0
40
20.000
0
CIRCLE
8
HNP-PERFORATION
10
815.000
20
1110.570
30
0.0
40
20.000
0
CIRCLE
8
HNP-PERFORATION
10
885.000
20
1110.570
30
0.0
40
20.000
0
CIRCLE
8
HNP-PERFORATION
10
955.000
20
1110.570
30
0.0
40
20.000
0
CIRCLE
8
HNP-PERFORATION
10
1025.000
20
1110.570
30
0.0
40
20.000
0
CIRCLE
8
HNP-PERFORATION
10
1095.000
20
1110.570
30
0.0
40
20.000
0
CIRCLE
8
HNP-PERFORATION
10
80.000
20
1171.192
30
0.0
40
20.000
0
CIRCLE
8
HNP-PERFORATION
10
150.000
20
1171.192
30
0.0
40
20.000
0
CIRCLE
8
HNP-PERFORATION
10
220.000
20
1171.192
30
0.0
40
20.000
0
CIRCLE
8
HNP-PERFORATION
10
290.000
20
1171.192
30
0.0
40
20.000
0
CIRCLE
8
HNP-PERFORATION
10
360.000
20
1171.192
30
0.0
40
20.000
0
CIRCLE
8
HNP-PERFORATION
10
430.000
20
1171.192
30
0.0
40
20.000
0
CIRCLE
8
HNP-PERFORATION
10
500.000
20
1171.192
30
0.0
40
20.000
0
CIRCLE
8
HNP-PERFORATION
10
570.000
20
1171.192
30
0.0
40
20.000
0
CIRCLE
8
HNP-PERFORATION
10
640.000
20
1171.192
30
0.0
40
20.000
0
CIRCLE
8
HNP-PERFORATION
10
710.000
20
1171.192
30
0.0
40
20.000
0
CIRCLE
8
HNP-PERFORATION
10
780.000
20
1171.192
30
0.0
40
20.000
0
CIRCLE
8
HNP-PERFORATION
10
850.000
20
1171.192
30
0.0
40
20.000
0
CIRCLE
8
HNP-PERFORATION
10
920.000
20
1171.192
30
0.0
40
20.000
0
CIRCLE
8
HNP-PERFORATION
10
990.000
20
1171.192
30
0.0
40
20.000
0
CIRCLE
8
HNP-PERFORATION
10
1060.000
20
1171.192
30
0.0
40
20.000
0
CIRCLE
8
HNP-PERFORATION
10
115.000
20
1231.814
30
0.0
40
20.000
0
CIRCLE
8
HNP-PERFORATION
10
185.000
20
1231.814
30
0.0
40
20.000
0
CIRCLE
8
HNP-PERFORATION
10
255.000
20
1231.814
30
0.0
40
20.000
0
CIRCLE
8
HNP-PERFORATION
10
325.000
20
1231.814
30
0.0
40
20.000
0
CIRCLE
8
HNP-PERFORATION
10
395.000
20
1231.814
30
0.0
40
20.000
0
CIRCLE
8
HNP-PERFORATION
10
465.000
20
1231.814
30
0.0
40
20.000
0
CIRCLE
8
HNP-PERFORATION
10
535.000
20
1231.814
30
0.0
40
20.000
0
CIRCLE
8
HNP-PERFORATION
10
605.000
20
1231.814
30
0.0
40
20.000
0
CIRCLE
8
HNP-PERFORATION
10
675.000
20
1231.814
30
0.0
40
20.000
0
CIRCLE
8
HNP-PERFORATION
10
745.000
20
1231.814
30
0.0
40
20.000
0
CIRCLE
8
HNP-PERFORATION
10
815.000
20
1231.814
30
0.0
40
20.000
0
CIRCLE
8
HNP-PERFORATION
10
885.000
20
1231.814
30
0.0
40
20.000
0
CIRCLE
8
HNP-PERFORATION
10
955.000
20
1231.814
30
0.0
40
20.000
0
CIRCLE
8
HNP-PERFORATION
10
1025.000
20
1231.814
30
0.0
40
20.000
0
CIRCLE
8
HNP-PERFORATION
10
1095.000
20
1231.814
30
0.0
40
20.000
0
CIRCLE
8
HNP-PERFORATION
10
80.000
20
1292.436
30
0.0
40
20.000
0
CIRCLE
8
HNP-PERFORATION
10
150.000
20
1292.436
30
0.0
40
20.000
0
CIRCLE
8
HNP-PERFORATION
10
220.000
20
1292.436
30
0.0
40
20.000
0
CIRCLE
8
HNP-PERFORATION
10
290.000
20
1292.436
30
0.0
40
20.000
0
CIRCLE
8
HNP-PERFORATION
10
360.000
20
1292.436
30
0.0
40
20.000
0
CIRCLE
8
HNP-PERFORATION
10
430.000
20
1292.436
30
0.0
40
20.000
0
CIRCLE
8
HNP-PERFORATION
10
500.000
20
1292.436
30
0.0
40
20.000
0
CIRCLE
8
HNP-PERFORATION
10
570.000
20
1292.436
30
0.0
40
20.000
0
CIRCLE
8
HNP-PERFORATION
10
640.000
20
1292.436
30
0.0
40
20.000
0
CIRCLE
8
HNP-PERFORATION
10
710.000
20
1292.436
30
0.0
40
20.000
0
CIRCLE
8
HNP-PERFORATION
10
780.000
20
1292.436
30
0.0
40
20.000
0
CIRCLE
8
HNP-PERFORATION
10
850.000
20
1292.436
30
0.0
40
20.000
0
CIRCLE
8
HNP-PERFORATION
10
920.000
20
1292.436
30
0.0
40
20.000
0
CIRCLE
8
HNP-PERFORATION
10
990.000
20
1292.436
30
0.0
40
20.000
0
CIRCLE
8
HNP-PERFORATION
10
1060.000
20
1292.436
30
0.0
40
20.000
0
CIRCLE
8
HNP-PERFORATION
10
115.000
20
1353.057
30
0.0
40
20.000
0
CIRCLE
8
HNP-PERFORATION
10
185.000
20
1353.057
30
0.0
40
20.000
0
CIRCLE
8
HNP-PERFORATION
10
255.000
20
1353.057
30
0.0
40
20.000
0
CIRCLE
8
HNP-PERFORATION
10
325.000
20
1353.057
30
0.0
40
20.000
0
CIRCLE
8
HNP-PERFORATION
10
395.000
20
1353.057
30
0.0
40
20.000
0
CIRCLE
8
HNP-PERFORATION
10
465.000
20
1353.057
30
0.0
40
20.000
0
CIRCLE
8
HNP-PERFORATION
10
535.000
20
1353.057
30
0.0
40
20.000
0
CIRCLE
8
HNP-PERFORATION
10
605.000
20
1353.057
30
0.0
40
20.000
0
CIRCLE
8
HNP-PERFORATION
10
675.000
20
1353.057
30
0.0
40
20.000
0
CIRCLE
8
HNP-PERFORATION
10
745.000
20
1353.057
30
0.0
40
20.000
0
CIRCLE
8
HNP-PERFORATION
10
815.000
20
1353.057
30
0.0
40
20.000
0
CIRCLE
8
HNP-PERFORATION
10
885.000
20
1353.057
30
0.0
40
20.000
0
CIRCLE
8
HNP-PERFORATION
10
955.000
20
1353.057
30
0.0
40
20.000
0
CIRCLE
8
HNP-PERFORATION
10
1025.000
20
1353.057
30
0.0
40
20.000
0
CIRCLE
8
HNP-PERFORATION
10
1095.000
20
1353.057
30
0.0
40
20.000
0
CIRCLE
8
HNP-PERFORATION
10
80.000
20
1413.679
30
0.0
40
20.000
0
CIRCLE
8
HNP-PERFORATION
10
150.000
20
1413.679
30
0.0
40
20.000
0
CIRCLE
8
HNP-PERFORATION
10
220.000
20
1413.679
30
0.0
40
20.000
0
CIRCLE
8
HNP-PERFORATION
10
290.000
20
1413.679
30
0.0
40
20.000
0
CIRCLE
8
HNP-PERFORATION
10
360.000
20
1413.679
30
0.0
40
20.000
0
CIRCLE
8
HNP-PERFORATION
10
430.000
20
1413.679
30
0.0
40
20.000
0
CIRCLE
8
HNP-PERFORATION
10
500.000
20
1413.679
30
0.0
40
20.000
0
CIRCLE
8
HNP-PERFORATION
10
570.000
20
1413.679
30
0.0
40
20.000
0
CIRCLE
8
HNP-PERFORATION
10
640.000
20
1413.679
30
0.0
40
20.000
0
CIRCLE
8
HNP-PERFORATION
10
710.000
20
1413.679
30
0.0
40
20.000
0
CIRCLE
8
HNP-PERFORATION
10
780.000
20
1413.679
30
0.0
40
20.000
0
CIRCLE
8
HNP-PERFORATION
10
850.000
20
1413.679
30
0.0
40
20.000
0
CIRCLE
8
HNP-PERFORATION
10
920.000
20
1413.679
30
0.0
40
20.000
0
CIRCLE
8
HNP-PERFORATION
10
990.000
20
1413.679
30
0.0
40
20.000
0
CIRCLE
8
HNP-PERFORATION
10
1060.000
20
1413.679
30
0.0
40
20.000
0
CIRCLE
8
HNP-PERFORATION
10
115.000
20
1474.301
30
0.0
40
20.000
0
CIRCLE
8
HNP-PERFORATION
10
185.000
20
1474.301
30
0.0
40
20.000
0
CIRCLE
8
HNP-PERFORATION
10
255.000
20
1474.301
30
0.0
40
20.000
0
CIRCLE
8
HNP-PERFORATION
10
325.000
20
1474.301
30
0.0
40
20.000
0
CIRCLE
8
HNP-PERFORATION
10
395.000
20
1474.301
30
0.0
40
20.000
0
CIRCLE
8
HNP-PERFORATION
10
465.000
20
1474.301
30
0.0
40
20.000
0
CIRCLE
8
HNP-PERFORATION
10
535.000
20
1474.301
30
0.0
40
20.000
0
CIRCLE
8
HNP-PERFORATION
10
605.000
20
1474.301
30
0.0
40
20.000
0
CIRCLE
8
HNP-PERFORATION
10
675.000
20
1474.301
30
0.0
40
20.000
0
CIRCLE
8
HNP-PERFORATION
10
745.000
20
1474.301
30
0.0
40
20.000
0
CIRCLE
8
HNP-PERFORATION
10
815.000
20
1474.301
30
0.0
40
20.000
0
CIRCLE
8
HNP-PERFORATION
10
885.000
20
1474.301
30
0.0
40
20.000
0
CIRCLE
8
HNP-PERFORATION
10
955.000
20
1474.301
30
0.0
40
20.000
0
CIRCLE
8
HNP-PERFORATION
10
1025.000
20
1474.301
30
0.0
40
20.000
0
CIRCLE
8
HNP-PERFORATION
10
1095.000
20
1474.301
30
0.0
40
20.000
0
CIRCLE
8
HNP-PERFORATION
10
80.000
20
1534.923
30
0.0
40
20.000
0
CIRCLE
8
HNP-PERFORATION
10
150.000
20
1534.923
30
0.0
40
20.000
0
CIRCLE
8
HNP-PERFORATION
10
220.000
20
1534.923
30
0.0
40
20.000
0
CIRCLE
8
HNP-PERFORATION
10
290.000
20
1534.923
30
0.0
40
20.000
0
CIRCLE
8
HNP-PERFORATION
10
360.000
20
1534.923
30
0.0
40
20.000
0
CIRCLE
8
HNP-PERFORATION
10
430.000
20
1534.923
30
0.0
40
20.000
0
CIRCLE
8
HNP-PERFORATION
10
500.000
20
1534.923
30
0.0
40
20.000
0
CIRCLE
8
HNP-PERFORATION
10
570.000
20
1534.923
30
0.0
40
20.000
0
CIRCLE
8
HNP-PERFORATION
10
640.000
20
1534.923
30
0.0
40
20.000
0
CIRCLE
8
HNP-PERFORATION
10
710.000
20
1534.923
30
0.0
40
20.000
0
CIRCLE
8
HNP-PERFORATION
10
780.000
20
1534.923
30
0.0
40
20.000
0
CIRCLE
8
HNP-PERFORATION
10
850.000
20
1534.923
30
0.0
40
20.000
0
CIRCLE
8
HNP-PERFORATION
10
920.000
20
1534.923
30
0.0
40
20.000
0
CIRCLE
8
HNP-PERFORATION
10
990.000
20
1534.923
30
0.0
40
20.000
0
CIRCLE
8
HNP-PERFORATION
10
1060.000
20
1534.923
30
0.0
40
20.000
0
CIRCLE
8
HNP-PERFORATION
10
115.000
20
1595.544
30
0.0
40
20.000
0
CIRCLE
8
HNP-PERFORATION
10
185.000
20
1595.544
30
0.0
40
20.000
0
CIRCLE
8
HNP-PERFORATION
10
255.000
20
1595.544
30
0.0
40
20.000
0
CIRCLE
8
HNP-PERFORATION
10
325.000
20
1595.544
30
0.0
40
20.000
0
CIRCLE
8
HNP-PERFORATION
10
395.000
20
1595.544
30
0.0
40
20.000
0
CIRCLE
8
HNP-PERFORATION
10
465.000
20
1595.544
30
0.0
40
20.000
0
CIRCLE
8
HNP-PERFORATION
10
535.000
20
1595.544
30
0.0
40
20.000
0
CIRCLE
8
HNP-PERFORATION
10
605.000
20
1595.544
30
0.0
40
20.000
0
CIRCLE
8
HNP-PERFORATION
10
675.000
20
1595.544
30
0.0
40
20.000
0
CIRCLE
8
HNP-PERFORATION
10
745.000
20
1595.544
30
0.0
40
20.000
0
CIRCLE
8
HNP-PERFORATION
10
815.000
20
1595.544
30
0.0
40
20.000
0
CIRCLE
8
HNP-PERFORATION
10
885.000
20
1595.544
30
0.0
40
20.000
0
CIRCLE
8
HNP-PERFORATION
10
955.000
20
1595.544
30
0.0
40
20.000
0
CIRCLE
8
HNP-PERFORATION
10
1025.000
20
1595.544
30
0.0
40
20.000
0
CIRCLE
8
HNP-PERFORATION
10
1095.000
20
1595.544
30
0.0
40
20.000
0
CIRCLE
8
HNP-PERFORATION
10
80.000
20
1656.166
30
0.0
40
20.000
0
CIRCLE
8
HNP-PERFORATION
10
150.000
20
1656.166
30
0.0
40
20.000
0
CIRCLE
8
HNP-PERFORATION
10
220.000
20
1656.166
30
0.0
40
20.000
0
CIRCLE
8
HNP-PERFORATION
10
290.000
20
1656.166
30
0.0
40
20.000
0
CIRCLE
8
HNP-PERFORATION
10
360.000
20
1656.166
30
0.0
40
20.000
0
CIRCLE
8
HNP-PERFORATION
10
430.000
20
1656.166
30
0.0
40
20.000
0
CIRCLE
8
HNP-PERFORATION
10
500.000
20
1656.166
30
0.0
40
20.000
0
CIRCLE
8
HNP-PERFORATION
10
570.000
20
1656.166
30
0.0
40
20.000
0
CIRCLE
8
HNP-PERFORATION
10
640.000
20
1656.166
30
0.0
40
20.000
0
CIRCLE
8
HNP-PERFORATION
10
710.000
20
1656.166
30
0.0
40
20.000
0
CIRCLE
8
HNP-PERFORATION
10
780.000
20
1656.166
30
0.0
40
20.000
0
CIRCLE
8
HNP-PERFORATION
10
850.000
20
1656.166
30
0.0
40
20.000
0
CIRCLE
8
HNP-PERFORATION
10
920.000
20
1656.166
30
0.0
40
20.000
0
CIRCLE
8
HNP-PERFORATION
10
990.000
20
1656.166
30
0.0
40
20.000
0
CIRCLE
8
HNP-PERFORATION
10
1060.000
20
1656.166
30
0.0
40
20.000
0
CIRCLE
8
HNP-PERFORATION
10
115.000
20
1716.788
30
0.0
40
20.000
0
CIRCLE
8
HNP-PERFORATION
10
185.000
20
1716.788
30
0.0
40
20.000
0
CIRCLE
8
HNP-PERFORATION
10
255.000
20
1716.788
30
0.0
40
20.000
0
CIRCLE
8
HNP-PERFORATION
10
325.000
20
1716.788
30
0.0
40
20.000
0
CIRCLE
8
HNP-PERFORATION
10
395.000
20
1716.788
30
0.0
40
20.000
0
CIRCLE
8
HNP-PERFORATION
10
465.000
20
1716.788
30
0.0
40
20.000
0
CIRCLE
8
HNP-PERFORATION
10
535.000
20
1716.788
30
0.0
40
20.000
0
CIRCLE
8
HNP-PERFORATION
10
605.000
20
1716.788
30
0.0
40
20.000
0
CIRCLE
8
HNP-PERFORATION
10
675.000
20
1716.788
30
0.0
40
20.000
0
CIRCLE
8
HNP-PERFORATION
10
745.000
20
1716.788
30
0.0
40
20.000
0
CIRCLE
8
HNP-PERFORATION
10
815.000
20
1716.788
30
0.0
40
20.000
0
CIRCLE
8
HNP-PERFORATION
10
885.000
20
1716.788
30
0.0
40
20.000
0
CIRCLE
8
HNP-PERFORATION
10
955.000
20
1716.788
30
0.0
40
20.000
0
CIRCLE
8
HNP-PERFORATION
10
1025.000
20
1716.788
30
0.0
40
20.000
0
CIRCLE
8
HNP-PERFORATION
10
1095.000
20
1716.788
30
0.0
40
20.000
0
CIRCLE
8
HNP-PERFORATION
10
80.000
20
1777.410
30
0.0
40
20.000
0
CIRCLE
8
HNP-PERFORATION
10
150.000
20
1777.410
30
0.0
40
20.000
0
CIRCLE
8
HNP-PERFORATION
10
220.000
20
1777.410
30
0.0
40
20.000
0
CIRCLE
8
HNP-PERFORATION
10
290.000
20
1777.410
30
0.0
40
20.000
0
CIRCLE
8
HNP-PERFORATION
10
360.000
20
1777.410
30
0.0
40
20.000
0
CIRCLE
8
HNP-PERFORATION
10
430.000
20
1777.410
30
0.0
40
20.000
0
CIRCLE
8
HNP-PERFORATION
10
500.000
20
1777.410
30
0.0
40
20.000
0
CIRCLE
8
HNP-PERFORATION
10
570.000
20
1777.410
30
0.0
40
20.000
0
CIRCLE
8
HNP-PERFORATION
10
640.000
20
1777.410
30
0.0
40
20.000
0
CIRCLE
8
HNP-PERFORATION
10
710.000
20
1777.410
30
0.0
40
20.000
0
CIRCLE
8
HNP-PERFORATION
10
780.000
20
1777.410
30
0.0
40
20.000
0
CIRCLE
8
HNP-PERFORATION
10
850.000
20
1777.410
30
0.0
40
20.000
0
CIRCLE
8
HNP-PERFORATION
10
920.000
20
1777.410
30
0.0
40
20.000
0
CIRCLE
8
HNP-PERFORATION
10
990.000
20
1777.410
30
0.0
40
20.000
0
CIRCLE
8
HNP-PERFORATION
10
1060.000
20
1777.410
30
0.0
40
20.000
0
CIRCLE
8
HNP-PERFORATION
10
115.000
20
1838.032
30
0.0
40
20.000
0
CIRCLE
8
HNP-PERFORATION
10
185.000
20
1838.032
30
0.0
40
20.000
0
CIRCLE
8
HNP-PERFORATION
10
255.000
20
1838.032
30
0.0
40
20.000
0
CIRCLE
8
HNP-PERFORATION
10
325.000
20
1838.032
30
0.0
40
20.000
0
CIRCLE
8
HNP-PERFORATION
10
395.000
20
1838.032
30
0.0
40
20.000
0
CIRCLE
8
HNP-PERFORATION
10
465.000
20
1838.032
30
0.0
40
20.000
0
CIRCLE
8
HNP-PERFORATION
10
535.000
20
1838.032
30
0.0
40
20.000
0
CIRCLE
8
HNP-PERFORATION
10
605.000
20
1838.032
30
0.0
40
20.000
0
CIRCLE
8
HNP-PERFORATION
10
675.000
20
1838.032
30
0.0
40
20.000
0
CIRCLE
8
HNP-PERFORATION
10
745.000
20
1838.032
30
0.0
40
20.000
0
CIRCLE
8
HNP-PERFORATION
10
815.000
20
1838.032
30
0.0
40
20.000
0
CIRCLE
8
HNP-PERFORATION
10
885.000
20
1838.032
30
0.0
40
20.000
0
CIRCLE
8
HNP-PERFORATION
10
955.000
20
1838.032
30
0.0
40
20.000
0
CIRCLE
8
HNP-PERFORATION
10
1025.000
20
1838.032
30
0.0
40
20.000
0
CIRCLE
8
HNP-PERFORATION
10
1095.000
20
1838.032
30
0.0
40
20.000
0
CIRCLE
8
HNP-PERFORATION
10
80.000
20
1898.653
30
0.0
40
20.000
0
CIRCLE
8
HNP-PERFORATION
10
150.000
20
1898.653
30
0.0
40
20.000
0
CIRCLE
8
HNP-PERFORATION
10
220.000
20
1898.653
30
0.0
40
20.000
0
CIRCLE
8
HNP-PERFORATION
10
290.000
20
1898.653
30
0.0
40
20.000
0
CIRCLE
8
HNP-PERFORATION
10
360.000
20
1898.653
30
0.0
40
20.000
0
CIRCLE
8
HNP-PERFORATION
10
430.000
20
1898.653
30
0.0
40
20.000
0
CIRCLE
8
HNP-PERFORATION
10
500.000
20
1898.653
30
0.0
40
20.000
0
CIRCLE
8
HNP-PERFORATION
10
570.000
20
1898.653
30
0.0
40
20.000
0
CIRCLE
8
HNP-PERFORATION
10
640.000
20
1898.653
30
0.0
40
20.000
0
CIRCLE
8
HNP-PERFORATION
10
710.000
20
1898.653
30
0.0
40
20.000
0
CIRCLE
8
HNP-PERFORATION
10
780.000
20
1898.653
30
0.0
40
20.000
0
CIRCLE
8
HNP-PERFORATION
10
850.000
20
1898.653
30
0.0
40
20.000
0
CIRCLE
8
HNP-PERFORATION
10
920.000
20
1898.653
30
0.0
40
20.000
0
CIRCLE
8
HNP-PERFORATION
10
990.000
20
1898.653
30
0.0
40
20.000
0
CIRCLE
8
HNP-PERFORATION
10
1060.000
20
1898.653
30
0.0
40
20.000
0
CIRCLE
8
HNP-PERFORATION
10
115.000
20
1959.275
30
0.0
40
20.000
0
CIRCLE
8
HNP-PERFORATION
10
185.000
20
1959.275
30
0.0
40
20.000
0
CIRCLE
8
HNP-PERFORATION
10
255.000
20
1959.275
30
0.0
40
20.000
0
CIRCLE
8
HNP-PERFORATION
10
325.000
20
1959.275
30
0.0
40
20.000
0
CIRCLE
8
HNP-PERFORATION
10
395.000
20
1959.275
30
0.0
40
20.000
0
CIRCLE
8
HNP-PERFORATION
10
465.000
20
1959.275
30
0.0
40
20.000
0
CIRCLE
8
HNP-PERFORATION
10
535.000
20
1959.275
30
0.0
40
20.000
0
CIRCLE
8
HNP-PERFORATION
10
605.000
20
1959.275
30
0.0
40
20.000
0
CIRCLE
8
HNP-PERFORATION
10
675.000
20
1959.275
30
0.0
40
20.000
0
CIRCLE
8
HNP-PERFORATION
10
745.000
20
1959.275
30
0.0
40
20.000
0
CIRCLE
8
HNP-PERFORATION
10
815.000
20
1959.275
30
0.0
40
20.000
0
CIRCLE
8
HNP-PERFORATION
10
885.000
20
1959.275
30
0.0
40
20.000
0
CIRCLE
8
HNP-PERFORATION
10
955.000
20
1959.275
30
0.0
40
20.000
0
CIRCLE
8
HNP-PERFORATION
10
1025.000
20
1959.275
30
0.0
40
20.000
0
CIRCLE
8
HNP-PERFORATION
10
1095.000
20
1959.275
30
0.0
40
20.000
0
CIRCLE
8
HNP-PERFORATION
10
80.000
20
2019.897
30
0.0
40
20.000
0
CIRCLE
8
HNP-PERFORATION
10
150.000
20
2019.897
30
0.0
40
20.000
0
CIRCLE
8
HNP-PERFORATION
10
220.000
20
2019.897
30
0.0
40
20.000
0
CIRCLE
8
HNP-PERFORATION
10
290.000
20
2019.897
30
0.0
40
20.000
0
CIRCLE
8
HNP-PERFORATION
10
360.000
20
2019.897
30
0.0
40
20.000
0
CIRCLE
8
HNP-PERFORATION
10
430.000
20
2019.897
30
0.0
40
20.000
0
CIRCLE
8
HNP-PERFORATION
10
500.000
20
2019.897
30
0.0
40
20.000
0
CIRCLE
8
HNP-PERFORATION
10
570.000
20
2019.897
30
0.0
40
20.000
0
CIRCLE
8
HNP-PERFORATION
10
640.000
20
2019.897
30
0.0
40
20.000
0
CIRCLE
8
HNP-PERFORATION
10
710.000
20
2019.897
30
0.0
40
20.000
0
CIRCLE
8
HNP-PERFORATION
10
780.000
20
2019.897
30
0.0
40
20.000
0
CIRCLE
8
HNP-PERFORATION
10
850.000
20
2019.897
30
0.0
40
20.000
0
CIRCLE
8
HNP-PERFORATION
10
920.000
20
2019.897
30
0.0
40
20.000
0
CIRCLE
8
HNP-PERFORATION
10
990.000
20
2019.897
30
0.0
40
20.000
0
CIRCLE
8
HNP-PERFORATION
10
1060.000
20
2019.897
30
0.0
40
20.000
0
CIRCLE
8
HNP-PERFORATION
10
115.000
20
2080.519
30
0.0
40
20.000
0
CIRCLE
8
HNP-PERFORATION
10
185.000
20
2080.519
30
0.0
40
20.000
0
CIRCLE
8
HNP-PERFORATION
10
255.000
20
2080.519
30
0.0
40
20.000
0
CIRCLE
8
HNP-PERFORATION
10
325.000
20
2080.519
30
0.0
40
20.000
0
CIRCLE
8
HNP-PERFORATION
10
395.000
20
2080.519
30
0.0
40
20.000
0
CIRCLE
8
HNP-PERFORATION
10
465.000
20
2080.519
30
0.0
40
20.000
0
CIRCLE
8
HNP-PERFORATION
10
535.000
20
2080.519
30
0.0
40
20.000
0
CIRCLE
8
HNP-PERFORATION
10
605.000
20
2080.519
30
0.0
40
20.000
0
CIRCLE
8
HNP-PERFORATION
10
675.000
20
2080.519
30
0.0
40
20.000
0
CIRCLE
8
HNP-PERFORATION
10
745.000
20
2080.519
30
0.0
40
20.000
0
CIRCLE
8
HNP-PERFORATION
10
815.000
20
2080.519
30
0.0
40
20.000
0
CIRCLE
8
HNP-PERFORATION
10
885.000
20
2080.519
30
0.0
40
20.000
0
CIRCLE
8
HNP-PERFORATION
10
955.000
20
2080.519
30
0.0
40
20.000
0
CIRCLE
8
HNP-PERFORATION
10
1025.000
20
2080.519
30
0.0
40
20.000
0
CIRCLE
8
HNP-PERFORATION
10
1095.000
20
2080.519
30
0.0
40
20.000
0
CIRCLE
8
HNP-PERFORATION
10
80.000
20
2141.140
30
0.0
40
20.000
0
CIRCLE
8
HNP-PERFORATION
10
150.000
20
2141.140
30
0.0
40
20.000
0
CIRCLE
8
HNP-PERFORATION
10
220.000
20
2141.140
30
0.0
40
20.000
0
CIRCLE
8
HNP-PERFORATION
10
290.000
20
2141.140
30
0.0
40
20.000
0
CIRCLE
8
HNP-PERFORATION
10
360.000
20
2141.140
30
0.0
40
20.000
0
CIRCLE
8
HNP-PERFORATION
10
430.000
20
2141.140
30
0.0
40
20.000
0
CIRCLE
8
HNP-PERFORATION
10
500.000
20
2141.140
30
0.0
40
20.000
0
CIRCLE
8
HNP-PERFORATION
10
570.000
20
2141.140
30
0.0
40
20.000
0
CIRCLE
8
HNP-PERFORATION
10
640.000
20
2141.140
30
0.0
40
20.000
0
CIRCLE
8
HNP-PERFORATION
10
710.000
20
2141.140
30
0.0
40
20.000
0
CIRCLE
8
HNP-PERFORATION
10
780.000
20
2141.140
30
0.0
40
20.000
0
CIRCLE
8
HNP-PERFORATION
10
850.000
20
2141.140
30
0.0
40
20.000
0
CIRCLE
8
HNP-PERFORATION
10
920.000
20
2141.140
30
0.0
40
20.000
0
CIRCLE
8
HNP-PERFORATION
10
990.000
20
2141.140
30
0.0
40
20.000
0
CIRCLE
8
HNP-PERFORATION
10
1060.000
20
2141.140
30
0.0
40
20.000
0
CIRCLE
8
HNP-PERFORATION
10
115.000
20
2201.762
30
0.0
40
20.000
0
CIRCLE
8
HNP-PERFORATION
10
185.000
20
2201.762
30
0.0
40
20.000
0
CIRCLE
8
HNP-PERFORATION
10
255.000
20
2201.762
30
0.0
40
20.000
0
CIRCLE
8
HNP-PERFORATION
10
325.000
20
2201.762
30
0.0
40
20.000
0
CIRCLE
8
HNP-PERFORATION
10
395.000
20
2201.762
30
0.0
40
20.000
0
CIRCLE
8
HNP-PERFORATION
10
465.000
20
2201.762
30
0.0
40
20.000
0
CIRCLE
8
HNP-PERFORATION
10
535.000
20
2201.762
30
0.0
40
20.000
0
CIRCLE
8
HNP-PERFORATION
10
605.000
20
2201.762
30
0.0
40
20.000
0
CIRCLE
8
HNP-PERFORATION
10
675.000
20
2201.762
30
0.0
40
20.000
0
CIRCLE
8
HNP-PERFORATION
10
745.000
20
2201.762
30
0.0
40
20.000
0
CIRCLE
8
HNP-PERFORATION
10
815.000
20
2201.762
30
0.0
40
20.000
0
CIRCLE
8
HNP-PERFORATION
10
885.000
20
2201.762
30
0.0
40
20.000
0
CIRCLE
8
HNP-PERFORATION
10
955.000
20
2201.762
30
0.0
40
20.000
0
CIRCLE
8
HNP-PERFORATION
10
1025.000
20
2201.762
30
0.0
40
20.000
0
CIRCLE
8
HNP-PERFORATION
10
1095.000
20
2201.762
30
0.0
40
20.000
0
CIRCLE
8
HNP-PERFORATION
10
80.000
20
2262.384
30
0.0
40
20.000
0
CIRCLE
8
HNP-PERFORATION
10
150.000
20
2262.384
30
0.0
40
20.000
0
CIRCLE
8
HNP-PERFORATION
10
220.000
20
2262.384
30
0.0
40
20.000
0
CIRCLE
8
HNP-PERFORATION
10
290.000
20
2262.384
30
0.0
40
20.000
0
CIRCLE
8
HNP-PERFORATION
10
360.000
20
2262.384
30
0.0
40
20.000
0
CIRCLE
8
HNP-PERFORATION
10
430.000
20
2262.384
30
0.0
40
20.000
0
CIRCLE
8
HNP-PERFORATION
10
500.000
20
2262.384
30
0.0
40
20.000
0
CIRCLE
8
HNP-PERFORATION
10
570.000
20
2262.384
30
0.0
40
20.000
0
CIRCLE
8
HNP-PERFORATION
10
640.000
20
2262.384
30
0.0
40
20.000
0
CIRCLE
8
HNP-PERFORATION
10
710.000
20
2262.384
30
0.0
40
20.000
0
CIRCLE
8
HNP-PERFORATION
10
780.000
20
2262.384
30
0.0
40
20.000
0
CIRCLE
8
HNP-PERFORATION
10
850.000
20
2262.384
30
0.0
40
20.000
0
CIRCLE
8
HNP-PERFORATION
10
920.000
20
2262.384
30
0.0
40
20.000
0
CIRCLE
8
HNP-PERFORATION
10
990.000
20
2262.384
30
0.0
40
20.000
0
CIRCLE
8
HNP-PERFORATION
10
1060.000
20
2262.384
30
0.0
40
20.000
0
CIRCLE
8
HNP-FIXING
10
80.000
20
120.000
30
0.0
40
5.000
0
CIRCLE
8
HNP-FIXING
10
1120.000
20
120.000
30
0.0
40
5.000
0
CIRCLE
8
HNP-FIXING
10
80.000
20
1200.000
30
0.0
40
5.000
0
CIRCLE
8
HNP-FIXING
10
1120.000
20
1200.000
30
0.0
40
5.000
0
CIRCLE
8
HNP-FIXING
10
80.000
20
2280.000
30
0.0
40
5.000
0
CIRCLE
8
HNP-FIXING
10
1120.000
20
2280.000
30
0.0
40
5.000
0
LINE
8
HNP-NOTES
10
0.000
20
-260.000
30
0.0
11
1200.000
21
-260.000
31
0.0
0
LINE
8
HNP-NOTES
10
1200.000
20
-260.000
30
0.0
11
1200.000
21
-60.000
31
0.0
0
LINE
8
HNP-NOTES
10
1200.000
20
-60.000
30
0.0
11
0.000
21
-60.000
31
0.0
0
LINE
8
HNP-NOTES
10
0.000
20
-60.000
30
0.0
11
0.000
21
-260.000
31
0.0
0
TEXT
8
HNP-NOTES
10
20.000
20
-110.000
30
0.0
40
34.000
1
H&P BUILDING - CORTEN SCREEN - ROUND PERFORATION
0
TEXT
8
HNP-NOTES
10
20.000
20
-160.000
30
0.0
40
20.000
1
HOLE DIA 40mm - STAGGERED PITCH 70mm  |  PANEL 1200 x 2400 mm  |  OPEN AREA ~24%
0
TEXT
8
HNP-NOTES
10
20.000
20
-205.000
30
0.0
40
18.000
1
REPRESENTATIVE GEOMETRY - CUT TO PROJECT SHEET SIZE, MATERIAL AND OPEN AREA
0
TEXT
8
HNP-NOTES
10
20.000
20
-245.000
30
0.0
40
18.000
1
hnpbuilding.com  |  sales@hnpbuilding.com  |  (720) 609-9307
0
ENDSEC
0
EOF
